<svg xmlns="http://www.w3.org/2000/svg" width="32" height="42" fill="none">
    <path fill="#F6FEFF" fill-rule="evenodd" d="M6.816 26.867h19.158a4.434 4.434 0 0 0 4.421-4.42V6.235a4.434 4.434 0 0 0-4.421-4.421H6.816a4.434 4.434 0 0 0-4.421 4.42v25.053l4.421-4.42ZM17.87 12.13h-2.947v8.106h2.947V12.13Zm-1.474-2.21a1.474 1.474 0 1 0 0-2.947 1.474 1.474 0 0 0 0 2.947Zm-5.943 30.265c-.46 0-.871-.1-1.232-.302a2.24 2.24 0 0 1-.851-.83v1.02H7.022V31.89h1.543v3.341c.214-.351.494-.628.84-.83.353-.201.763-.302 1.23-.302.392 0 .749.082 1.071.246.322.157.599.378.829.662.238.284.418.609.54.975.131.366.196.759.196 1.177 0 .419-.073.811-.218 1.178a3.09 3.09 0 0 1-.587.975 2.742 2.742 0 0 1-.898.65c-.338.15-.71.224-1.116.224Zm-.426-1.278c.245 0 .468-.044.668-.134.207-.097.383-.224.529-.381a1.53 1.53 0 0 0 .345-.55c.085-.216.127-.44.127-.672 0-.322-.07-.617-.207-.886a1.632 1.632 0 0 0-.553-.661 1.37 1.37 0 0 0-.817-.247c-.222 0-.437.052-.644.157-.2.097-.38.231-.541.403a2.103 2.103 0 0 0-.368.583v1.402c.046.15.118.284.218.403.108.12.23.225.368.314.139.083.28.15.426.202.154.045.303.067.449.067ZM0 38.336c0-.382.107-.714.322-.998.223-.292.53-.516.92-.673.392-.157.841-.235 1.347-.235.253 0 .51.018.771.056.261.037.488.097.68.18v-.315c0-.373-.116-.661-.346-.863-.222-.202-.556-.303-1.001-.303-.33 0-.645.056-.944.168-.299.112-.614.277-.943.494L.31 34.86a4.995 4.995 0 0 1 1.22-.572c.422-.127.863-.19 1.323-.19.86 0 1.527.209 2.002.628.484.418.725 1.016.725 1.793v1.873c0 .157.027.269.081.336.061.067.157.108.288.123v1.222a11.8 11.8 0 0 1-.38.056c-.108.015-.2.023-.276.023-.307 0-.541-.067-.702-.202a.863.863 0 0 1-.288-.493l-.035-.303c-.26.329-.586.583-.978.762-.391.18-.79.27-1.197.27-.398 0-.76-.079-1.081-.236a1.982 1.982 0 0 1-.748-.661A1.77 1.77 0 0 1 0 38.336Zm3.752.302c.084-.09.153-.18.207-.269a.488.488 0 0 0 .08-.246v-.595a2.92 2.92 0 0 0-.598-.168 2.992 2.992 0 0 0-.61-.067c-.399 0-.729.086-.99.258-.253.164-.38.385-.38.661 0 .15.043.292.127.426a.91.91 0 0 0 .368.325c.161.083.353.124.576.124.23 0 .456-.041.679-.124.222-.09.403-.198.54-.325Zm12.026 1.312c.39.157.832.235 1.323.235s.932-.078 1.323-.235c.392-.164.722-.389.99-.673.276-.284.483-.609.622-.975.145-.366.218-.751.218-1.155 0-.41-.073-.8-.218-1.166a2.806 2.806 0 0 0-.622-.975 2.865 2.865 0 0 0-1.001-.662 3.303 3.303 0 0 0-1.312-.246c-.491 0-.932.082-1.323.246a2.864 2.864 0 0 0-1.002.662c-.268.284-.475.609-.621.975a3.122 3.122 0 0 0-.219 1.166 3.094 3.094 0 0 0 .84 2.13c.277.284.61.509 1.002.673Zm-.046-1.884a1.984 1.984 0 0 1-.208-.919c0-.344.07-.646.208-.908.138-.269.326-.478.564-.628a1.43 1.43 0 0 1 .805-.235c.292 0 .556.075.794.224.238.15.426.359.564.628.146.269.219.572.219.908 0 .344-.073.65-.219.92-.138.26-.326.47-.564.627-.238.15-.502.224-.794.224-.3 0-.568-.074-.805-.224a1.587 1.587 0 0 1-.564-.617Zm5.506-.19v-3.677h1.542v3.352c0 .448.084.788.253 1.02.169.224.418.336.748.336.2 0 .395-.037.587-.112.2-.082.38-.202.54-.358a1.96 1.96 0 0 0 .426-.595V34.2h1.543v4.193c0 .157.026.269.08.336.061.067.157.108.288.123v1.222a5.31 5.31 0 0 1-.392.045 1.88 1.88 0 0 1-.276.023c-.276 0-.502-.06-.679-.18a.751.751 0 0 1-.299-.515l-.034-.471a2.663 2.663 0 0 1-1.036.908 3.186 3.186 0 0 1-1.393.302c-.621 0-1.093-.194-1.415-.583-.322-.396-.483-.971-.483-1.726Zm10.29 2.074c.184-.067.342-.127.472-.18l-.31-1.188a7.245 7.245 0 0 1-.369.135c-.153.052-.31.078-.472.078a.607.607 0 0 1-.403-.134c-.107-.09-.165-.236-.172-.438v-2.87h1.266V34.2h-1.266v-1.906h-1.542v1.906h-.794v1.154h.794v3.375c0 .344.069.624.207.84.146.21.337.363.575.46.238.098.499.146.783.146.215 0 .426-.022.633-.067a3.48 3.48 0 0 0 .598-.157Z" clip-rule="evenodd"/>
</svg>