<svg xmlns="http://www.w3.org/2000/svg" width="48" height="48" fill="none">
    <circle cx="24" cy="24" r="24" fill="#F6FEFF"/>
    <g clip-path="url(#a)">
        <path fill="#3FC9EB" d="M24 8a5 5 0 1 1 0 10 5 5 0 0 1 0-10Zm0 12.5c5.525 0 10 2.238 10 5V28H14v-2.5c0-2.762 4.475-5 10-5Z"/>
    </g>
    <path fill="#3FC9EB" d="M14.497 35.964c-.323 0-.61-.071-.859-.215a1.585 1.585 0 0 1-.572-.596v2.426H12v-5.861h.93v.715c.16-.243.36-.434.605-.572.244-.143.522-.215.835-.215.28 0 .538.056.771.167.239.111.445.268.62.47.175.195.31.423.406.683.1.255.151.53.151.827 0 .403-.08.769-.238 1.098a1.968 1.968 0 0 1-.645.787c-.27.19-.583.286-.938.286Zm-.358-.906a.95.95 0 0 0 .446-.104c.132-.069.246-.161.341-.278.101-.122.175-.257.223-.406.053-.153.08-.312.08-.477 0-.175-.03-.336-.088-.485a1.089 1.089 0 0 0-.238-.39 1.11 1.11 0 0 0-.827-.365c-.101 0-.205.018-.31.055a1.28 1.28 0 0 0-.549.366.84.84 0 0 0-.151.278v.979c.063.153.148.294.254.421.111.127.239.228.382.302a.998.998 0 0 0 .437.104ZM19.521 32.64c-.323 0-.612.064-.867.191a1.12 1.12 0 0 0-.548.533v2.52H17.04v-4.166h.978v.89c.149-.286.337-.511.565-.676.228-.164.47-.254.724-.27h.135c.032 0 .058.003.08.008v.97ZM21.985 35.964c-.339 0-.644-.055-.914-.167a2.068 2.068 0 0 1-.692-.477 2.17 2.17 0 0 1-.43-.692c-.1-.26-.15-.532-.15-.819 0-.291.05-.567.15-.827.101-.26.245-.49.43-.692.191-.201.422-.358.692-.469.27-.117.575-.175.914-.175.34 0 .642.058.907.175a1.975 1.975 0 0 1 1.121 1.161c.101.26.151.536.151.827 0 .287-.05.56-.15.82-.096.259-.24.49-.43.691-.186.202-.414.36-.684.477-.27.112-.575.167-.915.167Zm-1.089-2.155c0 .244.048.461.143.652.096.186.226.332.39.438.164.106.35.159.556.159a.99.99 0 0 0 .55-.16c.164-.11.293-.26.389-.445.1-.19.151-.408.151-.652 0-.238-.05-.453-.151-.644a1.103 1.103 0 0 0-.39-.445.99.99 0 0 0-.549-.16.97.97 0 0 0-.556.168 1.103 1.103 0 0 0-.39.445 1.39 1.39 0 0 0-.143.644ZM25.1 32.752h-.55v-.812h.55v-.254c0-.233.037-.45.11-.652.08-.202.192-.38.335-.533.148-.159.326-.281.532-.366.213-.09.451-.135.716-.135a2.392 2.392 0 0 1 1.074.247c.164.079.32.17.469.27l-.421.795a1.648 1.648 0 0 0-1.05-.405.652.652 0 0 0-.628.374.92.92 0 0 0-.072.365v.294H28.4v3.945h-1.066v-3.133h-1.169v3.133h-1.066v-3.133ZM29.357 30.08h1.065v4.469c0 .19.032.32.096.39a.355.355 0 0 0 .262.095 1.256 1.256 0 0 0 .501-.111l.143.81c-.143.07-.31.123-.5.16-.191.037-.364.055-.517.055-.334 0-.594-.087-.78-.262-.18-.18-.27-.435-.27-.764V30.08ZM33.821 35.964c-.334 0-.636-.055-.907-.167a2.131 2.131 0 0 1-.691-.469 2.24 2.24 0 0 1-.446-.684c-.1-.26-.15-.533-.15-.819 0-.398.087-.76.262-1.09.18-.328.434-.59.763-.787.334-.201.726-.302 1.177-.302.456 0 .846.1 1.169.302.323.197.57.459.74.788a2.172 2.172 0 0 1 .254 1.248c-.005.064-.01.117-.016.16h-3.22c.02.211.082.397.182.556.106.159.239.28.398.366a1.23 1.23 0 0 0 1.121-.032.835.835 0 0 0 .39-.414l.914.255c-.1.212-.246.4-.437.564a2.092 2.092 0 0 1-.66.39c-.255.09-.535.135-.843.135Zm-1.09-2.497h2.18a1.203 1.203 0 0 0-.183-.548.972.972 0 0 0-.382-.366 1.062 1.062 0 0 0-.533-.136c-.19 0-.366.046-.525.136a1.05 1.05 0 0 0-.381.366 1.265 1.265 0 0 0-.175.548Z"/>
    <defs>
        <clipPath id="a">
            <path fill="#fff" d="M14 8h20v20H14z"/>
        </clipPath>
    </defs>
</svg>