<svg xmlns="http://www.w3.org/2000/svg" width="48" height="48" fill="none">
    <circle cx="24" cy="24" r="24" fill="#F6FEFF"/>
    <g clip-path="url(#a)">
        <path fill="#3FC9EB" fill-rule="evenodd" d="M20 10h12c1.103 0 2 .897 2 2v8c0 1.103-.897 2-2 2v-8c0-1.103-.897-2-2-2H18c0-1.103.897-2 2-2Zm-2 16h-2c-1.103 0-2-.897-2-2v-8c0-1.103.897-2 2-2h12c1.103 0 2 .897 2 2v8c0 1.103-.897 2-2 2h-4.899L18 30.08V26Z" clip-rule="evenodd"/>
    </g>
    <path fill="#3FC9EB" d="M18.126 38.081c-.327 0-.621-.057-.882-.17a2 2 0 0 1-.668-.487 2.378 2.378 0 0 1-.43-.713 2.403 2.403 0 0 1-.146-.835c0-.4.084-.765.253-1.095.174-.335.42-.603.737-.803.318-.2.694-.3 1.129-.3.435 0 .808.1 1.12.3.313.2.546.462.699.787l-1.006.324a.9.9 0 0 0-.345-.357.955.955 0 0 0-1.013.032 1.05 1.05 0 0 0-.377.447c-.092.189-.138.41-.138.665 0 .248.046.47.139.665.097.189.225.34.383.454a.92.92 0 0 0 .53.162.997.997 0 0 0 .645-.243.705.705 0 0 0 .192-.26l1.005.324c-.092.211-.227.4-.406.568-.175.168-.382.3-.622.397a2.181 2.181 0 0 1-.799.138ZM24.325 38h-1.029v-2.384c0-.33-.061-.575-.184-.738a.573.573 0 0 0-.491-.243.818.818 0 0 0-.392.114 1.31 1.31 0 0 0-.614.77V38h-1.029v-5.919h1.029v2.457a1.63 1.63 0 0 1 1.443-.86c.261 0 .474.049.637.146a.99.99 0 0 1 .384.381c.092.157.156.336.192.535.036.195.054.398.054.609V38ZM24.943 36.743c0-.276.071-.516.215-.721.148-.211.353-.373.614-.487.26-.113.56-.17.898-.17.169 0 .34.013.514.04.174.027.325.07.453.13v-.227c0-.27-.076-.478-.23-.624-.148-.146-.371-.22-.668-.22-.22 0-.43.041-.63.123-.199.08-.409.2-.629.356l-.33-.713a3.22 3.22 0 0 1 .814-.414c.281-.092.576-.138.883-.138.573 0 1.018.152 1.335.454.323.303.484.736.484 1.298v1.354c0 .113.018.194.054.243.04.049.105.078.192.09V38c-.093.016-.177.03-.254.04-.072.011-.133.017-.184.017-.205 0-.36-.049-.468-.146a.637.637 0 0 1-.192-.357l-.023-.219a1.78 1.78 0 0 1-.653.551c-.26.13-.527.195-.798.195-.266 0-.507-.057-.722-.17a1.364 1.364 0 0 1-.499-.479 1.361 1.361 0 0 1-.176-.689Zm2.502.22c.057-.066.103-.13.139-.196a.374.374 0 0 0 .053-.178v-.43a1.83 1.83 0 0 0-.399-.121 1.847 1.847 0 0 0-.407-.049c-.266 0-.486.062-.66.187a.557.557 0 0 0-.253.478c0 .108.028.21.084.308a.626.626 0 0 0 .246.235c.107.06.235.09.384.09a1.165 1.165 0 0 0 .814-.324ZM32 37.781c-.087.038-.192.081-.315.13a2.182 2.182 0 0 1-.399.113 1.843 1.843 0 0 1-.422.049c-.19 0-.364-.035-.522-.105a.864.864 0 0 1-.384-.333c-.092-.157-.138-.36-.138-.608v-2.44h-.53v-.836h.53v-1.378h1.029v1.378h.844v.836h-.845v2.075c.006.146.044.252.116.316a.385.385 0 0 0 .268.098.902.902 0 0 0 .315-.057c.102-.038.184-.07.246-.097l.207.86Z"/>
    <defs>
        <clipPath id="a">
            <path fill="#fff" d="M14 10h20v20.081H14z"/>
        </clipPath>
    </defs>
</svg>