<svg xmlns="http://www.w3.org/2000/svg" width="48" height="48" fill="none">
    <circle cx="24" cy="24" r="24" fill="#F6FEFF"/>
    <path fill="#3FC9EB" fill-rule="evenodd" d="M17.518 27.26h13.963a3.232 3.232 0 0 0 3.223-3.223V12.222A3.232 3.232 0 0 0 31.48 9H17.519a3.232 3.232 0 0 0-3.222 3.222v18.26l3.223-3.223Zm8.056-10.742h-2.148v5.908h2.148v-5.908Zm-1.074-1.61a1.074 1.074 0 1 0 0-2.149 1.074 1.074 0 0 0 0 2.148Zm-4.161 22.87c-.345 0-.653-.076-.924-.227a1.68 1.68 0 0 1-.638-.622v.765h-1.01v-6.138h1.156v2.505c.162-.263.372-.47.63-.622.265-.151.573-.227.924-.227.293 0 .561.062.803.185.241.118.448.283.621.496.178.213.314.457.406.732.098.275.146.569.146.883 0 .314-.054.608-.163.883-.104.274-.25.518-.44.731-.19.208-.415.37-.674.488a2.045 2.045 0 0 1-.837.168Zm-.32-.959c.185 0 .352-.033.501-.1.155-.073.288-.169.397-.286.115-.118.201-.255.26-.412.062-.163.094-.331.094-.505 0-.24-.052-.462-.155-.664a1.226 1.226 0 0 0-.415-.496 1.027 1.027 0 0 0-.612-.185c-.167 0-.328.039-.484.117-.15.073-.285.174-.405.303a1.575 1.575 0 0 0-.277.437v1.052c.035.112.09.212.164.302.08.09.173.168.277.236.103.061.21.112.319.15.115.035.227.051.337.051Zm-7.519-.428c0-.286.08-.536.242-.749.166-.218.397-.387.69-.504.294-.118.63-.177 1.01-.177.19 0 .383.014.578.042.196.028.366.073.51.135v-.236c0-.28-.087-.496-.26-.647-.166-.152-.417-.227-.75-.227a2 2 0 0 0-.708.126 3.61 3.61 0 0 0-.708.37l-.371-.74c.3-.19.604-.334.915-.429.316-.095.647-.143.992-.143.645 0 1.146.157 1.502.471.363.314.544.762.544 1.345v1.405c0 .117.02.201.06.252.047.05.118.081.216.092v.917c-.103.017-.198.03-.285.042-.08.011-.15.017-.207.017-.23 0-.405-.05-.526-.152a.648.648 0 0 1-.216-.37l-.026-.227a1.97 1.97 0 0 1-.733.572 2.135 2.135 0 0 1-.898.202c-.3 0-.57-.059-.812-.177a1.486 1.486 0 0 1-.56-.496 1.327 1.327 0 0 1-.199-.714Zm2.814.227c.063-.068.115-.135.155-.202a.366.366 0 0 0 .06-.185v-.446a2.189 2.189 0 0 0-.448-.126 2.244 2.244 0 0 0-.458-.05c-.299 0-.546.064-.742.193-.19.123-.285.289-.285.496 0 .112.032.219.095.32.063.1.155.182.276.243.121.062.265.093.432.093.172 0 .342-.03.51-.093.166-.067.301-.148.405-.243Zm9.02.983c.293.118.623.177.992.177.368 0 .699-.059.992-.177.294-.123.541-.291.743-.504.207-.213.362-.457.466-.732a2.32 2.32 0 0 0 .164-.866c0-.308-.055-.6-.164-.874a2.103 2.103 0 0 0-.466-.732 2.147 2.147 0 0 0-.751-.496 2.477 2.477 0 0 0-.984-.185c-.369 0-.7.062-.993.185a2.149 2.149 0 0 0-.75.496 2.285 2.285 0 0 0-.467.732c-.11.275-.164.566-.164.874a2.32 2.32 0 0 0 .63 1.598c.207.213.458.381.751.504Zm-.035-1.412a1.488 1.488 0 0 1-.156-.69c0-.258.052-.485.156-.68.103-.203.244-.36.423-.472.178-.117.38-.176.604-.176.218 0 .417.056.595.168.179.112.32.269.423.47.11.203.164.43.164.682 0 .258-.054.488-.164.69a1.254 1.254 0 0 1-.423.47 1.097 1.097 0 0 1-.595.168c-.225 0-.426-.056-.604-.168a1.19 1.19 0 0 1-.423-.462Zm4.13-.143v-2.758h1.156v2.514c0 .336.063.591.19.765.126.168.313.252.56.252.15 0 .297-.028.44-.084.15-.061.286-.151.407-.269a1.47 1.47 0 0 0 .319-.445v-2.733h1.156v3.145c0 .117.02.201.06.252.047.05.119.081.217.092v.917a4.007 4.007 0 0 1-.294.033 1.405 1.405 0 0 1-.207.017.89.89 0 0 1-.51-.134.563.563 0 0 1-.224-.387l-.026-.353c-.201.297-.46.524-.776.68a2.388 2.388 0 0 1-1.045.228c-.466 0-.82-.146-1.061-.437-.242-.297-.363-.729-.363-1.295Zm7.717 1.555c.138-.05.256-.095.354-.134l-.233-.891c-.07.028-.161.061-.276.1a1.09 1.09 0 0 1-.354.06.455.455 0 0 1-.302-.102c-.08-.067-.124-.176-.13-.328v-2.152h.95v-.866h-.95v-1.43H34.05v1.43h-.596v.866h.596v2.53c0 .259.052.469.155.632.11.156.253.271.432.344.178.073.374.11.587.11.16 0 .319-.017.474-.05.161-.029.311-.068.45-.119Z" clip-rule="evenodd"/>
</svg>