<svg xmlns="http://www.w3.org/2000/svg" width="48" height="48" fill="none">
    <circle cx="24" cy="24" r="24" fill="#F6FEFF"/>
    <path fill="#3FC9EB" d="M36.189 20.373 25.39 8.864c-.455-.485-1.328-.485-1.783 0L12.808 20.373a1.106 1.106 0 0 0-.204 1.238 1.2 1.2 0 0 0 1.096.682h2.4v8.056c0 .305.126.598.351.814.225.216.53.337.848.337h3.6c.318 0 .623-.121.848-.337.226-.216.352-.509.352-.814v-4.603h4.8v4.603c0 .305.126.598.35.814.226.216.531.337.85.337h3.599c.318 0 .623-.121.848-.337.225-.216.352-.509.352-.814v-8.056h2.4c.232.001.46-.063.655-.184.195-.12.349-.294.444-.497a1.106 1.106 0 0 0-.208-1.24ZM17.848 37.919H16.79v-2.384c0-.33-.063-.575-.19-.738a.595.595 0 0 0-.505-.243.861.861 0 0 0-.403.114 1.337 1.337 0 0 0-.387.316c-.11.13-.193.28-.245.454v2.48H14V32h1.059v2.457c.153-.27.36-.481.624-.633a1.7 1.7 0 0 1 .861-.227c.269 0 .488.049.656.146.169.092.3.22.395.381.095.157.161.335.198.535.037.195.055.398.055.609v2.65ZM20.681 38c-.337 0-.64-.057-.909-.17a2.056 2.056 0 0 1-.687-.487 2.222 2.222 0 0 1-.427-.705c-.1-.265-.15-.543-.15-.835 0-.298.05-.579.15-.843.1-.265.243-.5.427-.706a1.96 1.96 0 0 1 .687-.478c.269-.12.572-.179.91-.179.336 0 .637.06.9.179.269.113.498.273.687.478.19.206.332.44.427.706.1.264.15.545.15.843 0 .292-.05.57-.15.835-.095.265-.237.5-.427.705a1.97 1.97 0 0 1-.68.487c-.268.113-.57.17-.908.17ZM19.6 35.803c0 .248.047.47.142.665.095.189.224.337.387.445a.98.98 0 0 0 .553.163c.2 0 .382-.054.545-.163.164-.113.293-.264.387-.453.1-.195.15-.417.15-.665 0-.244-.05-.463-.15-.657a1.116 1.116 0 0 0-.387-.454.966.966 0 0 0-.545-.162.946.946 0 0 0-.553.17c-.163.108-.292.26-.387.454-.095.19-.142.408-.142.657ZM29.993 37.919h-1.059v-2.384c0-.335-.058-.58-.174-.738a.532.532 0 0 0-.466-.243c-.205 0-.403.084-.593.251a1.34 1.34 0 0 0-.395.64v2.474h-1.059v-2.384c0-.34-.058-.59-.173-.746a.538.538 0 0 0-.467-.235c-.205 0-.403.081-.592.243a1.34 1.34 0 0 0-.395.64v2.482h-1.06V33.67h.957v.787c.158-.276.369-.487.632-.633.264-.151.566-.227.909-.227.342 0 .608.087.798.26.195.173.319.386.371.64.169-.292.382-.513.64-.665.264-.156.559-.235.885-.235.259 0 .466.049.625.146.163.092.29.22.379.381.09.157.15.335.182.535.037.2.055.403.055.609v2.65ZM32.835 38c-.332 0-.632-.057-.9-.17a2.114 2.114 0 0 1-.688-.479 2.293 2.293 0 0 1-.443-.697c-.1-.265-.15-.543-.15-.835 0-.406.087-.776.26-1.11a2.07 2.07 0 0 1 .76-.804c.331-.205.721-.308 1.169-.308.453 0 .84.103 1.161.308.322.2.567.468.735.803.174.33.261.687.261 1.07a2.699 2.699 0 0 1-.024.365h-3.2c.021.216.082.406.182.568.105.162.237.286.395.373a1.199 1.199 0 0 0 1.114-.032.844.844 0 0 0 .387-.422l.909.26c-.1.215-.245.407-.435.575-.184.167-.403.3-.656.397a2.437 2.437 0 0 1-.837.138Zm-1.083-2.546h2.165a1.25 1.25 0 0 0-.181-.56.977.977 0 0 0-.38-.372 1.034 1.034 0 0 0-.529-.138 1.054 1.054 0 0 0-.9.51 1.312 1.312 0 0 0-.175.56Z"/>
</svg>