<svg xmlns="http://www.w3.org/2000/svg" width="48" height="48" fill="none">
    <g clip-path="url(#a)">
        <path fill="#F6FEFF" fill-rule="evenodd" d="M19.2 4.451h14.4c1.324 0 2.4 1.077 2.4 2.4v9.6c0 1.324-1.076 2.4-2.4 2.4v-9.6c0-1.323-1.076-2.4-2.4-2.4H16.8c0-1.323 1.076-2.4 2.4-2.4Zm-2.4 19.2h-2.4a2.402 2.402 0 0 1-2.4-2.4v-9.6c0-1.323 1.076-2.4 2.4-2.4h14.4c1.324 0 2.4 1.077 2.4 2.4v9.6c0 1.324-1.076 2.4-2.4 2.4h-5.879L16.8 28.548v-4.897Z" clip-rule="evenodd"/>
    </g>
    <path fill="#F6FEFF" d="M15.355 40.659c-.47 0-.891-.077-1.265-.231a2.86 2.86 0 0 1-.957-.66 3.197 3.197 0 0 1-.616-.968 3.107 3.107 0 0 1-.209-1.133c0-.543.121-1.038.363-1.485a2.84 2.84 0 0 1 1.056-1.09c.455-.27.994-.406 1.617-.406s1.159.136 1.606.407a2.59 2.59 0 0 1 1.001 1.067l-1.441.44a1.256 1.256 0 0 0-.495-.484 1.35 1.35 0 0 0-.682-.176 1.449 1.449 0 0 0-1.309.825 1.947 1.947 0 0 0-.198.902c0 .337.066.638.198.902.14.256.323.462.55.616.227.146.48.22.759.22.176 0 .341-.03.495-.088.161-.059.304-.14.429-.242a.961.961 0 0 0 .275-.352l1.441.44a2.33 2.33 0 0 1-.583.77c-.25.227-.546.407-.891.539a3.283 3.283 0 0 1-1.144.187Zm8.882-.11h-1.474v-3.234c0-.447-.088-.781-.264-1.001-.169-.22-.403-.33-.704-.33-.176 0-.363.051-.561.154a1.856 1.856 0 0 0-.539.429 1.688 1.688 0 0 0-.341.616v3.366H18.88v-8.03h1.474v3.333c.213-.367.502-.653.869-.858a2.413 2.413 0 0 1 1.199-.308c.374 0 .678.066.913.198.235.124.418.297.55.517.132.212.224.454.275.726.051.264.077.539.077.825v3.597Zm.886-1.705c0-.374.102-.7.308-.98.212-.285.506-.505.88-.66a3.358 3.358 0 0 1 1.287-.23c.242 0 .487.018.737.055.249.036.465.095.649.176v-.308c0-.367-.11-.65-.33-.847-.213-.198-.532-.297-.957-.297a2.49 2.49 0 0 0-.902.165c-.286.11-.587.271-.902.484l-.473-.968c.381-.25.77-.436 1.166-.561a4.261 4.261 0 0 1 1.265-.187c.821 0 1.459.205 1.914.616.462.41.693.997.693 1.76v1.837c0 .154.025.264.077.33.058.066.15.106.275.12v1.2c-.132.022-.253.04-.363.055-.103.014-.191.022-.264.022-.294 0-.517-.066-.671-.198a.852.852 0 0 1-.275-.484l-.033-.297a2.52 2.52 0 0 1-.935.748 2.661 2.661 0 0 1-1.144.264 2.28 2.28 0 0 1-1.034-.231 1.91 1.91 0 0 1-.715-.65 1.77 1.77 0 0 1-.253-.934Zm3.586.297c.08-.088.146-.176.198-.264a.488.488 0 0 0 .077-.242v-.583a2.736 2.736 0 0 0-.572-.165 2.787 2.787 0 0 0-.583-.066c-.382 0-.697.084-.946.253-.242.161-.363.378-.363.649 0 .147.04.286.12.418.081.132.199.238.353.319.154.08.337.12.55.12.22 0 .436-.04.649-.12a1.68 1.68 0 0 0 .517-.32Zm6.526 1.11c-.124.052-.275.11-.45.177a3.253 3.253 0 0 1-.573.154 2.78 2.78 0 0 1-.605.066c-.271 0-.52-.048-.748-.143a1.222 1.222 0 0 1-.55-.451c-.132-.213-.198-.488-.198-.825v-3.311h-.759v-1.133h.76v-1.87h1.473v1.87h1.21v1.133h-1.21v2.816c.008.198.063.34.165.429a.57.57 0 0 0 .385.132c.154 0 .305-.026.451-.077.147-.052.264-.096.352-.132l.297 1.166Z"/>
    <defs>
        <clipPath id="a">
            <path fill="#fff" d="M12 4.451h24v24.097H12z"/>
        </clipPath>
    </defs>
</svg>