<svg width="27" height="28" viewBox="0 0 27 28" fill="none" xmlns="http://www.w3.org/2000/svg">
<path fill-rule="evenodd" clip-rule="evenodd" d="M3.94496 4.57116C9.15209 -0.635978 17.594 -0.635978 22.8011 4.57116C28.0083 9.77829 28.0083 18.2202 22.8011 23.4273C17.594 28.6345 9.15209 28.6345 3.94496 23.4273C-1.26218 18.2202 -1.26218 9.77829 3.94496 4.57116ZM17.1433 10.229C17.3934 10.479 17.5339 10.8181 17.5339 11.1718C17.5339 11.5254 17.3934 11.8645 17.1433 12.1146L15.2577 14.0002L17.1433 15.8858C17.3934 16.1359 17.5339 16.475 17.5339 16.8286C17.5339 17.1822 17.3934 17.5214 17.1433 17.7714C16.8933 18.0215 16.5542 18.1619 16.2005 18.1619C15.8469 18.1619 15.5078 18.0215 15.2577 17.7714L13.3721 15.8858L11.4865 17.7714C11.2364 18.0215 10.8973 18.1619 10.5437 18.1619C10.1901 18.1619 9.85092 18.0215 9.60087 17.7714C9.35082 17.5214 9.21034 17.1822 9.21034 16.8286C9.21034 16.475 9.35082 16.1359 9.60087 15.8858L11.4865 14.0002L9.60087 12.1146C9.35082 11.8645 9.21034 11.5254 9.21034 11.1718C9.21034 10.8181 9.35082 10.479 9.60087 10.229C9.85092 9.9789 10.1901 9.83843 10.5437 9.83843C10.8973 9.83843 11.2364 9.9789 11.4865 10.229L13.3721 12.1146L15.2577 10.229C15.5078 9.9789 15.8469 9.83843 16.2005 9.83843C16.5542 9.83843 16.8933 9.9789 17.1433 10.229Z" fill="#F6FEFF"/>
</svg>
