<svg xmlns="http://www.w3.org/2000/svg" width="38" height="38" fill="none">
  <path fill="#3FC9EB" fill-rule="evenodd" d="M9.715 9.428c5.208-5.207 13.65-5.207 18.857 0 5.207 5.207 5.207 13.65 0 18.856-5.207 5.207-13.65 5.207-18.857 0-5.207-5.207-5.207-13.649 0-18.856Zm13.199 5.658a1.333 1.333 0 0 1 0 1.885l-1.886 1.886 1.886 1.886a1.333 1.333 0 1 1-1.886 1.885l-1.885-1.885-1.886 1.885a1.334 1.334 0 0 1-1.886-1.885l1.886-1.886-1.886-1.886a1.333 1.333 0 1 1 1.886-1.885l1.886 1.885 1.885-1.885a1.333 1.333 0 0 1 1.886 0Z" clip-rule="evenodd"/>
</svg>