<svg xmlns="http://www.w3.org/2000/svg" width="48" height="48" fill="none">
    <path fill="#F6FEFF" d="M37.637 18.883 25.038 4.885c-.53-.59-1.55-.59-2.08 0L10.36 18.883a1.398 1.398 0 0 0 1.04 2.337h2.8v9.799a1.4 1.4 0 0 0 1.4 1.4h4.199a1.4 1.4 0 0 0 1.4-1.4v-5.6h5.6v5.6a1.4 1.4 0 0 0 1.399 1.4h4.2a1.4 1.4 0 0 0 1.4-1.4v-9.8h2.799a1.397 1.397 0 0 0 1.04-2.336ZM14.74 44.449h-1.474v-3.234c0-.448-.088-.782-.264-1.002-.169-.22-.403-.33-.704-.33-.176 0-.363.052-.56.154a1.853 1.853 0 0 0-.54.43 1.687 1.687 0 0 0-.34.616v3.366H9.382v-8.03h1.474v3.333a2.27 2.27 0 0 1 .87-.858 2.412 2.412 0 0 1 1.198-.308c.374 0 .678.066.913.197.235.125.418.297.55.517.132.213.224.455.275.727.051.264.077.538.077.825v3.597ZM18.684 44.559c-.47 0-.891-.078-1.265-.231a2.864 2.864 0 0 1-.957-.66 3.003 3.003 0 0 1-.594-.957 3.107 3.107 0 0 1-.21-1.133c0-.404.07-.785.21-1.145a3 3 0 0 1 .594-.956c.264-.28.583-.495.957-.65a3.163 3.163 0 0 1 1.265-.241c.47 0 .887.08 1.254.242a2.732 2.732 0 0 1 1.55 1.605c.14.36.21.741.21 1.145 0 .395-.07.773-.21 1.133-.131.359-.33.678-.593.956a2.746 2.746 0 0 1-.946.66 3.295 3.295 0 0 1-1.265.232Zm-1.507-2.981c0 .337.066.637.198.901.132.257.311.459.539.605.227.147.484.22.77.22.278 0 .531-.073.759-.22.227-.154.407-.359.539-.616.14-.264.209-.564.209-.902 0-.33-.07-.627-.21-.89a1.525 1.525 0 0 0-.538-.617 1.37 1.37 0 0 0-.76-.22c-.285 0-.542.078-.77.232a1.526 1.526 0 0 0-.538.616 1.921 1.921 0 0 0-.198.89ZM31.647 44.449h-1.474v-3.234c0-.455-.081-.789-.242-1.002a.747.747 0 0 0-.65-.33c-.285 0-.56.114-.824.341-.257.22-.44.51-.55.87v3.355h-1.474v-3.234c0-.463-.081-.8-.242-1.013a.755.755 0 0 0-.65-.319c-.285 0-.56.11-.824.33-.257.22-.44.51-.55.87v3.366h-1.474v-5.764h1.33v1.066c.22-.373.514-.66.88-.857a2.544 2.544 0 0 1 1.266-.308c.476 0 .847.117 1.11.352.272.234.444.524.518.868.234-.395.531-.696.89-.901a2.41 2.41 0 0 1 1.233-.32c.359 0 .649.066.869.198.227.125.403.297.528.517.124.213.209.455.253.727.051.27.077.546.077.825v3.597ZM35.603 44.559c-.462 0-.88-.078-1.254-.231a2.946 2.946 0 0 1-.957-.65 3.098 3.098 0 0 1-.616-.945 3.107 3.107 0 0 1-.21-1.133c0-.55.122-1.053.364-1.508a2.84 2.84 0 0 1 1.056-1.088c.462-.28 1.005-.418 1.628-.418.63 0 1.17.139 1.617.418.447.27.788.634 1.023 1.089.242.447.363.93.363 1.451a3.557 3.557 0 0 1-.033.495h-4.455c.03.294.114.55.253.77.147.22.33.39.55.507.227.11.47.164.726.164.293 0 .568-.07.825-.208.264-.147.444-.338.539-.572l1.265.351c-.14.294-.341.554-.605.782a2.893 2.893 0 0 1-.913.538c-.352.125-.74.188-1.166.188Zm-1.507-3.454h3.014a1.663 1.663 0 0 0-.253-.76 1.345 1.345 0 0 0-.528-.505 1.468 1.468 0 0 0-.737-.188c-.264 0-.506.063-.726.188a1.451 1.451 0 0 0-.528.505 1.75 1.75 0 0 0-.242.76Z"/>
</svg>