<svg xmlns="http://www.w3.org/2000/svg" width="48" height="48" fill="none">
    <g clip-path="url(#a)">
        <path fill="#F6FEFF" d="M24 4.5a6 6 0 1 1 0 12 6 6 0 0 1 0-12Zm0 15c6.63 0 12 2.685 12 6v3H12v-3c0-3.315 5.37-6 12-6Z"/>
    </g>
    <path fill="#F6FEFF" d="M11.077 40.61c-.447 0-.843-.099-1.188-.297a2.193 2.193 0 0 1-.792-.825v3.355H7.623v-8.107H8.91v.99c.22-.337.499-.601.836-.792a2.239 2.239 0 0 1 1.155-.297c.389 0 .745.077 1.067.231.33.154.616.37.858.649.242.271.43.587.561.946.14.352.21.733.21 1.144a3.44 3.44 0 0 1-.33 1.518 2.72 2.72 0 0 1-.892 1.089 2.194 2.194 0 0 1-1.298.396Zm-.495-1.254c.227 0 .433-.048.616-.143.184-.095.341-.224.473-.385.14-.169.242-.356.308-.561a2.01 2.01 0 0 0 .11-.66c0-.242-.04-.466-.12-.671a1.506 1.506 0 0 0-.33-.539 1.533 1.533 0 0 0-1.145-.506c-.14 0-.282.026-.429.077a1.77 1.77 0 0 0-.759.506 1.16 1.16 0 0 0-.209.385v1.353c.088.213.205.407.352.583.154.176.33.315.528.418.198.095.4.143.605.143Zm7.445-3.344c-.448 0-.847.088-1.2.264a1.548 1.548 0 0 0-.758.737V40.5h-1.474v-5.764h1.353v1.232c.205-.396.465-.708.78-.935a1.893 1.893 0 0 1 1.002-.374h.187c.044 0 .08.004.11.011v1.342Zm3.409 4.598c-.47 0-.892-.077-1.265-.231a2.86 2.86 0 0 1-.957-.66 3.003 3.003 0 0 1-.595-.957 3.107 3.107 0 0 1-.209-1.133c0-.403.07-.785.21-1.144.139-.36.337-.678.593-.957.264-.279.584-.495.957-.649a3.165 3.165 0 0 1 1.265-.242c.47 0 .888.08 1.255.242a2.732 2.732 0 0 1 1.55 1.606c.14.36.21.74.21 1.144 0 .396-.07.774-.21 1.133-.131.36-.33.678-.593.957a2.743 2.743 0 0 1-.946.66 3.295 3.295 0 0 1-1.265.231Zm-1.508-2.981c0 .337.066.638.198.902.133.257.312.458.54.605.227.147.483.22.77.22.278 0 .531-.073.759-.22.227-.154.407-.36.538-.616.14-.264.21-.565.21-.902 0-.33-.07-.627-.21-.891a1.526 1.526 0 0 0-.538-.616 1.37 1.37 0 0 0-.76-.22c-.285 0-.542.077-.77.231a1.526 1.526 0 0 0-.538.616 1.922 1.922 0 0 0-.198.891Zm5.815-1.463h-.76v-1.122h.76v-.352c0-.323.051-.623.154-.902.11-.279.264-.524.462-.737a2.07 2.07 0 0 1 .737-.506c.293-.125.623-.187.99-.187a3.307 3.307 0 0 1 1.485.341c.227.11.443.235.649.374l-.583 1.1a2.28 2.28 0 0 0-.671-.407 2.086 2.086 0 0 0-.781-.154.969.969 0 0 0-.54.143.902.902 0 0 0-.33.374 1.271 1.271 0 0 0-.098.506v.407h3.09V40.5h-1.473v-4.334h-1.617V40.5h-1.474v-4.334Zm5.889-3.696h1.474v6.182c0 .264.044.444.132.539a.49.49 0 0 0 .363.132 1.74 1.74 0 0 0 .693-.154l.198 1.122a2.85 2.85 0 0 1-.693.22 3.784 3.784 0 0 1-.715.077c-.462 0-.822-.121-1.078-.363-.25-.25-.374-.601-.374-1.056V32.47Zm6.175 8.14c-.462 0-.88-.077-1.254-.231a2.945 2.945 0 0 1-.957-.649 3.098 3.098 0 0 1-.616-.946 3.107 3.107 0 0 1-.21-1.133c0-.55.122-1.052.364-1.507a2.84 2.84 0 0 1 1.056-1.089c.462-.279 1.005-.418 1.628-.418.63 0 1.17.14 1.617.418.447.271.788.634 1.023 1.089.242.447.363.931.363 1.452a3.605 3.605 0 0 1-.033.495h-4.455c.03.293.114.55.253.77.147.22.33.389.55.506a1.703 1.703 0 0 0 1.551-.044c.264-.147.444-.337.539-.572l1.265.352c-.14.293-.341.554-.605.781a2.894 2.894 0 0 1-.913.539c-.352.125-.74.187-1.166.187ZM36.3 37.156h3.014a1.665 1.665 0 0 0-.253-.759 1.345 1.345 0 0 0-.528-.506 1.468 1.468 0 0 0-.737-.187c-.264 0-.506.062-.726.187a1.45 1.45 0 0 0-.528.506 1.75 1.75 0 0 0-.242.759Z"/>
    <defs>
        <clipPath id="a">
            <path fill="#fff" d="M12 4.5h24v24H12z"/>
        </clipPath>
    </defs>
</svg>