<svg width="26" height="20" viewBox="0 0 26 20" fill="none" xmlns="http://www.w3.org/2000/svg">
<g clip-path="url(#clip0_102_4055)">
<g clip-path="url(#clip1_102_4055)">
<path d="M25.0657 11.0718L16.8626 19.275C16.1302 20.0074 14.8607 19.4947 14.8607 18.4449V13.7574H8.22003C7.57062 13.7574 7.04816 13.2349 7.04816 12.5855V7.89801C7.04816 7.2486 7.57062 6.72614 8.22003 6.72614H14.8607V2.03864C14.8607 0.993714 16.1253 0.476136 16.8626 1.20856L25.0657 9.41168C25.5198 9.87067 25.5198 10.6129 25.0657 11.0718ZM10.1732 19.0308V17.0777C10.1732 16.7554 9.90948 16.4918 9.58722 16.4918H5.48566C4.6214 16.4918 3.92316 15.7935 3.92316 14.9293V5.55426C3.92316 4.69 4.6214 3.99176 5.48566 3.99176H9.58722C9.90948 3.99176 10.1732 3.72809 10.1732 3.40582V1.4527C10.1732 1.13043 9.90948 0.866761 9.58722 0.866761H5.48566C2.89777 0.866761 0.798157 2.96637 0.798157 5.55426V14.9293C0.798157 17.5172 2.89777 19.6168 5.48566 19.6168H9.58722C9.90948 19.6168 10.1732 19.3531 10.1732 19.0308Z" fill="#F6FEFF"/>
</g>
</g>
<defs>
<clipPath id="clip0_102_4055">
<rect width="26" height="20" fill="white"/>
</clipPath>
<clipPath id="clip1_102_4055">
<rect width="26" height="20" fill="white"/>
</clipPath>
</defs>
</svg>
