<svg width="175" height="175" viewBox="0 0 175 175" fill="none" xmlns="http://www.w3.org/2000/svg">
<path d="M175 87.5C175 135.825 135.825 175 87.5 175C39.1751 175 0 135.825 0 87.5C0 39.1751 39.1751 0 87.5 0C135.825 0 175 39.1751 175 87.5Z" fill="#116077"/>
<path d="M146.553 92.1981H111.045L145.602 90.7373C146.482 90.7019 147.17 89.9538 147.132 89.0696L147.093 88.1352C147.055 87.2511 146.307 86.5651 145.424 86.6035L117.736 87.7745L143.664 84.7229C144.541 84.6194 145.164 83.8565 145.058 83.0168L144.943 82.1326C144.836 81.2929 144.036 80.6985 143.159 80.802L91.9344 86.8312L92.9328 80.5684C93.0007 80.1544 92.6787 79.7789 92.2593 79.7789H83.8174C83.398 79.7789 83.076 80.1544 83.144 80.5684L84.1483 86.8637L33.4349 80.8316C32.5576 80.7281 31.7572 81.3224 31.6479 82.1592L31.5327 83.0463C31.4234 83.8831 32.0466 84.646 32.9239 84.7495L58.3411 87.7715L30.9626 86.4882C30.0794 86.4468 29.3292 87.1298 29.2878 88.014L29.2435 88.9483C29.2022 89.8325 29.8845 90.5835 30.7677 90.6249L64.3284 92.198H29.4739C28.703 92.198 28.0768 92.8249 28.0768 93.5966V94.9391C28.0768 95.7108 28.703 96.3377 29.4739 96.3377H79.6881C80.5594 100.232 84.036 103.139 88.1861 103.139C92.3361 103.139 95.8127 100.232 96.6841 96.3377H146.553C147.353 96.3377 148 95.6901 148 94.8888V93.6469C148 92.8456 147.353 92.1981 146.553 92.1981Z" fill="#F6FEFF"/>
<path d="M84.8276 68.587C84.4259 68.5663 84.104 68.9123 84.1483 69.3085L85.0137 77.0261C85.0905 77.7091 85.6518 78.2355 86.337 78.268L90.4723 78.4602C91.1576 78.4927 91.7631 78.0226 91.9049 77.3513L93.4881 69.7461C93.5679 69.3558 93.2813 68.9832 92.8796 68.9625L84.8276 68.587Z" fill="#F6FEFF"/>
<path d="M94.3742 58.0958L86.4227 57.1053C86.0298 57.055 85.6842 57.3714 85.6961 57.7676L85.9649 65.4822C85.9885 66.1653 86.5054 66.7271 87.1818 66.8129L91.2639 67.3214C91.9403 67.4042 92.5784 66.9843 92.7674 66.3309L94.9177 58.9179C95.027 58.5364 94.7701 58.1431 94.3742 58.0958Z" fill="#F6FEFF"/>
<path d="M59.3395 49.0506C62.955 50.9459 73.8426 55.4346 88.3604 50.2452L87.9055 53.5007C87.8139 54.166 88.2156 54.8018 88.8595 54.9969L92.7378 56.1856C93.3788 56.3837 94.07 56.0851 94.3653 55.4819L96.4123 51.3067C99.9568 56.7652 107.802 65.2516 123.277 67.9217C124.03 68.0518 124.585 67.2416 124.21 66.5733C117.916 55.3488 109.196 50.3989 102.725 48.2167C107.362 48.0925 113.405 46.685 119.8 41.8504C120.24 41.5163 120.09 40.8185 119.549 40.6854C108.313 37.9118 100.326 41.9066 96.4773 44.6211C98.5124 42.1166 100.917 37.6457 100.379 30.8388C100.35 30.4722 99.9037 30.3066 99.6378 30.5609C94.9148 35.0643 93.7569 39.9994 93.6003 43.2993C84.2162 28.086 70.3187 25.4573 65.7788 25.0049C65.0817 24.9339 64.5736 25.6554 64.872 26.2911C66.3725 29.4816 71.0217 37.489 81.7232 42.6074C70.493 41.472 62.2845 45.6412 59.2864 47.4745C58.6868 47.8412 58.7163 48.7253 59.3395 49.0506ZM116.823 62.0167C117.089 62.2858 117.077 62.3893 116.761 62.3035C114.221 61.6205 107.489 58.2762 100.731 50.5468C100.456 50.2304 100.462 50.0708 100.79 50.2423C109.244 54.6836 115.071 60.2396 116.823 62.0167ZM100.536 45.4076C106.866 43.19 112.513 42.4182 114.265 42.2171C114.531 42.1876 114.596 42.2526 114.383 42.3324C112.948 42.8706 108.062 44.5531 100.663 45.523C100.367 45.5614 100.291 45.4934 100.536 45.4076ZM94.8675 43.734C96.2204 38.9231 98.3293 35.2624 99.0146 34.1477C99.118 33.9791 99.1978 33.9732 99.1564 34.1388C98.8787 35.2506 97.8154 38.9468 95.0182 43.7192C94.9059 43.9085 94.8173 43.9203 94.8675 43.734ZM71.1162 29.3988C70.8297 29.1179 70.8563 28.9583 71.1635 29.115C73.2252 30.1706 80.0278 33.9436 88.1654 41.6317C88.4903 41.9392 88.4667 42.1195 88.1241 41.9333C79.2568 37.0839 73.0037 31.2558 71.1162 29.3988ZM67.2763 48.0807C69.5301 47.7229 77.1597 46.6614 88.322 46.6939C88.768 46.6939 88.8477 46.7028 88.4844 46.8329C78.3205 50.4758 70.0086 48.6958 67.424 48.2168C67.0312 48.1428 66.9426 48.1339 67.2763 48.0807Z" fill="#F6FEFF"/>
<path d="M35.541 114.937C34.5633 114.937 33.7658 115.132 33.1514 115.525C32.537 115.919 32.0526 116.392 31.6981 116.951H31.5534C31.5918 116.676 31.6272 116.288 31.6538 115.785C31.6834 115.286 31.6981 114.78 31.6981 114.269V109.878H28V128.758H30.8238L31.4441 127.264H31.6981C32.0526 127.711 32.5193 128.11 33.0923 128.468C33.6653 128.823 34.4481 129 35.4435 129C36.4773 129 37.3871 128.737 38.1698 128.205C38.9555 127.675 39.564 126.886 40.0012 125.839C40.4383 124.792 40.654 123.494 40.654 121.951C40.654 119.653 40.1814 117.909 39.2362 116.72C38.2909 115.531 37.0592 114.937 35.541 114.937ZM36.2115 124.946C35.7655 125.65 35.1599 126.005 34.4008 126.005C33.3759 126.005 32.667 125.653 32.28 124.955C31.8931 124.254 31.6981 123.246 31.6981 121.927V121.525C31.7129 120.709 31.8074 120.032 31.9817 119.499C32.156 118.964 32.4336 118.565 32.8117 118.299C33.1928 118.03 33.7067 117.897 34.3536 117.897C35.1363 117.897 35.7537 118.234 36.2056 118.905C36.6605 119.576 36.885 120.576 36.885 121.9C36.885 123.228 36.6605 124.245 36.2115 124.946Z" fill="#F6FEFF"/>
<path d="M51.9728 115.75C50.9922 115.209 49.8668 114.937 48.5996 114.937C47.232 114.937 46.0564 115.209 45.0699 115.75C44.0863 116.291 43.3242 117.084 42.7925 118.127C42.2579 119.171 41.992 120.446 41.992 121.951C41.992 123.083 42.1515 124.086 42.4705 124.961C42.7895 125.833 43.2415 126.572 43.8293 127.176C44.4141 127.776 45.1053 128.231 45.8999 128.539C46.6974 128.846 47.5717 129 48.5258 129C49.5448 129 50.4575 128.846 51.2698 128.539C52.0821 128.231 52.7792 127.776 53.3552 127.176C53.9341 126.572 54.3742 125.833 54.6785 124.961C54.9798 124.086 55.1304 123.083 55.1304 121.951C55.1304 120.446 54.8498 119.171 54.2886 118.127C53.7274 117.084 52.9564 116.291 51.9728 115.75ZM51.066 124.195C50.874 124.801 50.5757 125.259 50.1681 125.567C49.7605 125.875 49.2288 126.028 48.573 126.028C47.9114 126.028 47.3738 125.875 46.9632 125.567C46.5497 125.259 46.2455 124.801 46.0535 124.195C45.8585 123.589 45.761 122.841 45.761 121.951C45.761 120.608 45.9826 119.6 46.4227 118.929C46.8628 118.257 47.5717 117.92 48.5494 117.92C49.211 117.92 49.7486 118.071 50.1622 118.37C50.5727 118.671 50.874 119.118 51.066 119.712C51.2551 120.307 51.3496 121.052 51.3496 121.951C51.3496 122.841 51.2551 123.589 51.066 124.195Z" fill="#F6FEFF"/>
<path d="M66.4493 115.75C65.4686 115.209 64.3433 114.937 63.0761 114.937C61.7085 114.937 60.5329 115.209 59.5463 115.75C58.5627 116.291 57.8006 117.084 57.2689 118.127C56.7343 119.171 56.4685 120.446 56.4685 121.951C56.4685 123.083 56.628 124.086 56.947 124.961C57.266 125.833 57.7179 126.572 58.3057 127.176C58.8906 127.776 59.5817 128.231 60.3763 128.539C61.1738 128.846 62.0481 129 63.0022 129C64.0212 129 64.934 128.846 65.7462 128.539C66.5585 128.231 67.2556 127.776 67.8316 127.176C68.4105 126.572 68.8507 125.833 69.1549 124.961C69.4562 124.086 69.6068 123.083 69.6068 121.951C69.6068 120.446 69.3262 119.171 68.765 118.127C68.2038 117.084 67.4329 116.291 66.4493 115.75ZM65.5425 124.195C65.3505 124.801 65.0521 125.259 64.6445 125.567C64.2369 125.875 63.7052 126.028 63.0495 126.028C62.3878 126.028 61.8502 125.875 61.4397 125.567C61.0261 125.259 60.7219 124.801 60.5299 124.195C60.335 123.589 60.2375 122.841 60.2375 121.951C60.2375 120.608 60.459 119.6 60.8991 118.929C61.3392 118.257 62.0481 117.92 63.0258 117.92C63.6875 117.92 64.2251 118.071 64.6386 118.37C65.0492 118.671 65.3505 119.118 65.5425 119.712C65.7315 120.307 65.826 121.052 65.826 121.951C65.826 122.841 65.7315 123.589 65.5425 124.195Z" fill="#F6FEFF"/>
<path d="M84.8956 115.191H80.7278L76.9322 119.316C76.6339 119.641 76.3533 119.975 76.0904 120.324C75.8275 120.673 75.5705 121.025 75.3195 121.38H75.2722C75.3195 120.871 75.3638 120.36 75.4051 119.851C75.4465 119.343 75.4671 118.831 75.4671 118.323V109.878H71.769V128.758H75.4671V124.535L77.0533 123.261L80.9582 128.758H85.2234L79.5138 121.075L84.8956 115.191Z" fill="#F6FEFF"/>
<path d="M90.4605 115.567H89.2376V128.758H90.4605V115.567Z" fill="#F6FEFF"/>
<path d="M89.8668 110.691C89.5773 110.691 89.3587 110.779 89.214 110.963C89.0663 111.146 88.9954 111.389 88.9954 111.696C88.9954 112.004 89.0663 112.246 89.214 112.423C89.3587 112.604 89.5773 112.693 89.8668 112.693C90.174 112.693 90.4014 112.604 90.5462 112.423C90.6909 112.246 90.7647 112.004 90.7647 111.696C90.7647 111.389 90.6909 111.146 90.5462 110.963C90.4014 110.779 90.174 110.691 89.8668 110.691Z" fill="#F6FEFF"/>
<path d="M100.48 122.291C99.8299 121.998 99.121 121.72 98.353 121.454C97.6086 121.194 96.9677 120.957 96.4271 120.744C95.8836 120.528 95.4671 120.262 95.1777 119.943C94.8882 119.624 94.7405 119.18 94.7405 118.612C94.7405 117.876 95.0448 117.32 95.6503 116.939C96.2558 116.557 97.0976 116.368 98.1728 116.368C98.8256 116.368 99.4813 116.442 100.134 116.587C100.79 116.732 101.369 116.924 101.868 117.157L102.305 116.114C101.747 115.88 101.127 115.688 100.444 115.537C99.7619 115.386 99.0235 115.312 98.2319 115.312C96.8022 115.312 95.6621 115.608 94.8144 116.199C93.9666 116.788 93.5413 117.616 93.5413 118.674C93.5413 119.452 93.7185 120.064 94.0759 120.514C94.4304 120.96 94.9207 121.321 95.5469 121.593C96.1731 121.865 96.8909 122.137 97.7002 122.412C98.4741 122.669 99.1357 122.926 99.6881 123.175C100.237 123.426 100.66 123.725 100.952 124.068C101.248 124.411 101.395 124.845 101.395 125.372C101.395 126.173 101.097 126.803 100.5 127.264C99.9007 127.726 98.923 127.956 97.5643 127.956C96.7904 127.956 96.0343 127.865 95.2988 127.678C94.5633 127.492 93.8928 127.249 93.2873 126.951V128.163C93.7717 128.397 94.3742 128.595 95.092 128.758C95.8127 128.92 96.628 129 97.5407 129C98.6395 129 99.567 128.858 100.317 128.568C101.067 128.281 101.641 127.862 102.033 127.309C102.423 126.753 102.621 126.084 102.621 125.301C102.621 124.505 102.426 123.879 102.039 123.417C101.649 122.956 101.132 122.58 100.48 122.291Z" fill="#F6FEFF"/>
<path d="M106.718 109.878H105.48V128.758H106.718V109.878Z" fill="#F6FEFF"/>
<path d="M115.216 115.336C114.424 115.336 113.668 115.434 112.945 115.629C112.221 115.821 111.545 116.069 110.912 116.368L111.302 117.388C111.946 117.063 112.584 116.814 113.21 116.643C113.837 116.469 114.489 116.38 115.169 116.38C116.211 116.38 116.997 116.667 117.532 117.243C118.066 117.817 118.332 118.778 118.332 120.129V121.09L115.884 121.211C113.854 121.3 112.301 121.685 111.217 122.368C110.133 123.054 109.592 124.05 109.592 125.36C109.592 126.138 109.755 126.797 110.082 127.338C110.41 127.879 110.874 128.293 111.477 128.577C112.079 128.858 112.806 129 113.654 129C114.492 129 115.207 128.891 115.792 128.672C116.377 128.453 116.873 128.154 117.278 127.77C117.683 127.385 118.025 126.945 118.309 126.451H118.38L118.598 128.757H119.543V119.91C119.543 118.317 119.183 117.157 118.465 116.43C117.745 115.7 116.663 115.336 115.216 115.336ZM118.32 123.346C118.312 124.769 117.925 125.895 117.163 126.72C116.398 127.545 115.293 127.956 113.846 127.956C112.918 127.956 112.191 127.734 111.672 127.288C111.149 126.844 110.889 126.206 110.889 125.372C110.889 124.337 111.326 123.559 112.197 123.042C113.072 122.524 114.345 122.226 116.017 122.146L118.32 122.048V123.346Z" fill="#F6FEFF"/>
<path d="M129.096 115.312C128.304 115.312 127.61 115.434 127.01 115.67C126.414 115.91 125.912 116.229 125.501 116.628C125.093 117.03 124.774 117.477 124.538 117.971H124.467L124.284 115.567H123.292V128.758H124.515V121.489C124.515 119.783 124.896 118.506 125.661 117.66C126.423 116.814 127.527 116.392 128.975 116.392C130.115 116.392 130.983 116.699 131.583 117.314C132.18 117.929 132.478 118.893 132.478 120.203V128.758H133.692V120.129C133.692 118.473 133.293 117.255 132.502 116.477C131.71 115.7 130.576 115.312 129.096 115.312Z" fill="#F6FEFF"/>
<path d="M146.662 115.238C146.662 115.652 146.671 116.105 146.686 116.599C146.703 117.092 146.727 117.554 146.759 117.982H146.662C146.452 117.474 146.154 117.019 145.77 116.616C145.386 116.217 144.913 115.901 144.352 115.664C143.791 115.431 143.129 115.312 142.37 115.312C140.592 115.312 139.207 115.913 138.214 117.11C137.219 118.305 136.722 120.046 136.722 122.326C136.722 124.502 137.192 126.158 138.134 127.297C139.077 128.432 140.447 129 142.249 129C143.058 129 143.75 128.882 144.323 128.642C144.896 128.403 145.374 128.083 145.758 127.678C146.142 127.273 146.443 126.83 146.662 126.342H146.736L146.892 128.757H147.885V109.877H146.662L146.662 115.238ZM146.674 122.338C146.674 124.136 146.346 125.517 145.693 126.484C145.037 127.451 143.936 127.933 142.382 127.933C140.896 127.933 139.791 127.459 139.068 126.513C138.344 125.567 137.984 124.18 137.984 122.35C137.984 120.41 138.368 118.929 139.142 117.909C139.913 116.891 141.029 116.38 142.491 116.38C143.971 116.38 145.037 116.877 145.693 117.867C146.346 118.858 146.674 120.283 146.674 122.146V122.338Z" fill="#F6FEFF"/>
</svg>
