<svg width="24" height="24" viewBox="0 0 24 24" fill="none" xmlns="http://www.w3.org/2000/svg">
<path d="M12 3C10.22 3 8.47991 3.52784 6.99987 4.51677C5.51983 5.50571 4.36628 6.91131 3.68509 8.55585C3.0039 10.2004 2.82567 12.01 3.17294 13.7558C3.5202 15.5016 4.37737 17.1053 5.63604 18.364C6.89471 19.6226 8.49836 20.4798 10.2442 20.8271C11.99 21.1743 13.7996 20.9961 15.4442 20.3149C17.0887 19.6337 18.4943 18.4802 19.4832 17.0001C20.4722 15.5201 21 13.78 21 12C20.9975 9.61382 20.0485 7.3261 18.3612 5.63882C16.6739 3.95154 14.3862 3.00252 12 3ZM12 17.5385C11.7946 17.5385 11.5938 17.4776 11.4231 17.3634C11.2523 17.2493 11.1192 17.0872 11.0406 16.8974C10.962 16.7076 10.9414 16.4988 10.9815 16.2974C11.0216 16.096 11.1205 15.9109 11.2657 15.7657C11.4109 15.6205 11.596 15.5216 11.7974 15.4815C11.9988 15.4414 12.2076 15.462 12.3974 15.5406C12.5872 15.6192 12.7493 15.7523 12.8635 15.9231C12.9776 16.0938 13.0385 16.2946 13.0385 16.5C13.0385 16.7754 12.9291 17.0396 12.7343 17.2343C12.5396 17.429 12.2754 17.5385 12 17.5385ZM12.6923 13.3223V13.3846C12.6923 13.5682 12.6194 13.7443 12.4895 13.8741C12.3597 14.004 12.1836 14.0769 12 14.0769C11.8164 14.0769 11.6403 14.004 11.5105 13.8741C11.3806 13.7443 11.3077 13.5682 11.3077 13.3846V12.6923C11.3077 12.5087 11.3806 12.3326 11.5105 12.2028C11.6403 12.0729 11.8164 12 12 12C13.1449 12 14.0769 11.2212 14.0769 10.2692C14.0769 9.31731 13.1449 8.53846 12 8.53846C10.8551 8.53846 9.92308 9.31731 9.92308 10.2692V10.6154C9.92308 10.799 9.85014 10.9751 9.72031 11.1049C9.59047 11.2348 9.41438 11.3077 9.23077 11.3077C9.04716 11.3077 8.87107 11.2348 8.74124 11.1049C8.6114 10.9751 8.53846 10.799 8.53846 10.6154V10.2692C8.53846 8.55144 10.091 7.15385 12 7.15385C13.909 7.15385 15.4615 8.55144 15.4615 10.2692C15.4615 11.7733 14.2708 13.0324 12.6923 13.3223Z" fill="#F6FEFF"/>
</svg>
