<svg width="64" height="64" viewBox="0 0 64 64" fill="none" xmlns="http://www.w3.org/2000/svg">
<circle cx="32" cy="32" r="32" fill="#F6FEFF"/>
<path d="M53.9489 35.8902H40.6387L53.5923 35.3405C53.9223 35.3272 54.1803 35.0457 54.1659 34.713L54.1515 34.3615C54.1371 34.0288 53.857 33.7707 53.5259 33.7851L43.1466 34.2257L52.866 33.0775C53.1948 33.0386 53.4284 32.7515 53.3886 32.4356L53.3454 32.1029C53.3055 31.7869 53.0055 31.5633 52.6766 31.6022L33.4748 33.8708L33.8491 31.5143C33.8745 31.3586 33.7538 31.2173 33.5966 31.2173H30.4321C30.2749 31.2173 30.1542 31.3586 30.1797 31.5143L30.5561 33.883L11.5459 31.6134C11.217 31.5744 10.9169 31.798 10.876 32.1129L10.8328 32.4467C10.7918 32.7615 11.0255 33.0486 11.3543 33.0875L20.8821 34.2246L10.6191 33.7417C10.288 33.7262 10.0068 33.9832 9.99129 34.3158L9.97468 34.6674C9.95918 35.0001 10.215 35.2827 10.546 35.2982L23.1265 35.8901H10.0611C9.77207 35.8901 9.53733 36.126 9.53733 36.4164V36.9215C9.53733 37.2119 9.77207 37.4477 10.0611 37.4477H28.8842C29.2108 38.913 30.5141 40.0067 32.0697 40.0067C33.6254 40.0067 34.9286 38.913 35.2553 37.4477H53.9489C54.2489 37.4477 54.4914 37.2041 54.4914 36.9026V36.4353C54.4914 36.1338 54.2489 35.8902 53.9489 35.8902Z" fill="#3FC9EB"/>
<path d="M30.8108 27.0062C30.6602 26.9984 30.5395 27.1285 30.5561 27.2776L30.8806 30.1815C30.9093 30.4385 31.1197 30.6365 31.3766 30.6488L32.9267 30.7211C33.1836 30.7333 33.4106 30.5564 33.4638 30.3039L34.0572 27.4423C34.0871 27.2954 33.9797 27.1553 33.8291 27.1475L30.8108 27.0062Z" fill="#3FC9EB"/>
<path d="M34.3894 23.0587L31.4087 22.686C31.2614 22.6671 31.1319 22.7861 31.1363 22.9352L31.2371 25.8379C31.2459 26.095 31.4397 26.3063 31.6933 26.3386L33.2235 26.53C33.477 26.5611 33.7162 26.4031 33.7871 26.1573L34.5931 23.368C34.6341 23.2245 34.5378 23.0765 34.3894 23.0587Z" fill="#3FC9EB"/>
<path d="M21.2564 19.6553C22.6117 20.3685 26.693 22.0574 32.1351 20.1048L31.9645 21.3297C31.9302 21.5801 32.0808 21.8193 32.3222 21.8927L33.776 22.34C34.0163 22.4145 34.2753 22.3021 34.3861 22.0752L35.1534 20.5042C36.4821 22.558 39.4229 25.7512 45.2238 26.7558C45.5061 26.8048 45.7143 26.4999 45.5737 26.2485C43.2141 22.0251 39.9455 20.1626 37.5196 19.3416C39.2579 19.2948 41.5233 18.7652 43.9205 16.9462C44.0855 16.8204 44.0291 16.5579 43.8264 16.5078C39.6145 15.4642 36.6205 16.9673 35.1778 17.9887C35.9406 17.0463 36.8419 15.3641 36.6404 12.8029C36.6293 12.6649 36.4622 12.6026 36.3625 12.6983C34.592 14.3928 34.158 16.2497 34.0993 17.4913C30.5816 11.7671 25.372 10.778 23.6702 10.6078C23.4089 10.5811 23.2184 10.8526 23.3303 11.0918C23.8927 12.2922 25.6355 15.3051 29.6471 17.231C25.4373 16.8038 22.3603 18.3725 21.2365 19.0623C21.0117 19.2003 21.0228 19.5329 21.2564 19.6553ZM42.8045 24.534C42.9041 24.6352 42.8997 24.6742 42.7812 24.6419C41.829 24.3849 39.3056 23.1266 36.7722 20.2183C36.6692 20.0993 36.6714 20.0392 36.7943 20.1037C39.9633 21.7748 42.1479 23.8653 42.8045 24.534ZM36.6991 18.2846C39.0719 17.4502 41.189 17.1598 41.8456 17.0841C41.9452 17.073 41.9696 17.0975 41.8899 17.1275C41.3518 17.33 39.5204 17.9631 36.7467 18.328C36.636 18.3425 36.6072 18.3169 36.6991 18.2846ZM34.5743 17.6549C35.0814 15.8447 35.872 14.4673 36.1289 14.0479C36.1676 13.9845 36.1975 13.9823 36.182 14.0446C36.078 14.4629 35.6793 15.8536 34.6308 17.6493C34.5887 17.7205 34.5555 17.725 34.5743 17.6549ZM25.671 12.2611C25.5636 12.1554 25.5735 12.0953 25.6887 12.1543C26.4615 12.5515 29.0115 13.9711 32.062 16.8638C32.1838 16.9796 32.1749 17.0474 32.0465 16.9773C28.7225 15.1527 26.3785 12.9598 25.671 12.2611ZM24.2316 19.2904C25.0764 19.1558 27.9364 18.7564 32.1207 18.7686C32.2878 18.7686 32.3178 18.7719 32.1816 18.8209C28.3715 20.1916 25.2558 19.5218 24.2869 19.3416C24.1397 19.3138 24.1064 19.3104 24.2316 19.2904Z" fill="#3FC9EB"/>
<path d="M12.3353 44.4459C11.9688 44.4459 11.6699 44.5194 11.4396 44.6673C11.2093 44.8153 11.0277 44.9933 10.8948 45.2036H10.8406C10.855 45.1001 10.8682 44.9544 10.8782 44.7652C10.8893 44.5772 10.8948 44.387 10.8948 44.1945V42.5423H9.50854V49.6462H10.5671L10.7996 49.0843H10.8948C11.0277 49.2523 11.2026 49.4025 11.4174 49.5371C11.6322 49.6706 11.9257 49.7374 12.2988 49.7374C12.6863 49.7374 13.0274 49.6384 13.3208 49.4381C13.6153 49.2389 13.8434 48.9419 14.0073 48.548C14.1711 48.1542 14.252 47.6658 14.252 47.085C14.252 46.2205 14.0748 45.5641 13.7205 45.1168C13.3662 44.6696 12.9044 44.4459 12.3353 44.4459ZM12.5867 48.212C12.4195 48.4768 12.1925 48.6103 11.9079 48.6103C11.5237 48.6103 11.258 48.4779 11.1129 48.2154C10.9679 47.9517 10.8948 47.5723 10.8948 47.0761V46.9248C10.9003 46.6177 10.9358 46.3629 11.0011 46.1626C11.0664 45.9613 11.1705 45.8111 11.3123 45.7109C11.4551 45.6097 11.6477 45.5596 11.8902 45.5596C12.1837 45.5596 12.4151 45.6865 12.5845 45.939C12.755 46.1916 12.8391 46.5676 12.8391 47.0661C12.8391 47.5656 12.755 47.9483 12.5867 48.212Z" fill="#3FC9EB"/>
<path d="M18.4949 44.7519C18.1273 44.5483 17.7055 44.4459 17.2305 44.4459C16.7178 44.4459 16.2771 44.5483 15.9073 44.7519C15.5386 44.9555 15.2529 45.2537 15.0536 45.6464C14.8532 46.0391 14.7536 46.5187 14.7536 47.085C14.7536 47.5111 14.8133 47.8883 14.9329 48.2176C15.0525 48.5458 15.2219 48.8239 15.4423 49.0509C15.6615 49.2768 15.9206 49.4481 16.2184 49.5638C16.5174 49.6795 16.8451 49.7374 17.2028 49.7374C17.5848 49.7374 17.9269 49.6795 18.2314 49.5638C18.5359 49.4481 18.7972 49.2768 19.0131 49.0509C19.2301 48.8239 19.3951 48.5458 19.5092 48.2176C19.6221 47.8883 19.6786 47.5111 19.6786 47.085C19.6786 46.5187 19.5734 46.0391 19.363 45.6464C19.1526 45.2537 18.8636 44.9555 18.4949 44.7519ZM18.155 47.9294C18.083 48.1575 17.9712 48.33 17.8184 48.4457C17.6656 48.5614 17.4663 48.6192 17.2205 48.6192C16.9725 48.6192 16.771 48.5614 16.617 48.4457C16.462 48.33 16.348 48.1575 16.276 47.9294C16.2029 47.7013 16.1664 47.4199 16.1664 47.085C16.1664 46.5799 16.2494 46.2005 16.4144 45.9479C16.5794 45.6954 16.8451 45.5685 17.2116 45.5685C17.4597 45.5685 17.6612 45.6253 17.8162 45.7376C17.9701 45.8511 18.083 46.0191 18.155 46.2427C18.2259 46.4664 18.2613 46.7467 18.2613 47.085C18.2613 47.4199 18.2259 47.7013 18.155 47.9294Z" fill="#3FC9EB"/>
<path d="M23.9215 44.7519C23.5539 44.5483 23.1321 44.4459 22.6571 44.4459C22.1444 44.4459 21.7037 44.5483 21.3339 44.7519C20.9652 44.9555 20.6795 45.2537 20.4802 45.6464C20.2798 46.0391 20.1802 46.5187 20.1802 47.085C20.1802 47.5111 20.2399 47.8883 20.3595 48.2176C20.4791 48.5458 20.6485 48.8239 20.8689 49.0509C21.0881 49.2768 21.3472 49.4481 21.645 49.5638C21.944 49.6795 22.2717 49.7374 22.6294 49.7374C23.0114 49.7374 23.3535 49.6795 23.658 49.5638C23.9625 49.4481 24.2238 49.2768 24.4397 49.0509C24.6567 48.8239 24.8217 48.5458 24.9358 48.2176C25.0487 47.8883 25.1052 47.5111 25.1052 47.085C25.1052 46.5187 25 46.0391 24.7896 45.6464C24.5792 45.2537 24.2902 44.9555 23.9215 44.7519ZM23.5816 47.9294C23.5096 48.1575 23.3978 48.33 23.245 48.4457C23.0922 48.5614 22.8929 48.6192 22.6471 48.6192C22.3991 48.6192 22.1976 48.5614 22.0436 48.4457C21.8886 48.33 21.7746 48.1575 21.7026 47.9294C21.6295 47.7013 21.593 47.4199 21.593 47.085C21.593 46.5799 21.676 46.2005 21.841 45.9479C22.006 45.6954 22.2717 45.5685 22.6382 45.5685C22.8863 45.5685 23.0878 45.6253 23.2428 45.7376C23.3967 45.8511 23.5096 46.0191 23.5816 46.2427C23.6525 46.4664 23.6879 46.7467 23.6879 47.085C23.6879 47.4199 23.6525 47.7013 23.5816 47.9294Z" fill="#3FC9EB"/>
<path d="M30.8363 44.5416H29.2739L27.8511 46.0937C27.7393 46.216 27.6341 46.3418 27.5356 46.4731C27.437 46.6043 27.3407 46.7367 27.2466 46.8702H27.2289C27.2466 46.6789 27.2632 46.4864 27.2787 46.295C27.2942 46.1037 27.3019 45.9112 27.3019 45.7198V42.5423H25.9157V49.6461H27.3019V48.0574L27.8965 47.5778L29.3603 49.6461H30.9592L28.8189 46.7556L30.8363 44.5416Z" fill="#3FC9EB"/>
<path d="M32.9223 44.6829H32.4639V49.6461H32.9223V44.6829Z" fill="#3FC9EB"/>
<path d="M32.6998 42.8483C32.5912 42.8483 32.5093 42.8816 32.4551 42.9506C32.3997 43.0196 32.3731 43.1108 32.3731 43.2265C32.3731 43.3422 32.3997 43.4335 32.4551 43.5002C32.5093 43.5681 32.5912 43.6015 32.6998 43.6015C32.8149 43.6015 32.9002 43.5681 32.9544 43.5002C33.0087 43.4335 33.0364 43.3422 33.0364 43.2265C33.0364 43.1108 33.0087 43.0196 32.9544 42.9506C32.9002 42.8816 32.8149 42.8483 32.6998 42.8483Z" fill="#3FC9EB"/>
<path d="M36.6781 47.2129C36.4345 47.1028 36.1687 46.9982 35.8809 46.8981C35.6018 46.8002 35.3616 46.7111 35.1589 46.631C34.9552 46.5498 34.7991 46.4497 34.6906 46.3295C34.5821 46.2094 34.5267 46.0425 34.5267 45.8289C34.5267 45.5518 34.6407 45.3427 34.8677 45.1991C35.0947 45.0556 35.4103 44.9844 35.8133 44.9844C36.058 44.9844 36.3038 45.0122 36.5485 45.0667C36.7943 45.1213 37.0114 45.1936 37.1985 45.2815L37.3624 44.8887C37.1531 44.8008 36.9206 44.7285 36.6648 44.6718C36.409 44.615 36.1322 44.5872 35.8355 44.5872C35.2996 44.5872 34.8722 44.6985 34.5544 44.921C34.2366 45.1424 34.0772 45.4539 34.0772 45.8522C34.0772 46.1448 34.1436 46.3751 34.2776 46.5443C34.4104 46.7122 34.5942 46.848 34.829 46.9504C35.0637 47.0527 35.3328 47.1551 35.6362 47.2585C35.9263 47.3553 36.1743 47.4521 36.3813 47.5456C36.5873 47.6402 36.7456 47.7525 36.8552 47.8816C36.966 48.0106 37.0213 48.1742 37.0213 48.3722C37.0213 48.6737 36.9095 48.9107 36.6858 49.0843C36.4611 49.2579 36.0946 49.3446 35.5852 49.3446C35.2951 49.3446 35.0117 49.3101 34.736 49.2401C34.4603 49.17 34.2089 49.0787 33.9819 48.9664V49.4225C34.1635 49.5104 34.3894 49.5849 34.6585 49.6461C34.9286 49.7073 35.2342 49.7374 35.5764 49.7374C35.9883 49.7374 36.3359 49.684 36.6172 49.5749C36.8984 49.467 37.1132 49.309 37.2605 49.101C37.4066 48.8918 37.4808 48.6404 37.4808 48.3455C37.4808 48.0462 37.4078 47.8104 37.2627 47.6368C37.1165 47.4632 36.9228 47.322 36.6781 47.2129Z" fill="#3FC9EB"/>
<path d="M39.0166 42.5423H38.5526V49.6461H39.0166V42.5423Z" fill="#3FC9EB"/>
<path d="M42.2021 44.5961C41.9054 44.5961 41.6219 44.6328 41.3506 44.7063C41.0794 44.7786 40.8258 44.872 40.5889 44.9844L40.735 45.3683C40.9764 45.2459 41.2156 45.1524 41.4503 45.0879C41.685 45.0222 41.9297 44.9889 42.1844 44.9889C42.5753 44.9889 42.8698 45.0968 43.0702 45.3137C43.2706 45.5296 43.3703 45.8912 43.3703 46.3996V46.7612L42.4524 46.8068C41.6917 46.8402 41.1093 46.9848 40.7029 47.2418C40.2965 47.5 40.0939 47.8749 40.0939 48.3678C40.0939 48.6604 40.1548 48.9085 40.2777 49.1121C40.4006 49.3157 40.5745 49.4715 40.8003 49.5783C41.0262 49.684 41.2986 49.7374 41.6164 49.7374C41.9308 49.7374 42.1988 49.6962 42.418 49.6139C42.6373 49.5315 42.8233 49.4192 42.975 49.2745C43.1267 49.1299 43.2551 48.9641 43.3614 48.7783H43.388L43.4699 49.6461H43.8242V46.3173C43.8242 45.7176 43.6892 45.2815 43.4201 45.0078C43.1499 44.733 42.7447 44.5961 42.2021 44.5961ZM43.3658 47.6101C43.3625 48.1453 43.2175 48.5692 42.9318 48.8796C42.645 49.19 42.2309 49.3446 41.6884 49.3446C41.3407 49.3446 41.0683 49.2612 40.8734 49.0932C40.6774 48.9263 40.58 48.686 40.58 48.3722C40.58 47.9828 40.7439 47.6902 41.0705 47.4955C41.3983 47.3008 41.8755 47.1884 42.5022 47.1584L43.3658 47.1217V47.6101Z" fill="#3FC9EB"/>
<path d="M47.405 44.5872C47.1083 44.5872 46.8481 44.6328 46.6233 44.7218C46.3997 44.812 46.2114 44.9321 46.0575 45.0823C45.9047 45.2336 45.7852 45.4016 45.6966 45.5874H45.67L45.6013 44.6829H45.2293V49.6461H45.6877V46.9114C45.6877 46.2695 45.8306 45.7888 46.1173 45.4706C46.403 45.1524 46.8171 44.9933 47.3597 44.9933C47.787 44.9933 48.1126 45.109 48.3373 45.3404C48.561 45.5719 48.6728 45.9346 48.6728 46.4274V49.6462H49.1279V46.3996C49.1279 45.7766 48.9784 45.3182 48.6817 45.0256C48.3849 44.733 47.9598 44.5872 47.405 44.5872Z" fill="#3FC9EB"/>
<path d="M53.9898 44.5594C53.9898 44.7152 53.9931 44.8854 53.9987 45.0712C54.0053 45.257 54.0142 45.4306 54.0264 45.5919H53.9898C53.9112 45.4005 53.7994 45.2292 53.6554 45.0779C53.5115 44.9277 53.3343 44.8086 53.124 44.7196C52.9136 44.6317 52.6656 44.5872 52.381 44.5872C51.7144 44.5872 51.1951 44.8131 50.8231 45.2637C50.45 45.7132 50.264 46.3685 50.264 47.2263C50.264 48.0451 50.44 48.6682 50.7932 49.0965C51.1464 49.5238 51.6602 49.7374 52.3356 49.7374C52.639 49.7374 52.8981 49.6929 53.1129 49.6027C53.3277 49.5126 53.5071 49.3925 53.651 49.24C53.795 49.0876 53.9079 48.9207 53.9898 48.7371H54.0175L54.0762 49.6461H54.4482V42.5423H53.9898L53.9898 44.5594ZM53.9943 47.2307C53.9943 47.9072 53.8713 48.4268 53.6266 48.7906C53.3808 49.1544 52.9678 49.3357 52.3854 49.3357C51.8285 49.3357 51.4144 49.1577 51.1431 48.8017C50.8718 48.4457 50.7367 47.9239 50.7367 47.2352C50.7367 46.5053 50.8807 45.9479 51.1708 45.5641C51.4598 45.1813 51.8783 44.9889 52.4264 44.9889C52.9811 44.9889 53.3808 45.1758 53.6266 45.5485C53.8713 45.9212 53.9943 46.4575 53.9943 47.1584V47.2307Z" fill="#3FC9EB"/>
</svg>
