<svg width="175" height="175" viewBox="0 0 175 175" fill="none" xmlns="http://www.w3.org/2000/svg">
<path d="M175 87.5C175 135.825 135.825 175 87.5 175C39.1751 175 0 135.825 0 87.5C0 39.1751 39.1751 0 87.5 0C135.825 0 175 39.1751 175 87.5Z" fill="#3FC9EB"/>
<path d="M147.516 98.1365H111.121L146.542 96.6336C147.444 96.5971 148.149 95.8274 148.11 94.9178L148.071 93.9565C148.031 93.0468 147.265 92.341 146.36 92.3806L117.979 93.5853L144.555 90.4457C145.455 90.3392 146.093 89.5543 145.984 88.6903L145.866 87.7807C145.757 86.9167 144.937 86.3052 144.038 86.4117L91.5328 92.6148L92.5561 86.1713C92.6257 85.7454 92.2957 85.3591 91.8658 85.3591H83.2129C82.7829 85.3591 82.4529 85.7454 82.5226 86.1713L83.552 92.6482L31.5708 86.4421C30.6716 86.3356 29.8511 86.9471 29.7391 87.8081L29.621 88.7207C29.509 89.5817 30.1478 90.3666 31.047 90.473L57.0997 93.5822L29.0367 92.2619C28.1314 92.2193 27.3624 92.922 27.32 93.8317L27.2746 94.793C27.2322 95.7026 27.9316 96.4753 28.8368 96.5179L63.2366 98.1364H27.5108C26.7206 98.1364 26.0787 98.7814 26.0787 99.5754V100.957C26.0787 101.751 26.7206 102.396 27.5108 102.396H78.9803C79.8734 106.402 83.4369 109.393 87.6907 109.393C91.9445 109.393 95.508 106.402 96.4012 102.396H147.516C148.337 102.396 149 101.729 149 100.905V99.6271C149 98.8027 148.337 98.1365 147.516 98.1365Z" fill="#F6FEFF"/>
<path d="M84.2483 73.8443C83.8366 73.823 83.5066 74.179 83.552 74.5866L84.4391 82.5268C84.5178 83.2296 85.093 83.7711 85.7954 83.8046L90.0341 84.0023C90.7365 84.0358 91.3572 83.552 91.5025 82.8615L93.1253 75.0369C93.2071 74.6353 92.9134 74.252 92.5016 74.2307L84.2483 73.8443Z" fill="#F6FEFF"/>
<path d="M94.0336 63.0505L85.8832 62.0314C85.4806 61.9796 85.1264 62.3052 85.1385 62.7128L85.414 70.65C85.4382 71.3527 85.968 71.9308 86.6613 72.019L90.8455 72.5422C91.5388 72.6274 92.1928 72.1954 92.3866 71.5231L94.5907 63.8963C94.7027 63.5038 94.4393 63.0992 94.0336 63.0505Z" fill="#F6FEFF"/>
<path d="M58.123 53.7443C61.8288 55.6944 72.9886 60.3125 87.8694 54.9734L87.4031 58.3229C87.3093 59.0074 87.721 59.6614 88.381 59.8622L92.3563 61.0852C93.0133 61.289 93.7217 60.9818 94.0245 60.3612L96.1226 56.0655C99.7558 61.6815 107.797 70.4127 123.659 73.1598C124.431 73.2936 125 72.4601 124.616 71.7725C118.164 60.2243 109.226 55.1316 102.593 52.8864C107.346 52.7586 113.54 51.3105 120.095 46.3365C120.546 45.9927 120.392 45.2748 119.838 45.1379C108.321 42.2843 100.134 46.3943 96.1892 49.1871C98.2753 46.6103 100.74 42.0105 100.189 35.0073C100.158 34.63 99.7013 34.4597 99.4288 34.7213C94.5876 39.3546 93.4008 44.4321 93.2403 47.8272C83.6216 32.175 69.3767 29.4705 64.7232 29.005C64.0087 28.9319 63.488 29.6743 63.7938 30.3284C65.3318 33.6109 70.0973 41.8493 81.0663 47.1153C69.5553 45.9471 61.1416 50.2367 58.0685 52.1228C57.4539 52.5001 57.4842 53.4097 58.123 53.7443ZM117.043 67.0845C117.316 67.3613 117.304 67.4678 116.98 67.3796C114.376 66.6768 107.476 63.2361 100.549 55.2837C100.267 54.9582 100.274 54.7939 100.61 54.9704C109.275 59.5398 115.248 65.2561 117.043 67.0845ZM100.349 49.9963C106.837 47.7147 112.626 46.9206 114.422 46.7138C114.694 46.6833 114.761 46.7503 114.543 46.8324C113.071 47.3861 108.064 49.1171 100.479 50.115C100.177 50.1545 100.098 50.0846 100.349 49.9963ZM94.5392 48.2744C95.9259 43.3247 98.0876 39.5585 98.79 38.4115C98.896 38.2381 98.9777 38.2321 98.9353 38.4024C98.6507 39.5463 97.5608 43.3491 94.6936 48.2592C94.5786 48.4539 94.4877 48.4661 94.5392 48.2744ZM70.1941 33.5257C69.9005 33.2367 69.9277 33.0724 70.2426 33.2337C72.3559 34.3198 79.3285 38.2016 87.6695 46.1114C88.0026 46.4278 87.9784 46.6134 87.6272 46.4217C78.5383 41.4325 72.1288 35.4362 70.1941 33.5257ZM66.2582 52.7465C68.5683 52.3784 76.3886 51.2862 87.83 51.3197C88.2871 51.3197 88.3689 51.3288 87.9965 51.4627C77.5785 55.2107 69.0588 53.3793 66.4096 52.8865C66.0069 52.8104 65.9161 52.8013 66.2582 52.7465Z" fill="#F6FEFF"/>
<path d="M33.7295 121.531C32.7274 121.531 31.9099 121.732 31.2802 122.137C30.6504 122.541 30.1539 123.028 29.7906 123.603H29.6422C29.6816 123.32 29.7179 122.921 29.7452 122.404C29.7754 121.89 29.7906 121.37 29.7906 120.844V116.326H26V135.751H28.8944L29.5302 134.214H29.7906C30.1539 134.674 30.6323 135.084 31.2196 135.452C31.807 135.817 32.6093 136 33.6296 136C34.6893 136 35.6218 135.729 36.4241 135.182C37.2294 134.637 37.8531 133.825 38.3012 132.748C38.7493 131.671 38.9703 130.335 38.9703 128.747C38.9703 126.384 38.4859 124.589 37.5171 123.366C36.5482 122.143 35.2857 121.531 33.7295 121.531ZM34.4168 131.829C33.9596 132.553 33.3389 132.918 32.5608 132.918C31.5103 132.918 30.7836 132.556 30.387 131.838C29.9904 131.117 29.7906 130.08 29.7906 128.723V128.309C29.8057 127.47 29.9026 126.773 30.0812 126.225C30.2599 125.675 30.5445 125.264 30.932 124.99C31.3226 124.713 31.8494 124.576 32.5124 124.576C33.3148 124.576 33.9475 124.923 34.4108 125.614C34.877 126.304 35.1071 127.333 35.1071 128.696C35.1071 130.062 34.877 131.108 34.4168 131.829Z" fill="#F6FEFF"/>
<path d="M50.5721 122.368C49.567 121.811 48.4135 121.531 47.1146 121.531C45.7128 121.531 44.5078 121.811 43.4966 122.368C42.4884 122.924 41.7073 123.74 41.1623 124.814C40.6143 125.888 40.3418 127.199 40.3418 128.747C40.3418 129.912 40.5053 130.944 40.8323 131.844C41.1593 132.742 41.6225 133.502 42.225 134.123C42.8245 134.74 43.5329 135.209 44.3474 135.525C45.1648 135.842 46.061 136 47.0389 136C48.0834 136 49.019 135.842 49.8516 135.525C50.6842 135.209 51.3987 134.74 51.9891 134.123C52.5825 133.502 53.0336 132.742 53.3454 131.844C53.6543 130.944 53.8087 129.912 53.8087 128.747C53.8087 127.199 53.521 125.888 52.9458 124.814C52.3705 123.74 51.5803 122.924 50.5721 122.368ZM49.6427 131.056C49.4459 131.68 49.1401 132.152 48.7223 132.468C48.3045 132.784 47.7595 132.943 47.0874 132.943C46.4092 132.943 45.8581 132.784 45.4373 132.468C45.0134 132.152 44.7016 131.68 44.5048 131.056C44.305 130.433 44.2051 129.663 44.2051 128.747C44.2051 127.366 44.4321 126.329 44.8833 125.638C45.3344 124.948 46.061 124.601 47.0631 124.601C47.7413 124.601 48.2923 124.756 48.7162 125.063C49.1371 125.373 49.4459 125.833 49.6427 126.444C49.8364 127.056 49.9333 127.822 49.9333 128.747C49.9333 129.663 49.8364 130.433 49.6427 131.056Z" fill="#F6FEFF"/>
<path d="M65.4105 122.368C64.4054 121.811 63.2518 121.531 61.953 121.531C60.5512 121.531 59.3462 121.811 58.335 122.368C57.3268 122.924 56.5456 123.74 56.0007 124.814C55.4527 125.888 55.1802 127.199 55.1802 128.747C55.1802 129.912 55.3437 130.944 55.6707 131.844C55.9976 132.742 56.4609 133.502 57.0634 134.123C57.6628 134.74 58.3713 135.209 59.1857 135.525C60.0031 135.842 60.8993 136 61.8772 136C62.9218 136 63.8573 135.842 64.6899 135.525C65.5225 135.209 66.237 134.74 66.8274 134.123C67.4208 133.502 67.8719 132.742 68.1838 131.844C68.4926 130.944 68.647 129.912 68.647 128.747C68.647 127.199 68.3594 125.888 67.7841 124.814C67.2089 123.74 66.4187 122.924 65.4105 122.368ZM64.481 131.056C64.2842 131.68 63.9784 132.152 63.5606 132.468C63.1428 132.784 62.5978 132.943 61.9257 132.943C61.2475 132.943 60.6965 132.784 60.2757 132.468C59.8518 132.152 59.5399 131.68 59.3432 131.056C59.1433 130.433 59.0434 129.663 59.0434 128.747C59.0434 127.366 59.2705 126.329 59.7216 125.638C60.1727 124.948 60.8993 124.601 61.9015 124.601C62.5797 124.601 63.1307 124.756 63.5546 125.063C63.9754 125.373 64.2842 125.833 64.481 126.444C64.6748 127.056 64.7717 127.822 64.7717 128.747C64.7717 129.663 64.6748 130.433 64.481 131.056Z" fill="#F6FEFF"/>
<path d="M84.318 121.793H80.046L76.1555 126.037C75.8497 126.371 75.5621 126.715 75.2926 127.074C75.0232 127.433 74.7598 127.795 74.5024 128.16H74.454C74.5024 127.637 74.5479 127.111 74.5902 126.587C74.6326 126.064 74.6538 125.538 74.6538 125.015V116.326H70.8632V135.751H74.6538V131.406L76.2796 130.095L80.2822 135.751H84.654L78.8016 127.847L84.318 121.793Z" fill="#F6FEFF"/>
<path d="M90.022 122.179H88.7686V135.751H90.022V122.179Z" fill="#F6FEFF"/>
<path d="M89.4135 117.163C89.1167 117.163 88.8927 117.254 88.7443 117.442C88.593 117.631 88.5203 117.88 88.5203 118.197C88.5203 118.513 88.593 118.763 88.7443 118.945C88.8927 119.131 89.1167 119.222 89.4135 119.222C89.7283 119.222 89.9614 119.131 90.1098 118.945C90.2582 118.763 90.3338 118.513 90.3338 118.197C90.3338 117.88 90.2582 117.631 90.1098 117.442C89.9614 117.254 89.7283 117.163 89.4135 117.163Z" fill="#F6FEFF"/>
<path d="M100.292 129.097C99.6256 128.796 98.899 128.51 98.1118 128.236C97.3488 127.969 96.6918 127.725 96.1378 127.506C95.5807 127.284 95.1538 127.01 94.8571 126.682C94.5604 126.353 94.409 125.897 94.409 125.313C94.409 124.555 94.7209 123.983 95.3415 123.591C95.9622 123.198 96.8251 123.004 97.9271 123.004C98.5962 123.004 99.2683 123.08 99.9375 123.229C100.61 123.378 101.203 123.576 101.715 123.816L102.163 122.742C101.591 122.502 100.955 122.304 100.255 122.149C99.556 121.994 98.7991 121.918 97.9877 121.918C96.5223 121.918 95.3536 122.222 94.4847 122.83C93.6158 123.436 93.1798 124.287 93.1798 125.377C93.1798 126.177 93.3615 126.806 93.7278 127.269C94.0911 127.728 94.5937 128.099 95.2356 128.379C95.8774 128.659 96.6131 128.939 97.4427 129.222C98.2359 129.487 98.9141 129.751 99.4803 130.007C100.043 130.265 100.476 130.573 100.776 130.926C101.079 131.278 101.23 131.726 101.23 132.267C101.23 133.092 100.924 133.74 100.313 134.214C99.6983 134.689 98.6961 134.926 97.3034 134.926C96.5102 134.926 95.7351 134.832 94.9812 134.64C94.2274 134.448 93.5401 134.199 92.9194 133.892V135.139C93.416 135.379 94.0336 135.583 94.7693 135.751C95.508 135.918 96.3437 136 97.2792 136C98.4055 136 99.3561 135.854 100.125 135.556C100.894 135.261 101.482 134.829 101.884 134.26C102.284 133.688 102.487 133 102.487 132.194C102.487 131.376 102.287 130.731 101.89 130.256C101.491 129.782 100.961 129.395 100.292 129.097Z" fill="#F6FEFF"/>
<path d="M106.686 116.326H105.417V135.751H106.686V116.326Z" fill="#F6FEFF"/>
<path d="M115.396 121.942C114.585 121.942 113.81 122.042 113.068 122.243C112.326 122.441 111.633 122.696 110.985 123.004L111.385 124.053C112.045 123.719 112.699 123.463 113.341 123.287C113.983 123.107 114.652 123.016 115.348 123.016C116.417 123.016 117.222 123.311 117.77 123.904C118.318 124.494 118.591 125.483 118.591 126.873V127.862L116.081 127.987C114.001 128.078 112.408 128.473 111.297 129.176C110.186 129.882 109.632 130.907 109.632 132.255C109.632 133.055 109.798 133.733 110.134 134.29C110.471 134.847 110.946 135.273 111.563 135.565C112.181 135.854 112.926 136 113.795 136C114.655 136 115.387 135.887 115.987 135.662C116.586 135.437 117.095 135.13 117.51 134.734C117.925 134.339 118.276 133.886 118.566 133.378H118.639L118.863 135.75H119.832V126.648C119.832 125.008 119.463 123.816 118.727 123.067C117.988 122.316 116.88 121.942 115.396 121.942ZM118.578 130.183C118.569 131.647 118.173 132.806 117.392 133.654C116.608 134.503 115.475 134.926 113.992 134.926C113.041 134.926 112.296 134.698 111.763 134.239C111.227 133.782 110.961 133.125 110.961 132.267C110.961 131.202 111.409 130.402 112.302 129.87C113.198 129.337 114.503 129.03 116.217 128.948L118.578 128.848V130.183Z" fill="#F6FEFF"/>
<path d="M129.623 121.918C128.812 121.918 128.1 122.042 127.486 122.286C126.874 122.532 126.359 122.861 125.939 123.271C125.521 123.685 125.194 124.144 124.952 124.652H124.879L124.691 122.179H123.674V135.751H124.927V128.273C124.927 126.517 125.318 125.203 126.102 124.333C126.883 123.463 128.016 123.028 129.499 123.028C130.668 123.028 131.558 123.344 132.172 123.977C132.784 124.61 133.09 125.602 133.09 126.949V135.751H134.334V126.873C134.334 125.17 133.925 123.916 133.114 123.116C132.303 122.316 131.14 121.918 129.623 121.918Z" fill="#F6FEFF"/>
<path d="M147.628 121.841C147.628 122.267 147.638 122.733 147.653 123.241C147.671 123.749 147.695 124.224 147.728 124.665H147.628C147.414 124.141 147.108 123.673 146.714 123.259C146.321 122.848 145.836 122.523 145.261 122.28C144.686 122.039 144.007 121.918 143.229 121.918C141.407 121.918 139.987 122.535 138.969 123.767C137.949 124.996 137.441 126.788 137.441 129.134C137.441 131.373 137.922 133.076 138.888 134.248C139.854 135.416 141.258 136 143.105 136C143.935 136 144.643 135.878 145.231 135.632C145.818 135.385 146.308 135.057 146.702 134.64C147.096 134.223 147.404 133.767 147.629 133.265H147.704L147.865 135.75H148.882V116.326H147.629L147.628 121.841ZM147.641 129.146C147.641 130.996 147.305 132.416 146.635 133.411C145.963 134.406 144.834 134.902 143.241 134.902C141.719 134.902 140.586 134.415 139.844 133.441C139.103 132.468 138.733 131.041 138.733 129.158C138.733 127.162 139.127 125.638 139.92 124.589C140.71 123.542 141.855 123.016 143.353 123.016C144.87 123.016 145.963 123.527 146.635 124.546C147.305 125.565 147.641 127.031 147.641 128.948V129.146Z" fill="#F6FEFF"/>
</svg>
