<svg width="175" height="175" viewBox="0 0 175 175" fill="none" xmlns="http://www.w3.org/2000/svg">
<path d="M175 87.5C175 135.825 135.825 175 87.5 175C39.1751 175 0 135.825 0 87.5C0 39.1751 39.1751 0 87.5 0C135.825 0 175 39.1751 175 87.5Z" fill="#F6FEFF"/>
<path d="M146.541 95.8442H110.737L145.582 94.3694C146.469 94.3336 147.163 93.5783 147.124 92.6857L147.086 91.7423C147.047 90.8497 146.293 90.1571 145.403 90.1959L117.483 91.3781L143.628 88.2972C144.512 88.1927 145.141 87.4225 145.033 86.5746L144.917 85.682C144.81 84.8341 144.003 84.2341 143.118 84.3386L91.4672 90.4257L92.4739 84.1027C92.5424 83.6848 92.2177 83.3056 91.7948 83.3056H83.2826C82.8596 83.3056 82.535 83.6848 82.6035 84.1027L83.6161 90.4586L32.4802 84.3684C31.5956 84.2639 30.7885 84.864 30.6783 85.7088L30.5621 86.6045C30.4519 87.4493 31.0804 88.2195 31.9649 88.324L57.594 91.3751L29.9873 90.0794C29.0968 90.0376 28.3402 90.7272 28.2985 91.6199L28.2539 92.5632C28.2122 93.4559 28.9002 94.2141 29.7907 94.2559L63.6312 95.8441H28.4862C27.7089 95.8441 27.0774 96.477 27.0774 97.2562V98.6116C27.0774 99.3908 27.7089 100.024 28.4862 100.024H79.1188C79.9974 103.955 83.503 106.89 87.6876 106.89C91.8723 106.89 95.3778 103.955 96.2565 100.024H146.541C147.348 100.024 148 99.3699 148 98.5608V97.307C148 96.4979 147.348 95.8442 146.541 95.8442Z" fill="#3FC9EB"/>
<path d="M84.3012 72.0061C83.8961 71.9852 83.5715 72.3345 83.6162 72.7345L84.4888 80.5263C84.5663 81.2159 85.1322 81.7473 85.8232 81.7802L89.9929 81.9742C90.6839 82.0071 91.2945 81.5324 91.4374 80.8547L93.0339 73.1764C93.1143 72.7823 92.8254 72.4061 92.4203 72.3852L84.3012 72.0061Z" fill="#3FC9EB"/>
<path d="M93.9274 61.4141L85.9095 60.414C85.5134 60.3632 85.1649 60.6826 85.1769 61.0827L85.4479 68.8715C85.4717 69.5611 85.9929 70.1283 86.675 70.2149L90.7911 70.7284C91.4732 70.812 92.1165 70.388 92.3071 69.7283L94.4754 62.244C94.5856 61.8589 94.3265 61.4618 93.9274 61.4141Z" fill="#3FC9EB"/>
<path d="M58.6007 52.2818C62.2462 54.1954 73.2246 58.7272 87.8634 53.4879L87.4047 56.7748C87.3124 57.4465 87.7174 58.0883 88.3667 58.2854L92.2773 59.4855C92.9236 59.6855 93.6206 59.384 93.9184 58.775L95.9824 54.5596C99.5565 60.0706 107.467 68.6386 123.071 71.3344C123.83 71.4657 124.39 70.6477 124.012 69.973C117.665 58.6406 108.873 53.6431 102.347 51.4399C107.023 51.3146 113.117 49.8935 119.565 45.0125C120.009 44.6751 119.857 43.9706 119.312 43.8362C107.982 41.036 99.9288 45.0692 96.0479 47.8097C98.1001 45.2811 100.524 40.7673 99.9824 33.895C99.9526 33.5248 99.5029 33.3576 99.2348 33.6144C94.4724 38.1611 93.3048 43.1436 93.147 46.4753C83.6847 31.1156 69.6714 28.4617 65.0936 28.0049C64.3907 27.9332 63.8784 28.6617 64.1792 29.3035C65.6922 32.5247 70.3802 40.6091 81.1709 45.7767C69.8471 44.6304 61.5701 48.8397 58.5471 50.6906C57.9425 51.0608 57.9722 51.9534 58.6007 52.2818ZM116.563 65.3726C116.831 65.6443 116.819 65.7488 116.501 65.6622C113.939 64.9726 107.151 61.5962 100.337 53.7925C100.06 53.473 100.066 53.3118 100.396 53.485C108.921 57.969 114.797 63.5784 116.563 65.3726ZM100.14 48.6039C106.523 46.3649 112.218 45.5857 113.984 45.3827C114.252 45.3528 114.317 45.4185 114.103 45.4991C112.655 46.0424 107.729 47.7411 100.268 48.7203C99.9705 48.7591 99.8931 48.6905 100.14 48.6039ZM94.4248 46.9142C95.7889 42.057 97.9154 38.3611 98.6064 37.2356C98.7106 37.0655 98.7911 37.0595 98.7494 37.2267C98.4694 38.3492 97.3972 42.0809 94.5766 46.8992C94.4635 47.0903 94.3741 47.1022 94.4248 46.9142ZM70.4755 32.4411C70.1866 32.1575 70.2134 31.9963 70.5232 32.1545C72.6021 33.2203 79.4613 37.0296 87.6668 44.7916C87.9944 45.1021 87.9706 45.2842 87.6251 45.0961C78.684 40.2001 72.3787 34.3159 70.4755 32.4411ZM66.6036 51.3026C68.8761 50.9414 76.5693 49.8697 87.8246 49.9025C88.2743 49.9025 88.3548 49.9115 87.9885 50.0428C77.7398 53.7208 69.3586 51.9236 66.7525 51.44C66.3564 51.3654 66.2671 51.3564 66.6036 51.3026Z" fill="#3FC9EB"/>
<path d="M34.6038 118.802C33.618 118.802 32.8138 118.999 32.1943 119.396C31.5748 119.793 31.0863 120.27 30.7289 120.835H30.583C30.6217 120.557 30.6575 120.166 30.6843 119.658C30.714 119.154 30.7289 118.643 30.7289 118.127V113.694H27V132.755H29.8473L30.4728 131.248H30.7289C31.0863 131.698 31.5569 132.101 32.1347 132.463C32.7126 132.821 33.5018 133 34.5055 133C35.548 133 36.4653 132.734 37.2546 132.197C38.0468 131.663 38.6604 130.865 39.1012 129.809C39.542 128.752 39.7594 127.441 39.7594 125.883C39.7594 123.563 39.2829 121.802 38.3298 120.602C37.3767 119.402 36.1347 118.802 34.6038 118.802ZM35.2799 128.907C34.8302 129.618 34.2196 129.976 33.4542 129.976C32.4207 129.976 31.7059 129.621 31.3157 128.916C30.9255 128.208 30.7289 127.19 30.7289 125.859V125.453C30.7438 124.629 30.8391 123.945 31.0149 123.408C31.1906 122.868 31.4706 122.465 31.8518 122.196C32.236 121.924 32.7543 121.79 33.4065 121.79C34.1958 121.79 34.8183 122.13 35.274 122.808C35.7327 123.486 35.959 124.495 35.959 125.832C35.959 127.173 35.7326 128.2 35.2799 128.907Z" fill="#3FC9EB"/>
<path d="M51.1726 119.623C50.1838 119.076 49.049 118.802 47.7713 118.802C46.3923 118.802 45.2069 119.076 44.2121 119.623C43.2203 120.169 42.4519 120.969 41.9158 122.023C41.3767 123.077 41.1086 124.363 41.1086 125.883C41.1086 127.026 41.2695 128.038 41.5911 128.922C41.9128 129.803 42.3685 130.549 42.9612 131.158C43.5509 131.764 44.2478 132.224 45.049 132.534C45.8532 132.845 46.7348 133 47.6968 133C48.7244 133 49.6447 132.845 50.4637 132.534C51.2828 132.224 51.9857 131.764 52.5665 131.158C53.1502 130.549 53.594 129.803 53.9008 128.922C54.2046 128.038 54.3565 127.026 54.3565 125.883C54.3565 124.363 54.0735 123.077 53.5077 122.023C52.9418 120.969 52.1644 120.169 51.1726 119.623ZM50.2582 128.149C50.0646 128.761 49.7638 129.224 49.3528 129.534C48.9418 129.844 48.4057 130 47.7445 130C47.0773 130 46.5352 129.844 46.1213 129.534C45.7043 129.224 45.3975 128.761 45.2039 128.149C45.0073 127.537 44.909 126.781 44.909 125.883C44.909 124.528 45.1324 123.51 45.5762 122.832C46.02 122.154 46.7348 121.814 47.7206 121.814C48.3878 121.814 48.9299 121.966 49.3468 122.268C49.7608 122.572 50.0646 123.023 50.2582 123.623C50.4488 124.223 50.5442 124.975 50.5442 125.883C50.5442 126.781 50.4488 127.537 50.2582 128.149Z" fill="#3FC9EB"/>
<path d="M65.7697 119.623C64.7809 119.076 63.6461 118.802 62.3684 118.802C60.9894 118.802 59.804 119.076 58.8092 119.623C57.8174 120.169 57.049 120.969 56.5128 122.023C55.9738 123.077 55.7057 124.363 55.7057 125.883C55.7057 127.026 55.8665 128.038 56.1882 128.922C56.5099 129.803 56.9656 130.549 57.5583 131.158C58.148 131.764 58.8449 132.224 59.6461 132.534C60.4502 132.845 61.3318 133 62.2939 133C63.3214 133 64.2417 132.845 65.0608 132.534C65.8798 132.224 66.5827 131.764 67.1635 131.158C67.7473 130.549 68.1911 129.803 68.4978 128.922C68.8016 128.038 68.9535 127.026 68.9535 125.883C68.9535 124.363 68.6706 123.077 68.1047 122.023C67.5388 120.969 66.7615 120.169 65.7697 119.623ZM64.8553 128.149C64.6617 128.761 64.3609 129.224 63.9499 129.534C63.5389 129.844 63.0028 130 62.3416 130C61.6744 130 61.1323 129.844 60.7183 129.534C60.3014 129.224 59.9946 128.761 59.801 128.149C59.6044 127.537 59.5061 126.781 59.5061 125.883C59.5061 124.528 59.7295 123.51 60.1733 122.832C60.6171 122.154 61.3319 121.814 62.3177 121.814C62.9849 121.814 63.527 121.966 63.9439 122.268C64.3579 122.572 64.6617 123.023 64.8553 123.623C65.0459 124.223 65.1412 124.975 65.1412 125.883C65.1412 126.781 65.0459 127.537 64.8553 128.149Z" fill="#3FC9EB"/>
<path d="M84.3697 119.058H80.1672L76.34 123.223C76.0392 123.551 75.7562 123.889 75.4911 124.241C75.2261 124.593 74.9669 124.948 74.7138 125.307H74.6661C74.7138 124.793 74.7585 124.277 74.8001 123.763C74.8418 123.25 74.8627 122.733 74.8627 122.22V113.694H71.1338V132.755H74.8627V128.492L76.4621 127.205L80.3995 132.755H84.7003L78.9431 124.999L84.3697 119.058Z" fill="#3FC9EB"/>
<path d="M89.981 119.437H88.7479V132.755H89.981V119.437Z" fill="#3FC9EB"/>
<path d="M89.3823 114.515C89.0905 114.515 88.8701 114.604 88.7241 114.789C88.5752 114.974 88.5037 115.219 88.5037 115.53C88.5037 115.84 88.5752 116.085 88.7241 116.264C88.8701 116.446 89.0905 116.536 89.3823 116.536C89.6921 116.536 89.9214 116.446 90.0674 116.264C90.2133 116.085 90.2878 115.84 90.2878 115.53C90.2878 115.219 90.2133 114.974 90.0674 114.789C89.9214 114.604 89.6921 114.515 89.3823 114.515Z" fill="#3FC9EB"/>
<path d="M100.084 126.226C99.4284 125.931 98.7136 125.65 97.9392 125.381C97.1887 125.119 96.5424 124.88 95.9973 124.665C95.4493 124.447 95.0294 124.178 94.7375 123.856C94.4456 123.533 94.2967 123.086 94.2967 122.512C94.2967 121.769 94.6034 121.208 95.214 120.823C95.8246 120.438 96.6734 120.247 97.7576 120.247C98.4158 120.247 99.077 120.321 99.7352 120.467C100.396 120.614 100.98 120.808 101.484 121.044L101.924 119.99C101.361 119.754 100.736 119.56 100.048 119.408C99.3599 119.255 98.6153 119.181 97.8171 119.181C96.3756 119.181 95.2259 119.479 94.3711 120.076C93.5163 120.67 93.0875 121.506 93.0875 122.575C93.0875 123.36 93.2662 123.978 93.6265 124.432C93.9839 124.883 94.4784 125.247 95.1098 125.522C95.7412 125.796 96.4649 126.071 97.281 126.349C98.0614 126.608 98.7285 126.868 99.2855 127.119C99.8395 127.373 100.265 127.674 100.56 128.02C100.858 128.367 101.007 128.806 101.007 129.337C101.007 130.146 100.706 130.782 100.105 131.248C99.4999 131.713 98.5141 131.946 97.144 131.946C96.3637 131.946 95.6012 131.854 94.8596 131.666C94.118 131.477 93.4419 131.233 92.8313 130.931V132.155C93.3198 132.391 93.9274 132.591 94.6511 132.755C95.3778 132.919 96.1999 133 97.1202 133C98.2281 133 99.1634 132.857 99.9199 132.564C100.676 132.275 101.254 131.851 101.65 131.292C102.043 130.731 102.243 130.056 102.243 129.265C102.243 128.462 102.046 127.829 101.656 127.364C101.263 126.898 100.742 126.519 100.084 126.226Z" fill="#3FC9EB"/>
<path d="M106.374 113.694H105.126V132.755H106.374V113.694Z" fill="#3FC9EB"/>
<path d="M114.943 119.205C114.145 119.205 113.382 119.303 112.652 119.5C111.923 119.694 111.241 119.945 110.603 120.247L110.996 121.276C111.646 120.948 112.289 120.697 112.921 120.524C113.552 120.348 114.21 120.258 114.895 120.258C115.947 120.258 116.739 120.548 117.278 121.13C117.817 121.709 118.085 122.68 118.085 124.044V125.014L115.616 125.137C113.57 125.226 112.003 125.614 110.91 126.304C109.817 126.996 109.272 128.002 109.272 129.325C109.272 130.11 109.436 130.776 109.766 131.322C110.097 131.868 110.565 132.286 111.172 132.573C111.78 132.857 112.513 133 113.367 133C114.213 133 114.934 132.889 115.524 132.669C116.113 132.448 116.614 132.146 117.022 131.758C117.43 131.37 117.775 130.925 118.061 130.427H118.133L118.353 132.755H119.306V123.823C119.306 122.214 118.943 121.044 118.219 120.309C117.492 119.572 116.402 119.205 114.943 119.205ZM118.073 127.292C118.064 128.728 117.674 129.865 116.906 130.698C116.134 131.531 115.02 131.946 113.561 131.946C112.626 131.946 111.893 131.722 111.369 131.271C110.842 130.824 110.58 130.179 110.58 129.337C110.58 128.292 111.02 127.507 111.899 126.984C112.781 126.462 114.064 126.161 115.75 126.08L118.073 125.981V127.292Z" fill="#3FC9EB"/>
<path d="M128.938 119.181C128.14 119.181 127.44 119.303 126.836 119.542C126.234 119.784 125.728 120.106 125.314 120.509C124.903 120.915 124.581 121.366 124.343 121.865H124.271L124.087 119.437H123.086V132.755H124.319V125.417C124.319 123.695 124.703 122.405 125.474 121.551C126.243 120.697 127.357 120.27 128.816 120.27C129.966 120.27 130.841 120.581 131.446 121.202C132.048 121.823 132.349 122.796 132.349 124.119V132.755H133.573V124.044C133.573 122.372 133.171 121.142 132.372 120.357C131.574 119.572 130.43 119.181 128.938 119.181Z" fill="#3FC9EB"/>
<path d="M146.651 119.106C146.651 119.524 146.66 119.981 146.675 120.479C146.692 120.978 146.716 121.444 146.749 121.877H146.651C146.439 121.363 146.139 120.903 145.751 120.497C145.364 120.094 144.888 119.775 144.322 119.536C143.756 119.3 143.089 119.181 142.323 119.181C140.53 119.181 139.133 119.787 138.133 120.996C137.129 122.202 136.629 123.96 136.629 126.262C136.629 128.459 137.102 130.131 138.052 131.28C139.002 132.427 140.384 133 142.201 133C143.017 133 143.714 132.881 144.292 132.639C144.87 132.397 145.352 132.074 145.739 131.665C146.127 131.257 146.43 130.809 146.651 130.316H146.725L146.883 132.755H147.884V113.694H146.651L146.651 119.106ZM146.663 126.274C146.663 128.089 146.332 129.483 145.674 130.459C145.013 131.436 143.902 131.922 142.335 131.922C140.837 131.922 139.723 131.445 138.993 130.489C138.264 129.534 137.9 128.134 137.9 126.286C137.9 124.328 138.287 122.832 139.068 121.802C139.845 120.775 140.971 120.258 142.445 120.258C143.937 120.258 145.013 120.76 145.674 121.76C146.332 122.76 146.663 124.199 146.663 126.08V126.274Z" fill="#3FC9EB"/>
</svg>
