<svg width="151" height="141" viewBox="0 0 151 141" fill="none" xmlns="http://www.w3.org/2000/svg">
<path fill-rule="evenodd" clip-rule="evenodd" d="M145.558 133.225C145.558 134.395 144.605 135.345 143.434 135.345H91.5283L108.487 129.935C109.318 129.669 109.951 128.993 110.156 128.147C110.362 127.302 110.111 126.411 109.493 125.795L101.557 117.887L109.796 109.674C110.774 108.699 110.774 107.12 109.796 106.147L101.557 97.9343L109.796 89.7213C110.774 88.7462 110.774 87.1674 109.796 86.1948L101.557 77.9818L109.796 69.7689C110.774 68.7937 110.774 67.215 109.796 66.2423L101.557 58.0294L109.796 49.8165C110.774 48.8413 110.774 47.2626 109.796 46.2899L101.557 38.077L109.796 29.8641C110.774 28.8889 110.774 27.3102 109.796 26.3375L109.063 25.6067H143.434C144.605 25.6067 145.558 26.5545 145.558 27.7242V133.225ZM7.56594 135.345C6.39496 135.345 5.44167 134.395 5.44167 133.225V27.7242C5.44167 26.5545 6.39496 25.6067 7.56594 25.6067H10.4458V117.887C10.4458 118.969 11.1489 119.932 12.1848 120.261L59.4742 135.345H7.56594ZM23.1789 33.3034C23.6919 32.0239 25.1481 31.3954 26.4341 31.9167L43.9062 38.9075C45.1873 39.4188 45.8103 40.8728 45.2948 42.1473C44.902 43.1225 43.9637 43.7135 42.9729 43.7135C42.6602 43.7135 42.3474 43.6587 42.0396 43.534L24.5701 36.5431C23.2865 36.0319 22.6635 34.5778 23.1789 33.3034ZM65.289 62.6908C64.9162 63.6959 63.9604 64.3194 62.942 64.3194C62.6543 64.3194 62.3616 64.272 62.0763 64.1673L24.6351 50.3926C23.3391 49.9163 22.676 48.4797 23.1539 47.1878C23.6318 45.8983 25.073 45.2374 26.3666 45.7113L63.8078 59.4859C65.1038 59.9623 65.7669 61.3964 65.289 62.6908ZM23.1539 92.0807C23.6318 90.7888 25.073 90.1354 26.3666 90.6042L63.8078 104.379C65.1038 104.855 65.7669 106.289 65.289 107.584C64.9162 108.589 63.9604 109.212 62.942 109.212C62.6543 109.212 62.3616 109.165 62.0763 109.06L24.6351 95.2856C23.3391 94.8092 22.676 93.3726 23.1539 92.0807ZM23.1539 62.1521C23.6318 60.8602 25.073 60.2042 26.3666 60.6756L63.8078 74.4503C65.1038 74.9266 65.7669 76.3607 65.289 77.6551C64.9162 78.6602 63.9604 79.2837 62.942 79.2837C62.6543 79.2837 62.3616 79.2363 62.0763 79.1316L24.6351 65.3569C23.3391 64.8806 22.676 63.444 23.1539 62.1521ZM23.1539 77.1164C23.6318 75.8245 25.073 75.1685 26.3666 75.6399L63.8078 89.4146C65.1038 89.8909 65.7669 91.325 65.289 92.6194C64.9162 93.6245 63.9604 94.2481 62.942 94.2481C62.6543 94.2481 62.3616 94.2007 62.0763 94.0959L24.6351 80.3213C23.3391 79.8449 22.676 78.4083 23.1539 77.1164ZM143.434 20.6186H104.059L101.557 18.1246L103.025 16.6605C103.844 15.8475 103.994 14.5805 103.393 13.5978C102.79 12.6152 101.592 12.1712 100.493 12.5229L75.5 20.4939L13.7111 0.783396C12.9504 0.543967 12.1172 0.676152 11.4742 1.14503C10.8261 1.61392 10.4458 2.36213 10.4458 3.16023V20.6186H7.56594C3.63516 20.6186 0.4375 23.806 0.4375 27.7242V133.225C0.4375 137.143 3.63516 140.333 7.56594 140.333H143.434C147.365 140.333 150.562 137.143 150.562 133.225V27.7242C150.562 23.806 147.365 20.6186 143.434 20.6186Z" fill="#3FC9EB"/>
</svg>
