<svg width="32" height="42" viewBox="0 0 32 42" fill="none" xmlns="http://www.w3.org/2000/svg">
<path fill-rule="evenodd" clip-rule="evenodd" d="M6.81609 26.8675H25.974C28.4056 26.8675 30.395 24.878 30.395 22.4464V6.2359C30.395 3.80432 28.4056 1.81485 25.974 1.81485H6.81609C4.38452 1.81485 2.39504 3.80432 2.39504 6.2359V31.2885L6.81609 26.8675ZM17.8688 12.1304H14.9215V20.2357H17.8688V12.1304ZM16.3951 9.91997C17.209 9.91997 17.8688 9.26018 17.8688 8.44629C17.8688 7.63239 17.209 6.9726 16.3951 6.9726C15.5812 6.9726 14.9214 7.63239 14.9214 8.44629C14.9214 9.26018 15.5812 9.91997 16.3951 9.91997ZM10.4518 40.1855C9.9915 40.1855 9.58104 40.0846 9.22046 39.8828C8.85987 39.681 8.57601 39.4044 8.36886 39.0531V40.0733H7.02242V31.8892H8.5645V35.2301C8.77932 34.8788 9.05935 34.6023 9.40459 34.4005C9.7575 34.1987 10.168 34.0978 10.6359 34.0978C11.0272 34.0978 11.384 34.18 11.7062 34.3444C12.0284 34.5014 12.3046 34.7219 12.5348 35.0059C12.7726 35.2899 12.9529 35.615 13.0757 35.9813C13.2061 36.3475 13.2713 36.7399 13.2713 37.1584C13.2713 37.577 13.1984 37.9694 13.0526 38.3356C12.9145 38.7018 12.7189 39.027 12.4657 39.311C12.2126 39.5875 11.9133 39.8043 11.5681 39.9612C11.2305 40.1107 10.8584 40.1855 10.4518 40.1855ZM10.026 38.9074C10.2715 38.9074 10.494 38.8625 10.6935 38.7728C10.9006 38.6757 11.0771 38.5486 11.2229 38.3917C11.3763 38.2347 11.4914 38.0516 11.5681 37.8423C11.6525 37.6256 11.6947 37.4013 11.6947 37.1696C11.6947 36.8483 11.6256 36.553 11.4875 36.284C11.3571 36.0074 11.173 35.7869 10.9352 35.6225C10.705 35.4581 10.4326 35.3758 10.1181 35.3758C9.8956 35.3758 9.68078 35.4282 9.47364 35.5328C9.27416 35.63 9.09387 35.7645 8.93276 35.9364C8.77932 36.1083 8.65656 36.3026 8.5645 36.5194V37.9208C8.61053 38.0703 8.68342 38.2048 8.78315 38.3244C8.89056 38.444 9.01331 38.5486 9.15141 38.6383C9.28951 38.7205 9.43144 38.7878 9.57721 38.8401C9.73065 38.885 9.88025 38.9074 10.026 38.9074ZM0 38.3356C0 37.9544 0.107408 37.6218 0.322225 37.3378C0.544714 37.0463 0.851595 36.8221 1.24287 36.6651C1.63414 36.5082 2.08296 36.4297 2.58931 36.4297C2.84249 36.4297 3.0995 36.4484 3.36035 36.4858C3.6212 36.5231 3.84752 36.5829 4.03932 36.6651V36.3512C4.03932 35.9775 3.92424 35.6898 3.69408 35.488C3.47159 35.2862 3.13786 35.1853 2.69288 35.1853C2.36298 35.1853 2.04843 35.2413 1.74922 35.3534C1.45001 35.4655 1.13546 35.63 0.805563 35.8467L0.310717 34.8601C0.709663 34.606 1.11628 34.4154 1.53057 34.2884C1.95253 34.1613 2.39367 34.0978 2.85399 34.0978C3.71326 34.0978 4.38073 34.307 4.85639 34.7256C5.33973 35.1441 5.5814 35.7421 5.5814 36.5194V38.3917C5.5814 38.5486 5.60825 38.6607 5.66196 38.728C5.72333 38.7953 5.81923 38.8364 5.94966 38.8513V40.0733C5.81156 40.0958 5.68497 40.1145 5.56989 40.1294C5.46248 40.1443 5.37042 40.1518 5.2937 40.1518C4.98682 40.1518 4.75282 40.0846 4.59171 39.95C4.43827 39.8155 4.34237 39.6511 4.30401 39.4567L4.26948 39.154C4.00863 39.4829 3.68257 39.737 3.2913 39.9164C2.90003 40.0958 2.50108 40.1855 2.09446 40.1855C1.69552 40.1855 1.33493 40.107 1.01271 39.95C0.698155 39.7856 0.448814 39.5651 0.264685 39.2886C0.0882283 39.0045 0 38.6869 0 38.3356ZM3.75162 38.6383C3.83601 38.5486 3.90506 38.4589 3.95877 38.3692C4.01247 38.2796 4.03932 38.1973 4.03932 38.1226V37.5284C3.85519 37.4537 3.65572 37.3976 3.4409 37.3602C3.22609 37.3154 3.02278 37.293 2.83098 37.293C2.43203 37.293 2.10214 37.3789 1.84129 37.5508C1.58811 37.7153 1.46152 37.9357 1.46152 38.2123C1.46152 38.3618 1.50372 38.5038 1.58811 38.6383C1.6725 38.7728 1.79525 38.8812 1.95637 38.9634C2.11748 39.0457 2.30928 39.0868 2.53177 39.0868C2.76193 39.0868 2.98825 39.0457 3.21074 38.9634C3.43323 38.8737 3.61352 38.7654 3.75162 38.6383ZM15.7776 39.95C16.1689 40.107 16.61 40.1855 17.101 40.1855C17.592 40.1855 18.0332 40.107 18.4245 39.95C18.8157 39.7856 19.1456 39.5614 19.4142 39.2773C19.6903 38.9933 19.8975 38.6682 20.0356 38.302C20.1814 37.9357 20.2542 37.5508 20.2542 37.1472C20.2542 36.7361 20.1814 36.3475 20.0356 35.9813C19.8975 35.615 19.6903 35.2899 19.4142 35.0059C19.138 34.7219 18.8042 34.5014 18.413 34.3444C18.0294 34.18 17.592 34.0978 17.101 34.0978C16.61 34.0978 16.1689 34.18 15.7776 34.3444C15.3863 34.5014 15.0526 34.7219 14.7764 35.0059C14.5079 35.2899 14.3007 35.615 14.155 35.9813C14.0092 36.3475 13.9363 36.7361 13.9363 37.1472C13.9363 37.5508 14.0092 37.9357 14.155 38.302C14.3007 38.6682 14.5079 38.9933 14.7764 39.2773C15.0526 39.5614 15.3863 39.7856 15.7776 39.95ZM15.7316 38.0665C15.5935 37.7975 15.5244 37.491 15.5244 37.1472C15.5244 36.8034 15.5935 36.5007 15.7316 36.2391C15.8697 35.97 16.0576 35.7608 16.2955 35.6113C16.5333 35.4543 16.8018 35.3758 17.101 35.3758C17.3926 35.3758 17.6573 35.4506 17.8951 35.6001C18.1329 35.7496 18.3209 35.9588 18.459 36.2279C18.6048 36.497 18.6776 36.7997 18.6776 37.136C18.6776 37.4798 18.6048 37.7863 18.459 38.0553C18.3209 38.3169 18.1329 38.5262 17.8951 38.6832C17.6573 38.8326 17.3926 38.9074 17.101 38.9074C16.8018 38.9074 16.5333 38.8326 16.2955 38.6832C16.0576 38.5337 15.8697 38.3281 15.7316 38.0665ZM21.2376 37.8759V34.1987H22.7796V37.5508C22.7796 37.9993 22.864 38.3393 23.0328 38.571C23.2016 38.7953 23.4509 38.9074 23.7808 38.9074C23.9803 38.9074 24.1759 38.87 24.3677 38.7953C24.5672 38.7131 24.7475 38.5935 24.9086 38.4365C25.0774 38.2795 25.2193 38.0815 25.3344 37.8423V34.1987H26.8765V38.3917C26.8765 38.5486 26.9033 38.6607 26.957 38.728C27.0184 38.7953 27.1143 38.8364 27.2447 38.8513V40.0733C27.0913 40.0958 26.9609 40.1107 26.8535 40.1182C26.7537 40.1331 26.6617 40.1406 26.5773 40.1406C26.3011 40.1406 26.0748 40.0808 25.8983 39.9612C25.7295 39.8342 25.6298 39.6623 25.5991 39.4455L25.5646 38.9746C25.2961 39.3708 24.9508 39.6735 24.5289 39.8828C24.1069 40.0846 23.6427 40.1855 23.1364 40.1855C22.5149 40.1855 22.0431 39.9911 21.7209 39.6025C21.3987 39.2063 21.2376 38.6308 21.2376 37.8759ZM31.5282 39.95C31.7123 39.8828 31.8696 39.823 32 39.7706L31.6893 38.5823C31.5972 38.6196 31.4745 38.6645 31.321 38.7168C31.1676 38.7691 31.0103 38.7953 30.8492 38.7953C30.6881 38.7953 30.5538 38.7504 30.4464 38.6607C30.339 38.571 30.2815 38.4253 30.2738 38.2235V35.3534H31.5397V34.1987H30.2738V32.2928H28.7317V34.1987H27.9377V35.3534H28.7317V38.728C28.7317 39.0718 28.8008 39.3521 28.9389 39.5688C29.0846 39.7781 29.2764 39.9313 29.5143 40.0285C29.7521 40.1257 30.0129 40.1742 30.2968 40.1742C30.5116 40.1742 30.7226 40.1518 30.9297 40.107C31.1446 40.0696 31.344 40.0173 31.5282 39.95Z" fill="#F6FEFF"/>
</svg>
