<svg width="48" height="48" viewBox="0 0 48 48" fill="none" xmlns="http://www.w3.org/2000/svg">
<circle cx="24" cy="24" r="24" fill="#F6FEFF"/>
<path fill-rule="evenodd" clip-rule="evenodd" d="M17.5185 27.2593H31.4815C33.2537 27.2593 34.7037 25.8093 34.7037 24.037V12.2222C34.7037 10.45 33.2537 9 31.4815 9H17.5185C15.7463 9 14.2963 10.45 14.2963 12.2222V30.4815L17.5185 27.2593ZM25.5741 16.5184H23.4259V22.4258H25.5741V16.5184ZM24.5 14.9073C25.0932 14.9073 25.5741 14.4264 25.5741 13.8332C25.5741 13.24 25.0932 12.7591 24.5 12.7591C23.9068 12.7591 23.4259 13.24 23.4259 13.8332C23.4259 14.4264 23.9068 14.9073 24.5 14.9073ZM20.3389 37.778C19.9936 37.778 19.6858 37.7023 19.4153 37.5509C19.1449 37.3996 18.932 37.1922 18.7766 36.9287V37.6939H17.7668V31.5557H18.9234V34.0614C19.0845 33.798 19.2945 33.5906 19.5534 33.4392C19.8181 33.2879 20.126 33.2122 20.477 33.2122C20.7704 33.2122 21.038 33.2739 21.2796 33.3972C21.5213 33.5149 21.7285 33.6803 21.9011 33.8933C22.0795 34.1063 22.2147 34.3501 22.3067 34.6248C22.4046 34.8995 22.4535 35.1938 22.4535 35.5077C22.4535 35.8216 22.3988 36.1159 22.2895 36.3906C22.1859 36.6652 22.0392 36.9091 21.8493 37.1221C21.6594 37.3295 21.435 37.4921 21.1761 37.6098C20.9229 37.7219 20.6438 37.778 20.3389 37.778ZM20.0195 36.8194C20.2036 36.8194 20.3705 36.7858 20.5201 36.7185C20.6755 36.6456 20.8078 36.5503 20.9171 36.4326C21.0322 36.3149 21.1185 36.1776 21.1761 36.0206C21.2394 35.858 21.271 35.6899 21.271 35.5161C21.271 35.2751 21.2192 35.0536 21.1157 34.8518C21.0178 34.6444 20.8797 34.4791 20.7014 34.3557C20.5287 34.2324 20.3245 34.1707 20.0886 34.1707C19.9217 34.1707 19.7606 34.21 19.6052 34.2885C19.4556 34.3613 19.3204 34.4622 19.1996 34.5912C19.0845 34.7201 18.9924 34.8658 18.9234 35.0284V36.0795C18.9579 36.1916 19.0126 36.2925 19.0874 36.3822C19.1679 36.4718 19.26 36.5503 19.3636 36.6176C19.4671 36.6793 19.5736 36.7297 19.6829 36.7689C19.798 36.8026 19.9102 36.8194 20.0195 36.8194ZM12.5 36.3906C12.5 36.1047 12.5806 35.8552 12.7417 35.6422C12.9085 35.4236 13.1387 35.2554 13.4322 35.1377C13.7256 35.02 14.0622 34.9611 14.442 34.9611C14.6319 34.9611 14.8246 34.9752 15.0203 35.0032C15.2159 35.0312 15.3856 35.0761 15.5295 35.1377V34.9023C15.5295 34.622 15.4432 34.4062 15.2706 34.2548C15.1037 34.1035 14.8534 34.0278 14.5197 34.0278C14.2722 34.0278 14.0363 34.0698 13.8119 34.1539C13.5875 34.238 13.3516 34.3613 13.1042 34.5239L12.733 33.784C13.0322 33.5934 13.3372 33.4504 13.6479 33.3551C13.9644 33.2598 14.2953 33.2122 14.6405 33.2122C15.2849 33.2122 15.7855 33.3691 16.1423 33.6831C16.5048 33.997 16.6861 34.4454 16.6861 35.0284V36.4326C16.6861 36.5503 16.7062 36.6344 16.7465 36.6849C16.7925 36.7353 16.8644 36.7661 16.9622 36.7774V37.6939C16.8587 37.7107 16.7637 37.7247 16.6774 37.7359C16.5969 37.7471 16.5278 37.7527 16.4703 37.7527C16.2401 37.7527 16.0646 37.7023 15.9438 37.6014C15.8287 37.5005 15.7568 37.3772 15.728 37.2314L15.7021 37.0044C15.5065 37.251 15.2619 37.4416 14.9685 37.5762C14.675 37.7107 14.3758 37.778 14.0708 37.778C13.7716 37.778 13.5012 37.7191 13.2595 37.6014C13.0236 37.4781 12.8366 37.3127 12.6985 37.1053C12.5662 36.8923 12.5 36.654 12.5 36.3906ZM15.3137 36.6176C15.377 36.5503 15.4288 36.4831 15.4691 36.4158C15.5094 36.3485 15.5295 36.2869 15.5295 36.2308V35.7852C15.3914 35.7291 15.2418 35.6871 15.0807 35.659C14.9196 35.6254 14.7671 35.6086 14.6232 35.6086C14.324 35.6086 14.0766 35.673 13.881 35.802C13.6911 35.9253 13.5961 36.0907 13.5961 36.2981C13.5961 36.4102 13.6278 36.5167 13.6911 36.6176C13.7544 36.7185 13.8464 36.7998 13.9673 36.8614C14.0881 36.9231 14.232 36.9539 14.3988 36.9539C14.5714 36.9539 14.7412 36.9231 14.9081 36.8614C15.0749 36.7942 15.2101 36.7129 15.3137 36.6176ZM24.3332 37.6014C24.6267 37.7191 24.9575 37.778 25.3258 37.778C25.694 37.778 26.0249 37.7191 26.3183 37.6014C26.6118 37.4781 26.8592 37.3099 27.0606 37.0969C27.2678 36.8839 27.4231 36.64 27.5267 36.3653C27.636 36.0907 27.6907 35.802 27.6907 35.4993C27.6907 35.191 27.636 34.8995 27.5267 34.6248C27.4231 34.3501 27.2678 34.1063 27.0606 33.8933C26.8535 33.6803 26.6032 33.5149 26.3097 33.3972C26.022 33.2739 25.694 33.2122 25.3258 33.2122C24.9575 33.2122 24.6267 33.2739 24.3332 33.3972C24.0398 33.5149 23.7895 33.6803 23.5823 33.8933C23.3809 34.1063 23.2256 34.3501 23.1162 34.6248C23.0069 34.8995 22.9522 35.191 22.9522 35.4993C22.9522 35.802 23.0069 36.0907 23.1162 36.3653C23.2256 36.64 23.3809 36.8839 23.5823 37.0969C23.7895 37.3099 24.0398 37.4781 24.3332 37.6014ZM24.2987 36.1888C24.1951 35.987 24.1433 35.7571 24.1433 35.4993C24.1433 35.2414 24.1951 35.0144 24.2987 34.8182C24.4023 34.6164 24.5432 34.4594 24.7216 34.3473C24.9 34.2296 25.1014 34.1707 25.3258 34.1707C25.5444 34.1707 25.7429 34.2268 25.9213 34.3389C26.0997 34.451 26.2407 34.608 26.3442 34.8098C26.4536 35.0116 26.5082 35.2386 26.5082 35.4909C26.5082 35.7487 26.4536 35.9786 26.3442 36.1804C26.2407 36.3766 26.0997 36.5335 25.9213 36.6512C25.7429 36.7633 25.5444 36.8194 25.3258 36.8194C25.1014 36.8194 24.9 36.7633 24.7216 36.6512C24.5432 36.5391 24.4023 36.385 24.2987 36.1888ZM28.4282 36.0458V33.2879H29.5847V35.802C29.5847 36.1383 29.648 36.3934 29.7746 36.5671C29.9012 36.7353 30.0882 36.8194 30.3356 36.8194C30.4852 36.8194 30.632 36.7914 30.7758 36.7353C30.9254 36.6737 31.0606 36.584 31.1815 36.4662C31.3081 36.3485 31.4145 36.2 31.5008 36.0206V33.2879H32.6574V36.4326C32.6574 36.5503 32.6775 36.6344 32.7178 36.6849C32.7638 36.7353 32.8357 36.7661 32.9336 36.7774V37.6939C32.8185 37.7107 32.7207 37.7219 32.6401 37.7275C32.5653 37.7387 32.4963 37.7443 32.433 37.7443C32.2258 37.7443 32.0561 37.6995 31.9237 37.6098C31.7971 37.5145 31.7223 37.3856 31.6993 37.223L31.6734 36.8698C31.472 37.1669 31.2131 37.394 30.8966 37.5509C30.5802 37.7023 30.232 37.778 29.8523 37.778C29.3862 37.778 29.0323 37.6322 28.7907 37.3407C28.549 37.0436 28.4282 36.612 28.4282 36.0458ZM36.1461 37.6014C36.2842 37.5509 36.4022 37.5061 36.5 37.4668L36.267 36.5756C36.1979 36.6036 36.1058 36.6372 35.9908 36.6765C35.8757 36.7157 35.7577 36.7353 35.6369 36.7353C35.5161 36.7353 35.4154 36.7017 35.3348 36.6344C35.2543 36.5671 35.2111 36.4578 35.2053 36.3065V34.1539H36.1548V33.2879H35.2053V31.8584H34.0488V33.2879H33.4532V34.1539H34.0488V36.6849C34.0488 36.9427 34.1006 37.1529 34.2041 37.3155C34.3135 37.4724 34.4573 37.5874 34.6357 37.6602C34.8141 37.7331 35.0097 37.7695 35.2226 37.7695C35.3837 37.7695 35.542 37.7527 35.6973 37.7191C35.8584 37.6911 36.008 37.6518 36.1461 37.6014Z" fill="#3FC9EB"/>
</svg>
