<svg width="48" height="48" viewBox="0 0 48 48" fill="none" xmlns="http://www.w3.org/2000/svg">
<circle cx="24" cy="24" r="24" fill="#F6FEFF"/>
<path d="M36.1889 20.3726L25.3901 8.86424C24.9354 8.37859 24.0619 8.37859 23.6071 8.86424L12.8083 20.3726C12.6529 20.5378 12.5509 20.7428 12.5147 20.9627C12.4785 21.1825 12.5096 21.4077 12.6044 21.6109C12.7963 22.0263 13.2259 22.2933 13.6998 22.2933H16.0996V30.3492C16.0996 30.6544 16.226 30.9471 16.451 31.1629C16.676 31.3788 16.9812 31.5 17.2994 31.5H20.899C21.2173 31.5 21.5225 31.3788 21.7475 31.1629C21.9725 30.9471 22.0989 30.6544 22.0989 30.3492V25.7458H26.8984V30.3492C26.8984 30.6544 27.0248 30.9471 27.2498 31.1629C27.4748 31.3788 27.78 31.5 28.0982 31.5H31.6978C32.0161 31.5 32.3213 31.3788 32.5463 31.1629C32.7713 30.9471 32.8977 30.6544 32.8977 30.3492V22.2933H35.2974C35.5298 22.2943 35.7574 22.2304 35.9526 22.1094C36.1478 21.9884 36.302 21.8155 36.3965 21.6119C36.491 21.4083 36.5217 21.1827 36.4848 20.9626C36.448 20.7426 36.3452 20.5376 36.1889 20.3726Z" fill="#3FC9EB"/>
<path d="M17.8482 37.9189H16.7893V35.5351C16.7893 35.2054 16.7261 34.9595 16.5997 34.7973C16.4785 34.6351 16.31 34.5541 16.094 34.5541C15.9675 34.5541 15.8332 34.5919 15.691 34.6676C15.5488 34.7432 15.4197 34.8486 15.3038 34.9838C15.1932 35.1135 15.1115 35.2649 15.0588 35.4378V37.9189H14V32H15.0588V34.4568C15.2116 34.1865 15.4197 33.9757 15.6831 33.8243C15.9465 33.673 16.2336 33.5973 16.5444 33.5973C16.813 33.5973 17.0317 33.6459 17.2002 33.7432C17.3688 33.8351 17.5005 33.9622 17.5953 34.1243C17.6901 34.2811 17.756 34.4595 17.7929 34.6595C17.8297 34.8541 17.8482 35.0568 17.8482 35.2676V37.9189Z" fill="#3FC9EB"/>
<path d="M20.6811 38C20.3439 38 20.041 37.9432 19.7724 37.8297C19.5037 37.7108 19.2746 37.5486 19.0849 37.3432C18.9006 37.1378 18.7583 36.9027 18.6582 36.6378C18.5581 36.373 18.5081 36.0946 18.5081 35.8027C18.5081 35.5054 18.5581 35.2243 18.6582 34.9595C18.7583 34.6946 18.9006 34.4595 19.0849 34.2541C19.2746 34.0486 19.5037 33.8892 19.7724 33.7757C20.041 33.6568 20.3439 33.5973 20.6811 33.5973C21.0182 33.5973 21.3185 33.6568 21.5819 33.7757C21.8506 33.8892 22.0797 34.0486 22.2693 34.2541C22.459 34.4595 22.6012 34.6946 22.696 34.9595C22.7961 35.2243 22.8462 35.5054 22.8462 35.8027C22.8462 36.0946 22.7961 36.373 22.696 36.6378C22.6012 36.9027 22.459 37.1378 22.2693 37.3432C22.085 37.5486 21.8585 37.7108 21.5898 37.8297C21.3211 37.9432 21.0182 38 20.6811 38ZM19.5985 35.8027C19.5985 36.0514 19.646 36.273 19.7408 36.4676C19.8356 36.6568 19.9647 36.8054 20.128 36.9135C20.2913 37.0216 20.4756 37.0757 20.6811 37.0757C20.8813 37.0757 21.063 37.0216 21.2263 36.9135C21.3896 36.8 21.5187 36.6486 21.6135 36.4595C21.7136 36.2649 21.7636 36.0432 21.7636 35.7946C21.7636 35.5514 21.7136 35.3324 21.6135 35.1378C21.5187 34.9432 21.3896 34.7919 21.2263 34.6838C21.063 34.5757 20.8813 34.5216 20.6811 34.5216C20.4756 34.5216 20.2913 34.5784 20.128 34.6919C19.9647 34.8 19.8356 34.9514 19.7408 35.1459C19.646 35.3351 19.5985 35.5541 19.5985 35.8027Z" fill="#3FC9EB"/>
<path d="M29.9929 37.9189H28.9341V35.5351C28.9341 35.2 28.8761 34.9541 28.7602 34.7973C28.6496 34.6351 28.4942 34.5541 28.294 34.5541C28.0886 34.5541 27.891 34.6378 27.7014 34.8054C27.517 34.9676 27.3853 35.1811 27.3063 35.4459V37.9189H26.2475V35.5351C26.2475 35.1946 26.1895 34.9459 26.0736 34.7892C25.963 34.6324 25.8076 34.5541 25.6074 34.5541C25.402 34.5541 25.2044 34.6351 25.0148 34.7973C24.8304 34.9595 24.6987 35.173 24.6197 35.4378V37.9189H23.5609V33.6703H24.517V34.4568C24.675 34.1811 24.8857 33.9703 25.1491 33.8243C25.4125 33.673 25.7154 33.5973 26.0578 33.5973C26.4002 33.5973 26.6663 33.6838 26.8559 33.8568C27.0508 34.0297 27.1746 34.2432 27.2273 34.4973C27.3959 34.2054 27.6092 33.9838 27.8673 33.8324C28.1307 33.6757 28.4257 33.5973 28.7523 33.5973C29.0105 33.5973 29.2185 33.6459 29.3766 33.7432C29.5399 33.8351 29.6663 33.9622 29.7559 34.1243C29.8454 34.2811 29.906 34.4595 29.9376 34.6595C29.9745 34.8595 29.9929 35.0622 29.9929 35.2676V37.9189Z" fill="#3FC9EB"/>
<path d="M32.8349 38C32.503 38 32.2028 37.9432 31.9341 37.8297C31.6654 37.7108 31.4363 37.5514 31.2466 37.3514C31.057 37.1459 30.9095 36.9135 30.8041 36.6541C30.7041 36.3892 30.654 36.1108 30.654 35.8189C30.654 35.4135 30.7409 35.0432 30.9148 34.7081C31.0939 34.373 31.3467 34.1054 31.6733 33.9054C32.0052 33.7 32.395 33.5973 32.8428 33.5973C33.2958 33.5973 33.683 33.7 34.0044 33.9054C34.3257 34.1054 34.5707 34.373 34.7392 34.7081C34.9131 35.0378 35 35.3946 35 35.7784C35 35.8432 34.9974 35.9108 34.9921 35.9811C34.9868 36.0459 34.9816 36.1 34.9763 36.1432H31.7761C31.7971 36.3595 31.8577 36.5486 31.9578 36.7108C32.0632 36.873 32.1949 36.9973 32.3529 37.0838C32.5162 37.1649 32.69 37.2054 32.8744 37.2054C33.0851 37.2054 33.2827 37.1541 33.4671 37.0514C33.6567 36.9432 33.7858 36.8027 33.8542 36.6297L34.7629 36.8892C34.6629 37.1054 34.518 37.2973 34.3283 37.4649C34.144 37.6324 33.9254 37.7649 33.6725 37.8622C33.4196 37.9541 33.1404 38 32.8349 38ZM31.7524 35.4541H33.9175C33.8964 35.2378 33.8358 35.0514 33.7357 34.8946C33.6409 34.7324 33.5145 34.6081 33.3564 34.5216C33.1984 34.4297 33.0219 34.3838 32.827 34.3838C32.6374 34.3838 32.4635 34.4297 32.3055 34.5216C32.1527 34.6081 32.0263 34.7324 31.9262 34.8946C31.8314 35.0514 31.7734 35.2378 31.7524 35.4541Z" fill="#3FC9EB"/>
</svg>
