<svg width="48" height="48" viewBox="0 0 48 48" fill="none" xmlns="http://www.w3.org/2000/svg">
<circle cx="24" cy="24" r="24" fill="#F6FEFF"/>
<g clip-path="url(#clip0_102_2424)">
<path fill-rule="evenodd" clip-rule="evenodd" d="M20 10H32C33.103 10 34 10.897 34 12V20C34 21.103 33.103 22 32 22V14C32 12.897 31.103 12 30 12H18C18 10.897 18.897 10 20 10ZM18 25.9998H16C14.897 25.9998 14 25.1028 14 23.9998V15.9998C14 14.8968 14.897 13.9998 16 13.9998H28C29.103 13.9998 30 14.8968 30 15.9998V23.9998C30 25.1028 29.103 25.9998 28 25.9998H23.101L18 30.0808V25.9998Z" fill="#3FC9EB"/>
</g>
<path d="M18.1264 38.0811C17.7988 38.0811 17.5046 38.0243 17.2436 37.9108C16.9826 37.7919 16.76 37.6297 16.5757 37.4243C16.3915 37.2135 16.2482 36.9756 16.1459 36.7108C16.0486 36.4459 16 36.1675 16 35.8756C16 35.4756 16.0844 35.1108 16.2533 34.7811C16.4273 34.4459 16.673 34.1784 16.9903 33.9784C17.3076 33.7784 17.6837 33.6784 18.1187 33.6784C18.5537 33.6784 18.9273 33.7784 19.2395 33.9784C19.5516 34.1784 19.7845 34.4405 19.938 34.7648L18.9324 35.0892C18.8454 34.9324 18.7302 34.8135 18.587 34.7324C18.4437 34.6459 18.285 34.6027 18.111 34.6027C17.9165 34.6027 17.7374 34.6567 17.5737 34.7648C17.415 34.8675 17.2896 35.0162 17.1975 35.2108C17.1054 35.4 17.0593 35.6216 17.0593 35.8756C17.0593 36.1243 17.1054 36.3459 17.1975 36.5405C17.2948 36.7297 17.4227 36.8811 17.5813 36.9946C17.74 37.1027 17.9165 37.1567 18.111 37.1567C18.2338 37.1567 18.349 37.1351 18.4565 37.0919C18.569 37.0486 18.6688 36.9892 18.7558 36.9135C18.8428 36.8378 18.9068 36.7513 18.9477 36.654L19.9534 36.9784C19.8612 37.1892 19.7256 37.3784 19.5465 37.5459C19.3725 37.7135 19.1652 37.8459 18.9247 37.9432C18.6893 38.0351 18.4232 38.0811 18.1264 38.0811Z" fill="#3FC9EB"/>
<path d="M24.3247 38H23.2961V35.6162C23.2961 35.2865 23.2347 35.0405 23.1118 34.8784C22.9941 34.7162 22.8304 34.6351 22.6206 34.6351C22.4977 34.6351 22.3672 34.6729 22.2291 34.7486C22.0909 34.8243 21.9655 34.9297 21.8529 35.0648C21.7454 35.1946 21.6661 35.3459 21.6149 35.5189V38H20.5863V32.0811H21.6149V34.5378C21.7634 34.2675 21.9655 34.0567 22.2214 33.9054C22.4773 33.754 22.7562 33.6784 23.0581 33.6784C23.3191 33.6784 23.5315 33.727 23.6953 33.8243C23.859 33.9162 23.987 34.0432 24.0791 34.2054C24.1712 34.3621 24.2352 34.5405 24.271 34.7405C24.3068 34.9351 24.3247 35.1378 24.3247 35.3486V38Z" fill="#3FC9EB"/>
<path d="M24.9428 36.7432C24.9428 36.4675 25.0144 36.227 25.1577 36.0216C25.3061 35.8108 25.5108 35.6486 25.7718 35.5351C26.0328 35.4216 26.3322 35.3648 26.67 35.3648C26.8389 35.3648 27.0103 35.3784 27.1843 35.4054C27.3583 35.4324 27.5093 35.4756 27.6372 35.5351V35.3081C27.6372 35.0378 27.5605 34.8297 27.4069 34.6838C27.2585 34.5378 27.0359 34.4648 26.7391 34.4648C26.519 34.4648 26.3092 34.5054 26.1096 34.5865C25.91 34.6675 25.7002 34.7865 25.4801 34.9432L25.1501 34.2297C25.4162 34.0459 25.6874 33.9081 25.9638 33.8162C26.2452 33.7243 26.5395 33.6784 26.8465 33.6784C27.4197 33.6784 27.8649 33.8297 28.1822 34.1324C28.5047 34.4351 28.6659 34.8675 28.6659 35.4297V36.7838C28.6659 36.8973 28.6838 36.9784 28.7196 37.027C28.7605 37.0756 28.8245 37.1054 28.9115 37.1162V38C28.8194 38.0162 28.7349 38.0297 28.6582 38.0405C28.5865 38.0513 28.5251 38.0567 28.4739 38.0567C28.2692 38.0567 28.1132 38.0081 28.0057 37.9108C27.9033 37.8135 27.8394 37.6946 27.8138 37.554L27.7907 37.3351C27.6167 37.5729 27.3992 37.7567 27.1382 37.8865C26.8772 38.0162 26.6111 38.0811 26.3399 38.0811C26.0738 38.0811 25.8333 38.0243 25.6183 37.9108C25.4085 37.7919 25.2422 37.6324 25.1193 37.4324C25.0016 37.227 24.9428 36.9973 24.9428 36.7432ZM27.4453 36.9621C27.5016 36.8973 27.5477 36.8324 27.5835 36.7675C27.6193 36.7027 27.6372 36.6432 27.6372 36.5892V36.1594C27.5144 36.1054 27.3813 36.0648 27.238 36.0378C27.0947 36.0054 26.9591 35.9892 26.8312 35.9892C26.5651 35.9892 26.345 36.0513 26.171 36.1756C26.0021 36.2946 25.9177 36.454 25.9177 36.654C25.9177 36.7621 25.9458 36.8648 26.0021 36.9621C26.0584 37.0594 26.1403 37.1378 26.2478 37.1973C26.3553 37.2567 26.4832 37.2865 26.6316 37.2865C26.7851 37.2865 26.9361 37.2567 27.0845 37.1973C27.2329 37.1324 27.3532 37.054 27.4453 36.9621Z" fill="#3FC9EB"/>
<path d="M32 37.7811C31.913 37.8189 31.8081 37.8621 31.6853 37.9108C31.5624 37.9594 31.4294 37.9973 31.2861 38.0243C31.1479 38.0567 31.0072 38.0729 30.8639 38.0729C30.6745 38.0729 30.5005 38.0378 30.3419 37.9675C30.1832 37.8973 30.0553 37.7865 29.9581 37.6351C29.866 37.4784 29.8199 37.2756 29.8199 37.027V34.5865H29.2902V33.7513H29.8199V32.3729H30.8485V33.7513H31.6929V34.5865H30.8485V36.6621C30.8537 36.8081 30.892 36.9135 30.9637 36.9784C31.0353 37.0432 31.1249 37.0756 31.2324 37.0756C31.3398 37.0756 31.4447 37.0567 31.5471 37.0189C31.6494 36.9811 31.7313 36.9486 31.7927 36.9216L32 37.7811Z" fill="#3FC9EB"/>
<defs>
<clipPath id="clip0_102_2424">
<rect width="20" height="20.0808" fill="white" transform="translate(14 10)"/>
</clipPath>
</defs>
</svg>
