<svg width="48" height="48" viewBox="0 0 48 48" fill="none" xmlns="http://www.w3.org/2000/svg">
<circle cx="24" cy="24" r="24" fill="#F6FEFF"/>
<g clip-path="url(#clip0_102_2400)">
<path d="M24 8C25.3261 8 26.5979 8.52678 27.5355 9.46447C28.4732 10.4021 29 11.6739 29 13C29 14.3261 28.4732 15.5979 27.5355 16.5355C26.5979 17.4732 25.3261 18 24 18C22.6739 18 21.4021 17.4732 20.4645 16.5355C19.5268 15.5979 19 14.3261 19 13C19 11.6739 19.5268 10.4021 20.4645 9.46447C21.4021 8.52678 22.6739 8 24 8ZM24 20.5C29.525 20.5 34 22.7375 34 25.5V28H14V25.5C14 22.7375 18.475 20.5 24 20.5Z" fill="#3FC9EB"/>
</g>
<path d="M14.497 35.9643C14.1736 35.9643 13.8874 35.8927 13.6382 35.7495C13.3943 35.6011 13.2035 35.4023 13.0656 35.1531V37.5786H12V31.7177H12.9304V32.4334C13.0895 32.1895 13.2909 31.9987 13.5348 31.8608C13.7787 31.7177 14.057 31.6461 14.3698 31.6461C14.6508 31.6461 14.9079 31.7018 15.1412 31.8131C15.3797 31.9245 15.5865 32.0809 15.7615 32.2823C15.9364 32.4785 16.0716 32.7064 16.167 32.9662C16.2678 33.2207 16.3181 33.4964 16.3181 33.7933C16.3181 34.1962 16.2386 34.562 16.0796 34.8907C15.9258 35.2194 15.7111 35.4818 15.4354 35.678C15.165 35.8688 14.8522 35.9643 14.497 35.9643ZM14.1392 35.0577C14.3035 35.0577 14.452 35.0232 14.5845 34.9543C14.7171 34.8854 14.831 34.7926 14.9265 34.676C15.0272 34.554 15.1014 34.4189 15.1491 34.2704C15.2021 34.1167 15.2287 33.9576 15.2287 33.7933C15.2287 33.6183 15.1995 33.4566 15.1412 33.3082C15.0882 33.1597 15.0086 33.0298 14.9026 32.9185C14.7966 32.8019 14.672 32.7118 14.5288 32.6481C14.391 32.5845 14.2399 32.5527 14.0756 32.5527C13.9748 32.5527 13.8715 32.5713 13.7654 32.6084C13.6647 32.6402 13.5666 32.6879 13.4712 32.7515C13.3758 32.8151 13.2909 32.8894 13.2167 32.9742C13.1478 33.059 13.0974 33.1518 13.0656 33.2525V34.2306C13.1292 34.3844 13.2141 34.5249 13.3201 34.6521C13.4314 34.7794 13.5587 34.8801 13.7018 34.9543C13.8449 35.0232 13.9907 35.0577 14.1392 35.0577Z" fill="#3FC9EB"/>
<path d="M19.5212 32.6402C19.1978 32.6402 18.9089 32.7038 18.6544 32.831C18.4 32.953 18.2171 33.1306 18.1057 33.3638V35.8847H17.0401V31.7177H18.0182V32.6084C18.1667 32.3221 18.3549 32.0968 18.5829 31.9324C18.8108 31.7681 19.0521 31.6779 19.3065 31.662C19.3648 31.662 19.4099 31.662 19.4417 31.662C19.4735 31.662 19.5 31.6647 19.5212 31.67V32.6402Z" fill="#3FC9EB"/>
<path d="M21.9855 35.9643C21.6462 35.9643 21.3414 35.9086 21.071 35.7973C20.8006 35.6806 20.57 35.5216 20.3792 35.3201C20.1936 35.1187 20.0505 34.888 19.9497 34.6283C19.849 34.3685 19.7986 34.0955 19.7986 33.8092C19.7986 33.5176 19.849 33.2419 19.9497 32.9821C20.0505 32.7224 20.1936 32.4917 20.3792 32.2903C20.57 32.0888 20.8006 31.9324 21.071 31.8211C21.3414 31.7045 21.6462 31.6461 21.9855 31.6461C22.3248 31.6461 22.627 31.7045 22.8921 31.8211C23.1625 31.9324 23.3931 32.0888 23.584 32.2903C23.7748 32.4917 23.918 32.7224 24.0134 32.9821C24.1141 33.2419 24.1645 33.5176 24.1645 33.8092C24.1645 34.0955 24.1141 34.3685 24.0134 34.6283C23.918 34.888 23.7748 35.1187 23.584 35.3201C23.3984 35.5216 23.1704 35.6806 22.9001 35.7973C22.6297 35.9086 22.3248 35.9643 21.9855 35.9643ZM20.8961 33.8092C20.8961 34.053 20.9438 34.2704 21.0392 34.4613C21.1346 34.6468 21.2645 34.7926 21.4289 34.8986C21.5932 35.0047 21.7788 35.0577 21.9855 35.0577C22.187 35.0577 22.3699 35.0047 22.5343 34.8986C22.6986 34.7873 22.8285 34.6389 22.9239 34.4533C23.0246 34.2625 23.075 34.0451 23.075 33.8012C23.075 33.5627 23.0246 33.3479 22.9239 33.1571C22.8285 32.9662 22.6986 32.8178 22.5343 32.7118C22.3699 32.6057 22.187 32.5527 21.9855 32.5527C21.7788 32.5527 21.5932 32.6084 21.4289 32.7197C21.2645 32.8257 21.1346 32.9742 21.0392 33.165C20.9438 33.3506 20.8961 33.5653 20.8961 33.8092Z" fill="#3FC9EB"/>
<path d="M25.0994 32.7515H24.5507V31.9404H25.0994V31.6859C25.0994 31.4526 25.1365 31.2353 25.2107 31.0338C25.2902 30.8323 25.4016 30.6547 25.5447 30.501C25.6932 30.342 25.8708 30.22 26.0775 30.1352C26.2896 30.0451 26.5282 30 26.7932 30C26.9947 30 27.1829 30.0212 27.3578 30.0636C27.5381 30.106 27.7078 30.167 27.8668 30.2465C28.0311 30.326 28.1875 30.4162 28.336 30.5169L27.9145 31.3121C27.7767 31.1902 27.615 31.0921 27.4294 31.0179C27.2439 30.9437 27.0557 30.9066 26.8648 30.9066C26.7111 30.9066 26.5812 30.941 26.4751 31.0099C26.3691 31.0789 26.2896 31.169 26.2366 31.2803C26.1889 31.3917 26.165 31.5136 26.165 31.6461V31.9404H28.3996V35.8847H27.334V32.7515H26.165V35.8847H25.0994V32.7515Z" fill="#3FC9EB"/>
<path d="M29.3567 30.0795H30.4224V34.5487C30.4224 34.7396 30.4542 34.8695 30.5178 34.9384C30.5814 35.002 30.6689 35.0338 30.7802 35.0338C30.865 35.0338 30.9525 35.0232 31.0426 35.002C31.1328 34.9808 31.2123 34.9543 31.2812 34.9225L31.4244 35.7336C31.2812 35.8026 31.1142 35.8556 30.9234 35.8927C30.7325 35.9298 30.5602 35.9484 30.4065 35.9484C30.0725 35.9484 29.8127 35.8609 29.6271 35.6859C29.4469 35.5057 29.3567 35.2512 29.3567 34.9225V30.0795Z" fill="#3FC9EB"/>
<path d="M33.8211 35.9643C33.4871 35.9643 33.1849 35.9086 32.9145 35.7973C32.6441 35.6806 32.4135 35.5242 32.2226 35.3281C32.0318 35.1266 31.8833 34.8986 31.7773 34.6442C31.6766 34.3844 31.6262 34.1114 31.6262 33.8251C31.6262 33.4275 31.7137 33.0643 31.8886 32.7356C32.0689 32.4069 32.3234 32.1445 32.6521 31.9483C32.9861 31.7469 33.3784 31.6461 33.829 31.6461C34.2849 31.6461 34.6746 31.7469 34.998 31.9483C35.3214 32.1445 35.5679 32.4069 35.7376 32.7356C35.9125 33.059 36 33.4089 36 33.7853C36 33.8489 35.9973 33.9152 35.992 33.9841C35.9867 34.0477 35.9814 34.1008 35.9761 34.1432H32.7554C32.7766 34.3552 32.8376 34.5408 32.9383 34.6998C33.0444 34.8589 33.1769 34.9808 33.336 35.0656C33.5003 35.1452 33.6753 35.1849 33.8608 35.1849C34.0729 35.1849 34.2717 35.1346 34.4572 35.0338C34.6481 34.9278 34.778 34.79 34.8469 34.6203L35.7614 34.8748C35.6607 35.0869 35.5149 35.2751 35.3241 35.4394C35.1385 35.6038 34.9185 35.7336 34.664 35.8291C34.4095 35.9192 34.1285 35.9643 33.8211 35.9643ZM32.7316 33.4672H34.9105C34.8893 33.2552 34.8284 33.0723 34.7276 32.9185C34.6322 32.7595 34.505 32.6375 34.3459 32.5527C34.1869 32.4626 34.0093 32.4175 33.8131 32.4175C33.6222 32.4175 33.4473 32.4626 33.2882 32.5527C33.1345 32.6375 33.0073 32.7595 32.9065 32.9185C32.8111 33.0723 32.7528 33.2552 32.7316 33.4672Z" fill="#3FC9EB"/>
<defs>
<clipPath id="clip0_102_2400">
<rect width="20" height="20" fill="white" transform="translate(14 8)"/>
</clipPath>
</defs>
</svg>
