<svg width="48" height="48" viewBox="0 0 48 48" fill="none" xmlns="http://www.w3.org/2000/svg">
<g clip-path="url(#clip0_164_346)">
<path fill-rule="evenodd" clip-rule="evenodd" d="M19.2 4.45117H33.6C34.9236 4.45117 36 5.52757 36 6.85117V16.4512C36 17.7748 34.9236 18.8512 33.6 18.8512V9.25117C33.6 7.92757 32.5236 6.85117 31.2 6.85117H16.8C16.8 5.52757 17.8764 4.45117 19.2 4.45117ZM16.8 23.6512H14.4C13.0764 23.6512 12 22.5748 12 21.2512V11.6512C12 10.3276 13.0764 9.25117 14.4 9.25117H28.8C30.1236 9.25117 31.2 10.3276 31.2 11.6512V21.2512C31.2 22.5748 30.1236 23.6512 28.8 23.6512H22.9212L16.8 28.5484V23.6512Z" fill="#F6FEFF"/>
</g>
<path d="M15.355 40.6588C14.8857 40.6588 14.464 40.5818 14.09 40.4278C13.716 40.2665 13.397 40.0465 13.133 39.7678C12.869 39.4818 12.6637 39.1592 12.517 38.7998C12.3777 38.4405 12.308 38.0628 12.308 37.6668C12.308 37.1242 12.429 36.6292 12.671 36.1818C12.9203 35.7272 13.2723 35.3642 13.727 35.0928C14.1817 34.8215 14.7207 34.6858 15.344 34.6858C15.9673 34.6858 16.5027 34.8215 16.95 35.0928C17.3973 35.3642 17.731 35.7198 17.951 36.1598L16.51 36.5998C16.3853 36.3872 16.2203 36.2258 16.015 36.1158C15.8097 35.9985 15.5823 35.9398 15.333 35.9398C15.0543 35.9398 14.7977 36.0132 14.563 36.1598C14.3357 36.2992 14.156 36.5008 14.024 36.7648C13.892 37.0215 13.826 37.3222 13.826 37.6668C13.826 38.0042 13.892 38.3048 14.024 38.5688C14.1633 38.8255 14.3467 39.0308 14.574 39.1848C14.8013 39.3315 15.0543 39.4048 15.333 39.4048C15.509 39.4048 15.674 39.3755 15.828 39.3168C15.9893 39.2582 16.1323 39.1775 16.257 39.0748C16.3817 38.9722 16.4733 38.8548 16.532 38.7228L17.973 39.1628C17.841 39.4488 17.6467 39.7055 17.39 39.9328C17.1407 40.1602 16.8437 40.3398 16.499 40.4718C16.1617 40.5965 15.7803 40.6588 15.355 40.6588ZM24.237 40.5488H22.763V37.3148C22.763 36.8675 22.675 36.5338 22.499 36.3138C22.3303 36.0938 22.0957 35.9838 21.795 35.9838C21.619 35.9838 21.432 36.0352 21.234 36.1378C21.036 36.2405 20.8563 36.3835 20.695 36.5668C20.541 36.7428 20.4273 36.9482 20.354 37.1828V40.5488H18.88V32.5188H20.354V35.8518C20.5667 35.4852 20.8563 35.1992 21.223 34.9938C21.5897 34.7885 21.9893 34.6858 22.422 34.6858C22.796 34.6858 23.1003 34.7518 23.335 34.8838C23.5697 35.0085 23.753 35.1808 23.885 35.4008C24.017 35.6135 24.1087 35.8555 24.16 36.1268C24.2113 36.3908 24.237 36.6658 24.237 36.9518V40.5488ZM25.1227 38.8438C25.1227 38.4698 25.2253 38.1435 25.4307 37.8648C25.6433 37.5788 25.9367 37.3588 26.3107 37.2048C26.6847 37.0508 27.1137 36.9738 27.5977 36.9738C27.8397 36.9738 28.0853 36.9922 28.3347 37.0288C28.584 37.0655 28.8003 37.1242 28.9837 37.2048V36.8968C28.9837 36.5302 28.8737 36.2478 28.6537 36.0498C28.441 35.8518 28.122 35.7528 27.6967 35.7528C27.3813 35.7528 27.0807 35.8078 26.7947 35.9178C26.5087 36.0278 26.208 36.1892 25.8927 36.4018L25.4197 35.4338C25.801 35.1845 26.1897 34.9975 26.5857 34.8728C26.989 34.7482 27.4107 34.6858 27.8507 34.6858C28.672 34.6858 29.31 34.8912 29.7647 35.3018C30.2267 35.7125 30.4577 36.2992 30.4577 37.0618V38.8988C30.4577 39.0528 30.4833 39.1628 30.5347 39.2288C30.5933 39.2948 30.685 39.3352 30.8097 39.3498V40.5488C30.6777 40.5708 30.5567 40.5892 30.4467 40.6038C30.344 40.6185 30.256 40.6258 30.1827 40.6258C29.8893 40.6258 29.6657 40.5598 29.5117 40.4278C29.365 40.2958 29.2733 40.1345 29.2367 39.9438L29.2037 39.6468C28.9543 39.9695 28.6427 40.2188 28.2687 40.3948C27.8947 40.5708 27.5133 40.6588 27.1247 40.6588C26.7433 40.6588 26.3987 40.5818 26.0907 40.4278C25.79 40.2665 25.5517 40.0502 25.3757 39.7788C25.207 39.5002 25.1227 39.1885 25.1227 38.8438ZM28.7087 39.1408C28.7893 39.0528 28.8553 38.9648 28.9067 38.8768C28.958 38.7888 28.9837 38.7082 28.9837 38.6348V38.0518C28.8077 37.9785 28.617 37.9235 28.4117 37.8868C28.2063 37.8428 28.012 37.8208 27.8287 37.8208C27.4473 37.8208 27.132 37.9052 26.8827 38.0738C26.6407 38.2352 26.5197 38.4515 26.5197 38.7228C26.5197 38.8695 26.56 39.0088 26.6407 39.1408C26.7213 39.2728 26.8387 39.3792 26.9927 39.4598C27.1467 39.5405 27.33 39.5808 27.5427 39.5808C27.7627 39.5808 27.979 39.5405 28.1917 39.4598C28.4043 39.3718 28.5767 39.2655 28.7087 39.1408ZM35.2354 40.2518C35.1107 40.3032 34.9604 40.3618 34.7844 40.4278C34.6084 40.4938 34.4177 40.5452 34.2124 40.5818C34.0144 40.6258 33.8127 40.6478 33.6074 40.6478C33.336 40.6478 33.0867 40.6002 32.8594 40.5048C32.632 40.4095 32.4487 40.2592 32.3094 40.0538C32.1774 39.8412 32.1114 39.5662 32.1114 39.2288V35.9178H31.3524V34.7848H32.1114V32.9148H33.5854V34.7848H34.7954V35.9178H33.5854V38.7338C33.5927 38.9318 33.6477 39.0748 33.7504 39.1628C33.853 39.2508 33.9814 39.2948 34.1354 39.2948C34.2894 39.2948 34.4397 39.2692 34.5864 39.2178C34.733 39.1665 34.8504 39.1225 34.9384 39.0858L35.2354 40.2518Z" fill="#F6FEFF"/>
<defs>
<clipPath id="clip0_164_346">
<rect width="24" height="24.0972" fill="white" transform="translate(12 4.45117)"/>
</clipPath>
</defs>
</svg>
