<svg width="27" height="28" viewBox="0 0 27 28" fill="none" xmlns="http://www.w3.org/2000/svg">
<path fill-rule="evenodd" clip-rule="evenodd" d="M3.94545 4.57116C9.15258 -0.635978 17.5945 -0.635978 22.8016 4.57116C28.0088 9.77829 28.0088 18.2202 22.8016 23.4273C17.5945 28.6345 9.15258 28.6345 3.94545 23.4273C-1.26169 18.2202 -1.26169 9.77829 3.94545 4.57116ZM17.1438 10.229C17.3939 10.479 17.5344 10.8181 17.5344 11.1718C17.5344 11.5254 17.3939 11.8645 17.1438 12.1146L15.2582 14.0002L17.1438 15.8858C17.3939 16.1359 17.5344 16.475 17.5344 16.8286C17.5344 17.1822 17.3939 17.5214 17.1438 17.7714C16.8938 18.0215 16.5546 18.1619 16.201 18.1619C15.8474 18.1619 15.5083 18.0215 15.2582 17.7714L13.3726 15.8858L11.487 17.7714C11.2369 18.0215 10.8978 18.1619 10.5442 18.1619C10.1905 18.1619 9.8514 18.0215 9.60136 17.7714C9.35131 17.5214 9.21083 17.1822 9.21083 16.8286C9.21083 16.475 9.35131 16.1359 9.60136 15.8858L11.487 14.0002L9.60136 12.1146C9.35131 11.8645 9.21083 11.5254 9.21083 11.1718C9.21083 10.8181 9.35131 10.479 9.60136 10.229C9.8514 9.9789 10.1905 9.83843 10.5442 9.83843C10.8978 9.83843 11.2369 9.9789 11.487 10.229L13.3726 12.1146L15.2582 10.229C15.5083 9.9789 15.8474 9.83843 16.201 9.83843C16.5546 9.83843 16.8938 9.9789 17.1438 10.229Z" fill="#F6FEFF"/>
</svg>
