<svg width="48" height="48" viewBox="0 0 48 48" fill="none" xmlns="http://www.w3.org/2000/svg">
<path d="M37.6371 18.8834L25.0385 4.88494C24.508 4.29421 23.4889 4.29421 22.9583 4.88494L10.3597 18.8834C10.1784 19.0844 10.0594 19.3338 10.0171 19.6012C9.97487 19.8686 10.0112 20.1425 10.1218 20.3896C10.3457 20.895 10.8469 21.2197 11.3998 21.2197H14.1995V31.0186C14.1995 31.3899 14.347 31.7459 14.6095 32.0085C14.872 32.271 15.2281 32.4185 15.5994 32.4185H19.7989C20.1701 32.4185 20.5262 32.271 20.7887 32.0085C21.0512 31.7459 21.1987 31.3899 21.1987 31.0186V25.4192H26.7981V31.0186C26.7981 31.3899 26.9456 31.7459 27.2081 32.0085C27.4706 32.271 27.8267 32.4185 28.1979 32.4185H32.3975C32.7687 32.4185 33.1248 32.271 33.3873 32.0085C33.6498 31.7459 33.7973 31.3899 33.7973 31.0186V21.2197H36.597C36.8681 21.2209 37.1337 21.1431 37.3614 20.9959C37.589 20.8488 37.769 20.6385 37.8792 20.3909C37.9895 20.1432 38.0253 19.8688 37.9823 19.6011C37.9393 19.3334 37.8194 19.0841 37.6371 18.8834Z" fill="#F6FEFF"/>
<path d="M14.7401 44.4485H13.2661V41.2145C13.2661 40.7671 13.1781 40.4335 13.0021 40.2135C12.8334 39.9935 12.5987 39.8835 12.2981 39.8835C12.1221 39.8835 11.9351 39.9348 11.7371 40.0375C11.5391 40.1401 11.3594 40.2831 11.1981 40.4665C11.0441 40.6425 10.9304 40.8478 10.8571 41.0825V44.4485H9.38306V36.4185H10.8571V39.7515C11.0697 39.3848 11.3594 39.0988 11.7261 38.8935C12.0927 38.6881 12.4924 38.5855 12.9251 38.5855C13.2991 38.5855 13.6034 38.6515 13.8381 38.7835C14.0727 38.9081 14.2561 39.0805 14.3881 39.3005C14.5201 39.5131 14.6117 39.7551 14.6631 40.0265C14.7144 40.2905 14.7401 40.5655 14.7401 40.8515V44.4485Z" fill="#F6FEFF"/>
<path d="M18.6837 44.5585C18.2144 44.5585 17.7927 44.4815 17.4187 44.3275C17.0447 44.1661 16.7257 43.9461 16.4617 43.6675C16.2051 43.3888 16.0071 43.0698 15.8677 42.7105C15.7284 42.3511 15.6587 41.9735 15.6587 41.5775C15.6587 41.1741 15.7284 40.7928 15.8677 40.4335C16.0071 40.0741 16.2051 39.7551 16.4617 39.4765C16.7257 39.1978 17.0447 38.9815 17.4187 38.8275C17.7927 38.6661 18.2144 38.5855 18.6837 38.5855C19.1531 38.5855 19.5711 38.6661 19.9377 38.8275C20.3117 38.9815 20.6307 39.1978 20.8947 39.4765C21.1587 39.7551 21.3567 40.0741 21.4887 40.4335C21.6281 40.7928 21.6977 41.1741 21.6977 41.5775C21.6977 41.9735 21.6281 42.3511 21.4887 42.7105C21.3567 43.0698 21.1587 43.3888 20.8947 43.6675C20.6381 43.9461 20.3227 44.1661 19.9487 44.3275C19.5747 44.4815 19.1531 44.5585 18.6837 44.5585ZM17.1767 41.5775C17.1767 41.9148 17.2427 42.2155 17.3747 42.4795C17.5067 42.7361 17.6864 42.9378 17.9137 43.0845C18.1411 43.2311 18.3977 43.3045 18.6837 43.3045C18.9624 43.3045 19.2154 43.2311 19.4427 43.0845C19.6701 42.9305 19.8497 42.7251 19.9817 42.4685C20.1211 42.2045 20.1907 41.9038 20.1907 41.5665C20.1907 41.2365 20.1211 40.9395 19.9817 40.6755C19.8497 40.4115 19.6701 40.2061 19.4427 40.0595C19.2154 39.9128 18.9624 39.8395 18.6837 39.8395C18.3977 39.8395 18.1411 39.9165 17.9137 40.0705C17.6864 40.2171 17.5067 40.4225 17.3747 40.6865C17.2427 40.9431 17.1767 41.2401 17.1767 41.5775Z" fill="#F6FEFF"/>
<path d="M31.6466 44.4485H30.1726V41.2145C30.1726 40.7598 30.092 40.4261 29.9306 40.2135C29.7766 39.9935 29.5603 39.8835 29.2816 39.8835C28.9956 39.8835 28.7206 39.9971 28.4566 40.2245C28.2 40.4445 28.0166 40.7341 27.9066 41.0935V44.4485H26.4326V41.2145C26.4326 40.7525 26.352 40.4151 26.1906 40.2025C26.0366 39.9898 25.8203 39.8835 25.5416 39.8835C25.2556 39.8835 24.9806 39.9935 24.7166 40.2135C24.46 40.4335 24.2766 40.7231 24.1666 41.0825V44.4485H22.6926V38.6845H24.0236V39.7515C24.2436 39.3775 24.537 39.0915 24.9036 38.8935C25.2703 38.6881 25.692 38.5855 26.1686 38.5855C26.6453 38.5855 27.0156 38.7028 27.2796 38.9375C27.551 39.1721 27.7233 39.4618 27.7966 39.8065C28.0313 39.4105 28.3283 39.1098 28.6876 38.9045C29.0543 38.6918 29.465 38.5855 29.9196 38.5855C30.279 38.5855 30.5686 38.6515 30.7886 38.7835C31.016 38.9081 31.192 39.0805 31.3166 39.3005C31.4413 39.5131 31.5256 39.7551 31.5696 40.0265C31.621 40.2978 31.6466 40.5728 31.6466 40.8515V44.4485Z" fill="#F6FEFF"/>
<path d="M35.6029 44.5585C35.1409 44.5585 34.7229 44.4815 34.3489 44.3275C33.9749 44.1661 33.6559 43.9498 33.3919 43.6785C33.1279 43.3998 32.9226 43.0845 32.7759 42.7325C32.6366 42.3731 32.5669 41.9955 32.5669 41.5995C32.5669 41.0495 32.6879 40.5471 32.9299 40.0925C33.1793 39.6378 33.5313 39.2748 33.9859 39.0035C34.4479 38.7248 34.9906 38.5855 35.6139 38.5855C36.2446 38.5855 36.7836 38.7248 37.2309 39.0035C37.6783 39.2748 38.0193 39.6378 38.2539 40.0925C38.4959 40.5398 38.6169 41.0238 38.6169 41.5445C38.6169 41.6325 38.6133 41.7241 38.6059 41.8195C38.5986 41.9075 38.5913 41.9808 38.5839 42.0395H34.1289C34.1583 42.3328 34.2426 42.5895 34.3819 42.8095C34.5286 43.0295 34.7119 43.1981 34.9319 43.3155C35.1593 43.4255 35.4013 43.4805 35.6579 43.4805C35.9513 43.4805 36.2263 43.4108 36.4829 43.2715C36.7469 43.1248 36.9266 42.9341 37.0219 42.6995L38.2869 43.0515C38.1476 43.3448 37.9459 43.6051 37.6819 43.8325C37.4253 44.0598 37.1209 44.2395 36.7689 44.3715C36.4169 44.4961 36.0283 44.5585 35.6029 44.5585ZM34.0959 41.1045H37.1099C37.0806 40.8111 36.9963 40.5581 36.8569 40.3455C36.7249 40.1255 36.5489 39.9568 36.3289 39.8395C36.1089 39.7148 35.8633 39.6525 35.5919 39.6525C35.3279 39.6525 35.0859 39.7148 34.8659 39.8395C34.6533 39.9568 34.4773 40.1255 34.3379 40.3455C34.2059 40.5581 34.1253 40.8111 34.0959 41.1045Z" fill="#F6FEFF"/>
</svg>
