<svg width="48" height="48" viewBox="0 0 48 48" fill="none" xmlns="http://www.w3.org/2000/svg">
<g clip-path="url(#clip0_164_340)">
<path d="M24 4.5C25.5913 4.5 27.1174 5.13214 28.2426 6.25736C29.3679 7.38258 30 8.9087 30 10.5C30 12.0913 29.3679 13.6174 28.2426 14.7426C27.1174 15.8679 25.5913 16.5 24 16.5C22.4087 16.5 20.8826 15.8679 19.7574 14.7426C18.6321 13.6174 18 12.0913 18 10.5C18 8.9087 18.6321 7.38258 19.7574 6.25736C20.8826 5.13214 22.4087 4.5 24 4.5ZM24 19.5C30.63 19.5 36 22.185 36 25.5V28.5H12V25.5C12 22.185 17.37 19.5 24 19.5Z" fill="#F6FEFF"/>
</g>
<path d="M11.0771 40.61C10.6298 40.61 10.2338 40.511 9.88915 40.313C9.55182 40.1077 9.28782 39.8327 9.09715 39.488V42.843H7.62315V34.736H8.91015V35.726C9.13015 35.3887 9.40882 35.1247 9.74615 34.934C10.0835 34.736 10.4685 34.637 10.9011 34.637C11.2898 34.637 11.6455 34.714 11.9681 34.868C12.2981 35.022 12.5841 35.2383 12.8261 35.517C13.0681 35.7883 13.2551 36.1037 13.3871 36.463C13.5265 36.815 13.5961 37.1963 13.5961 37.607C13.5961 38.1643 13.4861 38.6703 13.2661 39.125C13.0535 39.5797 12.7565 39.9427 12.3751 40.214C12.0011 40.478 11.5685 40.61 11.0771 40.61ZM10.5821 39.356C10.8095 39.356 11.0148 39.3083 11.1981 39.213C11.3815 39.1177 11.5391 38.9893 11.6711 38.828C11.8105 38.6593 11.9131 38.4723 11.9791 38.267C12.0525 38.0543 12.0891 37.8343 12.0891 37.607C12.0891 37.365 12.0488 37.1413 11.9681 36.936C11.8948 36.7307 11.7848 36.551 11.6381 36.397C11.4915 36.2357 11.3191 36.111 11.1211 36.023C10.9305 35.935 10.7215 35.891 10.4941 35.891C10.3548 35.891 10.2118 35.9167 10.0651 35.968C9.92582 36.012 9.79015 36.078 9.65815 36.166C9.52615 36.254 9.40882 36.3567 9.30615 36.474C9.21082 36.5913 9.14115 36.7197 9.09715 36.859V38.212C9.18515 38.4247 9.30248 38.619 9.44915 38.795C9.60315 38.971 9.77915 39.1103 9.97715 39.213C10.1751 39.3083 10.3768 39.356 10.5821 39.356ZM18.0268 36.012C17.5795 36.012 17.1798 36.1 16.8278 36.276C16.4758 36.4447 16.2228 36.6903 16.0688 37.013V40.5H14.5948V34.736H15.9478V35.968C16.1532 35.572 16.4135 35.2603 16.7288 35.033C17.0442 34.8057 17.3778 34.681 17.7298 34.659C17.8105 34.659 17.8728 34.659 17.9168 34.659C17.9608 34.659 17.9975 34.6627 18.0268 34.67V36.012ZM21.4355 40.61C20.9662 40.61 20.5445 40.533 20.1705 40.379C19.7965 40.2177 19.4775 39.9977 19.2135 39.719C18.9569 39.4403 18.7589 39.1213 18.6195 38.762C18.4802 38.4027 18.4105 38.025 18.4105 37.629C18.4105 37.2257 18.4802 36.8443 18.6195 36.485C18.7589 36.1257 18.9569 35.8067 19.2135 35.528C19.4775 35.2493 19.7965 35.033 20.1705 34.879C20.5445 34.7177 20.9662 34.637 21.4355 34.637C21.9049 34.637 22.3229 34.7177 22.6895 34.879C23.0635 35.033 23.3825 35.2493 23.6465 35.528C23.9105 35.8067 24.1085 36.1257 24.2405 36.485C24.3799 36.8443 24.4495 37.2257 24.4495 37.629C24.4495 38.025 24.3799 38.4027 24.2405 38.762C24.1085 39.1213 23.9105 39.4403 23.6465 39.719C23.3899 39.9977 23.0745 40.2177 22.7005 40.379C22.3265 40.533 21.9049 40.61 21.4355 40.61ZM19.9285 37.629C19.9285 37.9663 19.9945 38.267 20.1265 38.531C20.2585 38.7877 20.4382 38.9893 20.6655 39.136C20.8929 39.2827 21.1495 39.356 21.4355 39.356C21.7142 39.356 21.9672 39.2827 22.1945 39.136C22.4219 38.982 22.6015 38.7767 22.7335 38.52C22.8729 38.256 22.9425 37.9553 22.9425 37.618C22.9425 37.288 22.8729 36.991 22.7335 36.727C22.6015 36.463 22.4219 36.2577 22.1945 36.111C21.9672 35.9643 21.7142 35.891 21.4355 35.891C21.1495 35.891 20.8929 35.968 20.6655 36.122C20.4382 36.2687 20.2585 36.474 20.1265 36.738C19.9945 36.9947 19.9285 37.2917 19.9285 37.629ZM25.7427 36.166H24.9837V35.044H25.7427V34.692C25.7427 34.3693 25.7941 34.0687 25.8967 33.79C26.0067 33.5113 26.1607 33.2657 26.3587 33.053C26.5641 32.833 26.8097 32.6643 27.0957 32.547C27.3891 32.4223 27.7191 32.36 28.0857 32.36C28.3644 32.36 28.6247 32.3893 28.8667 32.448C29.1161 32.5067 29.3507 32.591 29.5707 32.701C29.7981 32.811 30.0144 32.9357 30.2197 33.075L29.6367 34.175C29.4461 34.0063 29.2224 33.8707 28.9657 33.768C28.7091 33.6653 28.4487 33.614 28.1847 33.614C27.9721 33.614 27.7924 33.6617 27.6457 33.757C27.4991 33.8523 27.3891 33.977 27.3157 34.131C27.2497 34.285 27.2167 34.4537 27.2167 34.637V35.044H30.3077V40.5H28.8337V36.166H27.2167V40.5H25.7427V36.166ZM31.6317 32.47H33.1057V38.652C33.1057 38.916 33.1497 39.0957 33.2377 39.191C33.3257 39.279 33.4467 39.323 33.6007 39.323C33.718 39.323 33.839 39.3083 33.9637 39.279C34.0883 39.2497 34.1983 39.213 34.2937 39.169L34.4917 40.291C34.2937 40.3863 34.0627 40.4597 33.7987 40.511C33.5347 40.5623 33.2963 40.588 33.0837 40.588C32.6217 40.588 32.2623 40.467 32.0057 40.225C31.7563 39.9757 31.6317 39.6237 31.6317 39.169V32.47ZM37.8069 40.61C37.3449 40.61 36.9269 40.533 36.5529 40.379C36.1789 40.2177 35.8599 40.0013 35.5959 39.73C35.3319 39.4513 35.1266 39.136 34.9799 38.784C34.8406 38.4247 34.7709 38.047 34.7709 37.651C34.7709 37.101 34.8919 36.5987 35.1339 36.144C35.3832 35.6893 35.7352 35.3263 36.1899 35.055C36.6519 34.7763 37.1946 34.637 37.8179 34.637C38.4486 34.637 38.9876 34.7763 39.4349 35.055C39.8822 35.3263 40.2232 35.6893 40.4579 36.144C40.6999 36.5913 40.8209 37.0753 40.8209 37.596C40.8209 37.684 40.8172 37.7757 40.8099 37.871C40.8026 37.959 40.7952 38.0323 40.7879 38.091H36.3329C36.3622 38.3843 36.4466 38.641 36.5859 38.861C36.7326 39.081 36.9159 39.2497 37.1359 39.367C37.3632 39.477 37.6052 39.532 37.8619 39.532C38.1552 39.532 38.4302 39.4623 38.6869 39.323C38.9509 39.1763 39.1306 38.9857 39.2259 38.751L40.4909 39.103C40.3516 39.3963 40.1499 39.6567 39.8859 39.884C39.6292 40.1113 39.3249 40.291 38.9729 40.423C38.6209 40.5477 38.2322 40.61 37.8069 40.61ZM36.2999 37.156H39.3139C39.2846 36.8627 39.2002 36.6097 39.0609 36.397C38.9289 36.177 38.7529 36.0083 38.5329 35.891C38.3129 35.7663 38.0672 35.704 37.7959 35.704C37.5319 35.704 37.2899 35.7663 37.0699 35.891C36.8572 36.0083 36.6812 36.177 36.5419 36.397C36.4099 36.6097 36.3292 36.8627 36.2999 37.156Z" fill="#F6FEFF"/>
<defs>
<clipPath id="clip0_164_340">
<rect width="24" height="24" fill="white" transform="translate(12 4.5)"/>
</clipPath>
</defs>
</svg>
