<svg xmlns="http://www.w3.org/2000/svg" width="26" height="20" fill="none">
    <g clip-path="url(#a)">
        <g clip-path="url(#b)">
            <path fill="#F6FEFF" d="m25.066 11.072-8.203 8.203c-.733.732-2.002.22-2.002-.83v-4.688H8.22a1.17 1.17 0 0 1-1.172-1.171V7.897c0-.65.523-1.172 1.172-1.172h6.64V2.04c0-1.045 1.265-1.563 2.003-.83l8.203 8.203a1.182 1.182 0 0 1 0 1.66ZM10.173 19.03v-1.953a.588.588 0 0 0-.586-.586H5.486a1.56 1.56 0 0 1-1.563-1.563V5.554a1.56 1.56 0 0 1 1.563-1.562h4.101a.588.588 0 0 0 .586-.586V1.453a.588.588 0 0 0-.586-.586H5.486A4.689 4.689 0 0 0 .798 5.554v9.375c0 2.588 2.1 4.688 4.688 4.688h4.101a.588.588 0 0 0 .586-.586Z"/>
        </g>
    </g>
    <defs>
        <clipPath id="a">
            <path fill="#fff" d="M0 0h26v20H0z"/>
        </clipPath>
        <clipPath id="b">
            <path fill="#fff" d="M0 0h26v20H0z"/>
        </clipPath>
    </defs>
</svg>