<svg xmlns="http://www.w3.org/2000/svg" width="175" height="175" fill="none">
    <path fill="#116077" d="M175 87.5c0 48.325-39.175 87.5-87.5 87.5S0 135.825 0 87.5 39.175 0 87.5 0 175 39.175 175 87.5Z"/>
    <path fill="#F6FEFF" d="M146.553 92.198h-35.508l34.557-1.46a1.6 1.6 0 0 0 1.53-1.668l-.039-.935a1.602 1.602 0 0 0-1.669-1.532l-27.688 1.172 25.928-3.052c.877-.104 1.5-.867 1.394-1.706l-.115-.884c-.107-.84-.907-1.434-1.784-1.331l-51.225 6.03.999-6.264a.681.681 0 0 0-.674-.79h-8.442a.681.681 0 0 0-.673.79l1.004 6.296-50.713-6.032c-.877-.104-1.678.49-1.787 1.327l-.115.887c-.11.837.514 1.6 1.39 1.703l25.418 3.023-27.378-1.284a1.602 1.602 0 0 0-1.675 1.526l-.044.934a1.603 1.603 0 0 0 1.524 1.677l33.56 1.573H29.474c-.771 0-1.397.627-1.397 1.399v1.342c0 .772.626 1.399 1.397 1.399h50.214c.871 3.894 4.348 6.801 8.498 6.801 4.15 0 7.627-2.907 8.498-6.801h49.869c.8 0 1.447-.648 1.447-1.45v-1.241c0-.801-.647-1.449-1.447-1.449ZM84.828 68.587a.65.65 0 0 0-.68.721l.866 7.718a1.4 1.4 0 0 0 1.323 1.242l4.135.192a1.397 1.397 0 0 0 1.433-1.109l1.583-7.605a.654.654 0 0 0-.608-.783l-8.052-.376ZM94.374 58.096l-7.951-.99a.648.648 0 0 0-.727.662l.269 7.714a1.39 1.39 0 0 0 1.217 1.33l4.082.51a1.39 1.39 0 0 0 1.503-.991l2.15-7.413a.648.648 0 0 0-.543-.822Z"/>
    <path fill="#F6FEFF" d="M59.34 49.05c3.615 1.896 14.503 6.385 29.02 1.195l-.454 3.256c-.092.665.31 1.3.953 1.496l3.879 1.189c.64.198 1.332-.1 1.627-.704l2.047-4.175c3.545 5.458 11.39 13.945 26.865 16.615.753.13 1.308-.68.933-1.349-6.294-11.224-15.014-16.174-21.485-18.356 4.637-.124 10.68-1.532 17.075-6.367.44-.334.29-1.032-.251-1.165-11.236-2.773-19.223 1.222-23.072 3.936 2.035-2.504 4.44-6.975 3.902-13.782a.439.439 0 0 0-.741-.278c-4.723 4.503-5.881 9.438-6.038 12.738C84.216 28.086 70.32 25.457 65.78 25.005a.905.905 0 0 0-.907 1.286c1.5 3.19 6.15 11.198 16.851 16.316-11.23-1.135-19.438 3.034-22.437 4.867a.907.907 0 0 0 .053 1.577Zm57.483 12.967c.266.269.254.372-.062.286-2.54-.682-9.272-4.027-16.03-11.756-.275-.317-.269-.476.059-.305 8.454 4.442 14.281 9.998 16.033 11.775Zm-16.287-16.61c6.33-2.217 11.977-2.989 13.729-3.19.266-.03.331.036.118.115-1.435.539-6.321 2.221-13.72 3.191-.296.038-.372-.03-.127-.115Zm-5.668-1.673c1.352-4.81 3.461-8.472 4.147-9.586.103-.169.183-.175.141-.01-.277 1.113-1.34 4.809-4.138 9.581-.112.19-.2.201-.15.015ZM71.116 29.399c-.286-.281-.26-.44.047-.284 2.062 1.056 8.865 4.829 17.002 12.517.325.307.302.488-.04.301-8.868-4.85-15.121-10.677-17.009-12.534Zm-3.84 18.682c2.254-.358 9.884-1.42 21.046-1.387.446 0 .526.009.162.139-10.163 3.643-18.475 1.863-21.06 1.384-.393-.074-.481-.083-.148-.136ZM35.541 114.937c-.978 0-1.775.195-2.39.588-.614.394-1.098.867-1.453 1.426h-.145c.039-.275.074-.663.1-1.166.03-.499.045-1.005.045-1.516v-4.391H28v18.88h2.824l.62-1.494h.254c.355.447.821.846 1.394 1.204.573.355 1.356.532 2.352.532 1.033 0 1.943-.263 2.726-.795.785-.53 1.394-1.319 1.831-2.366.437-1.047.653-2.345.653-3.888 0-2.298-.473-4.042-1.418-5.231s-2.177-1.783-3.695-1.783Zm.67 10.009c-.445.704-1.051 1.059-1.81 1.059-1.025 0-1.734-.352-2.121-1.05-.387-.701-.582-1.709-.582-3.028v-.402c.015-.816.11-1.493.284-2.026.174-.535.452-.934.83-1.2.38-.269.895-.402 1.542-.402.782 0 1.4.337 1.852 1.008.454.671.679 1.671.679 2.995 0 1.328-.224 2.345-.673 3.046ZM51.973 115.75c-.98-.541-2.106-.813-3.373-.813-1.368 0-2.544.272-3.53.813-.984.541-1.746 1.334-2.278 2.377-.534 1.044-.8 2.319-.8 3.824 0 1.132.16 2.135.479 3.01.319.872.77 1.611 1.358 2.215a5.769 5.769 0 0 0 2.07 1.363c.798.307 1.673.461 2.627.461 1.019 0 1.931-.154 2.744-.461a5.606 5.606 0 0 0 2.085-1.363c.58-.604 1.02-1.343 1.324-2.215.3-.875.451-1.878.451-3.01 0-1.505-.28-2.78-.841-3.824-.562-1.043-1.333-1.836-2.316-2.377Zm-.907 8.445c-.192.606-.49 1.064-.898 1.372-.407.308-.94.461-1.595.461-.662 0-1.2-.153-1.61-.461-.413-.308-.718-.766-.91-1.372-.194-.606-.292-1.354-.292-2.244 0-1.343.222-2.351.662-3.022.44-.672 1.149-1.009 2.126-1.009.662 0 1.2.151 1.613.45.41.301.712.748.904 1.342.19.595.284 1.34.284 2.239 0 .89-.095 1.638-.284 2.244ZM66.45 115.75c-.981-.541-2.107-.813-3.374-.813-1.367 0-2.543.272-3.53.813-.983.541-1.745 1.334-2.277 2.377-.535 1.044-.8 2.319-.8 3.824 0 1.132.159 2.135.478 3.01.319.872.77 1.611 1.359 2.215a5.77 5.77 0 0 0 2.07 1.363c.798.307 1.672.461 2.626.461 1.02 0 1.932-.154 2.744-.461a5.606 5.606 0 0 0 2.086-1.363c.579-.604 1.019-1.343 1.323-2.215.301-.875.452-1.878.452-3.01 0-1.505-.28-2.78-.842-3.824-.561-1.043-1.332-1.836-2.316-2.377Zm-.907 8.445c-.193.606-.49 1.064-.899 1.372-.407.308-.939.461-1.595.461-.661 0-1.199-.153-1.61-.461-.413-.308-.717-.766-.91-1.372-.194-.606-.292-1.354-.292-2.244 0-1.343.222-2.351.662-3.022.44-.672 1.15-1.009 2.127-1.009.661 0 1.2.151 1.613.45.41.301.712.748.904 1.342.188.595.283 1.34.283 2.239 0 .89-.094 1.638-.283 2.244ZM84.896 115.191h-4.168l-3.796 4.125c-.298.325-.579.659-.842 1.008s-.52.701-.77 1.056h-.048c.047-.509.092-1.02.133-1.529.041-.508.062-1.02.062-1.528v-8.445H71.77v18.88h3.698v-4.223l1.586-1.274 3.905 5.497h4.265l-5.71-7.683 5.383-5.884ZM90.46 115.567h-1.222v13.191h1.222v-13.191ZM89.867 110.691c-.29 0-.508.088-.653.272-.148.183-.219.426-.219.733 0 .308.071.55.219.727.145.181.363.27.653.27.307 0 .534-.089.68-.27.144-.177.218-.419.218-.727 0-.307-.074-.55-.219-.733-.145-.184-.372-.272-.68-.272ZM100.48 122.291a25.485 25.485 0 0 0-2.127-.837 52.904 52.904 0 0 1-1.926-.71c-.543-.216-.96-.482-1.25-.801-.289-.319-.437-.763-.437-1.331 0-.736.305-1.292.91-1.673.606-.382 1.448-.571 2.523-.571.653 0 1.308.074 1.961.219a8.378 8.378 0 0 1 1.734.57l.437-1.043a10.889 10.889 0 0 0-1.861-.577 10.237 10.237 0 0 0-2.212-.225c-1.43 0-2.57.296-3.418.887-.847.589-1.273 1.417-1.273 2.475 0 .778.178 1.39.535 1.84.354.446.845.807 1.47 1.079.627.272 1.345.544 2.154.819.774.257 1.436.514 1.988.763.549.251.972.55 1.264.893.296.343.443.777.443 1.304 0 .801-.298 1.431-.895 1.892-.6.462-1.577.692-2.936.692-.774 0-1.53-.091-2.265-.278a10.218 10.218 0 0 1-2.012-.727v1.212c.485.234 1.087.432 1.805.595.72.162 1.536.242 2.449.242 1.099 0 2.026-.142 2.776-.432.75-.287 1.324-.706 1.716-1.259.39-.556.588-1.225.588-2.008 0-.796-.195-1.422-.582-1.884-.39-.461-.907-.837-1.559-1.126ZM106.718 109.878h-1.238v18.88h1.238v-18.88ZM115.216 115.336c-.792 0-1.548.098-2.271.293-.724.192-1.4.44-2.033.739l.39 1.02a10.234 10.234 0 0 1 1.908-.745 7.288 7.288 0 0 1 1.959-.263c1.042 0 1.828.287 2.363.863.534.574.8 1.535.8 2.886v.961l-2.448.121c-2.03.089-3.583.474-4.667 1.157-1.084.686-1.625 1.682-1.625 2.992 0 .778.163 1.437.49 1.978.328.541.792.955 1.395 1.239.602.281 1.329.423 2.177.423.838 0 1.553-.109 2.138-.328a4.337 4.337 0 0 0 1.486-.902 5.78 5.78 0 0 0 1.031-1.319h.071l.218 2.306h.945v-8.847c0-1.593-.36-2.753-1.078-3.48-.72-.73-1.802-1.094-3.249-1.094Zm3.104 8.01c-.008 1.423-.395 2.549-1.157 3.374-.765.825-1.87 1.236-3.317 1.236-.928 0-1.655-.222-2.174-.668-.523-.444-.783-1.082-.783-1.916 0-1.035.437-1.813 1.308-2.33.875-.518 2.148-.816 3.82-.896l2.303-.098v1.298ZM129.096 115.312c-.792 0-1.486.122-2.086.358a4.603 4.603 0 0 0-1.509.958 4.743 4.743 0 0 0-.963 1.343h-.071l-.183-2.404h-.992v13.191h1.223v-7.269c0-1.706.381-2.983 1.146-3.829.762-.846 1.866-1.268 3.314-1.268 1.14 0 2.008.307 2.608.922.597.615.895 1.579.895 2.889v8.555h1.214v-8.629c0-1.656-.399-2.874-1.19-3.652-.792-.777-1.926-1.165-3.406-1.165ZM146.662 115.238c0 .414.009.867.024 1.361.017.493.041.955.073 1.383h-.097a4.406 4.406 0 0 0-.892-1.366 4.211 4.211 0 0 0-1.418-.952c-.561-.233-1.223-.352-1.982-.352-1.778 0-3.163.601-4.156 1.798-.995 1.195-1.492 2.936-1.492 5.216 0 2.176.47 3.832 1.412 4.971.943 1.135 2.313 1.703 4.115 1.703.809 0 1.501-.118 2.074-.358a4.139 4.139 0 0 0 1.435-.964 4.77 4.77 0 0 0 .904-1.336h.074l.156 2.415h.993v-18.88h-1.223v5.361Zm.012 7.1c0 1.798-.328 3.179-.981 4.146-.656.967-1.757 1.449-3.311 1.449-1.486 0-2.591-.474-3.314-1.42-.724-.946-1.084-2.333-1.084-4.163 0-1.94.384-3.421 1.158-4.441.771-1.018 1.887-1.529 3.349-1.529 1.48 0 2.546.497 3.202 1.487.653.991.981 2.416.981 4.279v.192Z"/>
</svg>