<svg xmlns="http://www.w3.org/2000/svg" width="64" height="64" fill="none">
    <circle cx="32" cy="32" r="32" fill="#F6FEFF"/>
    <path fill="#3FC9EB" d="M53.949 35.89h-13.31l12.953-.55a.601.601 0 0 0 .574-.627l-.014-.352a.601.601 0 0 0-.626-.576l-10.38.44 9.72-1.148a.582.582 0 0 0 .523-.641l-.044-.333a.594.594 0 0 0-.668-.5L33.475 33.87l.374-2.357a.256.256 0 0 0-.252-.297h-3.165a.256.256 0 0 0-.252.297l.376 2.369-19.01-2.27a.596.596 0 0 0-.67.5l-.043.334a.58.58 0 0 0 .521.64l9.528 1.138-10.263-.483a.602.602 0 0 0-.628.574l-.016.351a.602.602 0 0 0 .571.631l12.58.592H10.062a.525.525 0 0 0-.524.526v.506c0 .29.235.526.524.526h18.823a3.269 3.269 0 0 0 3.186 2.559 3.27 3.27 0 0 0 3.185-2.56H53.95c.3 0 .542-.243.542-.544v-.468a.543.543 0 0 0-.542-.545ZM30.81 27.006a.244.244 0 0 0-.254.272l.325 2.904c.028.257.239.455.496.467l1.55.072a.524.524 0 0 0 .537-.417l.593-2.862a.246.246 0 0 0-.228-.294l-3.018-.142ZM34.39 23.059l-2.981-.373a.243.243 0 0 0-.273.25l.101 2.902a.522.522 0 0 0 .456.5l1.53.192a.521.521 0 0 0 .564-.373l.806-2.789a.244.244 0 0 0-.204-.31Z"/>
    <path fill="#3FC9EB" d="M21.256 19.655c1.356.713 5.437 2.402 10.88.45l-.172 1.225c-.034.25.117.49.358.563l1.454.447c.24.075.5-.038.61-.265l.767-1.57c1.33 2.053 4.27 5.246 10.07 6.25.283.05.491-.255.35-.506-2.359-4.224-5.627-6.086-8.053-6.907 1.738-.047 4.003-.577 6.4-2.396a.249.249 0 0 0-.094-.438c-4.212-1.044-7.206.46-8.648 1.48.763-.942 1.664-2.624 1.462-5.185a.164.164 0 0 0-.278-.105c-1.77 1.695-2.204 3.552-2.263 4.793-3.517-5.724-8.727-6.713-10.429-6.883a.34.34 0 0 0-.34.484c.563 1.2 2.306 4.213 6.317 6.139-4.21-.427-7.287 1.141-8.41 1.831a.342.342 0 0 0 .02.593Zm21.548 4.879c.1.101.096.14-.023.108-.952-.257-3.475-1.515-6.009-4.424-.103-.119-.1-.179.022-.114 3.17 1.67 5.354 3.761 6.01 4.43Zm-6.105-6.25a24.923 24.923 0 0 1 5.147-1.2c.1-.011.124.014.044.044-.538.202-2.37.835-5.143 1.2-.111.015-.14-.011-.048-.043Zm-2.125-.63a14.996 14.996 0 0 1 1.555-3.606c.039-.063.069-.066.053-.003-.104.418-.503 1.809-1.551 3.604-.042.072-.075.076-.057.006Zm-8.903-5.393c-.107-.106-.098-.166.018-.107.773.398 3.323 1.817 6.373 4.71.122.116.113.183-.015.113-3.324-1.824-5.668-4.017-6.376-4.716Zm-1.44 7.03c.845-.135 3.705-.535 7.89-.522.167 0 .197.003.06.052-3.81 1.37-6.925.7-7.894.52-.147-.027-.18-.03-.055-.05ZM12.335 44.446c-.366 0-.665.073-.895.221-.23.148-.412.326-.545.537h-.054a9.68 9.68 0 0 0 .054-1.01v-1.652H9.509v7.104h1.058l.233-.562h.095c.133.168.308.319.522.453.215.134.509.2.882.2.387 0 .728-.099 1.022-.299.294-.2.522-.496.686-.89.164-.394.245-.882.245-1.463 0-.864-.177-1.52-.532-1.968a1.685 1.685 0 0 0-1.385-.671Zm.252 3.766c-.168.265-.394.398-.68.398-.383 0-.649-.132-.794-.395-.145-.263-.218-.643-.218-1.139v-.151c.005-.307.04-.562.106-.762a.854.854 0 0 1 .311-.452c.143-.101.336-.151.578-.151.294 0 .525.127.694.379.171.253.255.629.255 1.127 0 .5-.084.882-.252 1.146ZM18.495 44.752a2.567 2.567 0 0 0-1.265-.306c-.512 0-.953.102-1.323.306a2.06 2.06 0 0 0-.853.894c-.2.393-.3.873-.3 1.439 0 .426.06.803.179 1.133.12.328.289.606.51.833.219.226.478.397.775.513.3.115.627.173.985.173.382 0 .724-.058 1.028-.173.305-.116.566-.287.782-.513.217-.227.382-.505.496-.833.113-.33.17-.707.17-1.133 0-.566-.106-1.046-.316-1.439-.21-.392-.5-.69-.868-.894Zm-.34 3.177c-.072.228-.184.401-.337.517-.152.115-.352.173-.598.173-.247 0-.449-.058-.603-.173a.994.994 0 0 1-.341-.517 2.799 2.799 0 0 1-.11-.844c0-.505.083-.885.248-1.137.165-.253.431-.38.798-.38.248 0 .45.057.604.17a.975.975 0 0 1 .339.505c.07.223.106.504.106.842 0 .335-.035.616-.106.844ZM23.922 44.752a2.567 2.567 0 0 0-1.265-.306c-.513 0-.953.102-1.323.306a2.06 2.06 0 0 0-.854.894c-.2.393-.3.873-.3 1.439 0 .426.06.803.18 1.133.12.328.288.606.509.833.22.226.478.397.776.513.299.115.627.173.984.173.382 0 .724-.058 1.029-.173.304-.116.566-.287.782-.513.217-.227.382-.505.496-.833.113-.33.17-.707.17-1.133 0-.566-.106-1.046-.316-1.439-.21-.392-.5-.69-.868-.894Zm-.34 3.177c-.072.228-.184.401-.337.517-.153.115-.352.173-.598.173-.248 0-.45-.058-.603-.173a.994.994 0 0 1-.341-.517 2.799 2.799 0 0 1-.11-.844c0-.505.083-.885.248-1.137.165-.253.43-.38.797-.38.248 0 .45.057.605.17a.975.975 0 0 1 .339.505c.07.223.106.504.106.842 0 .335-.035.616-.106.844ZM30.836 44.542h-1.562l-1.423 1.552a5.082 5.082 0 0 0-.315.38c-.099.13-.195.263-.29.396h-.017c.018-.191.034-.384.05-.575.015-.191.023-.384.023-.575v-3.178h-1.386v7.104h1.386v-1.589l.595-.48 1.463 2.07h1.6l-2.141-2.891 2.017-2.214ZM32.922 44.683h-.458v4.963h.458v-4.963ZM32.7 42.848c-.109 0-.19.034-.245.103a.426.426 0 0 0-.082.276c0 .115.027.207.082.273.054.068.136.102.245.102.115 0 .2-.034.254-.102a.422.422 0 0 0 .082-.273.432.432 0 0 0-.082-.276c-.054-.07-.14-.103-.254-.103ZM36.678 47.213a9.584 9.584 0 0 0-.797-.315c-.28-.098-.52-.187-.722-.267a1.235 1.235 0 0 1-.468-.301c-.109-.12-.164-.288-.164-.501 0-.277.114-.486.34-.63.228-.143.543-.215.946-.215.245 0 .49.028.735.083.246.054.463.127.65.215l.164-.393a4.083 4.083 0 0 0-.697-.217 3.826 3.826 0 0 0-.83-.085c-.535 0-.963.111-1.28.334a1.072 1.072 0 0 0-.478.931c0 .293.067.523.2.692.133.168.317.304.552.406.235.103.504.205.807.308.29.097.538.194.745.288.206.094.365.206.474.336.111.129.166.292.166.49a.852.852 0 0 1-.335.712c-.225.174-.591.26-1.1.26-.29 0-.574-.034-.85-.104a3.819 3.819 0 0 1-.754-.274v.456c.181.088.407.163.676.224.27.061.576.091.918.091.412 0 .76-.053 1.041-.162.281-.108.496-.266.644-.474.146-.21.22-.46.22-.755 0-.3-.073-.536-.218-.71a1.597 1.597 0 0 0-.585-.423ZM39.017 42.542h-.464v7.104h.464v-7.104ZM42.202 44.596c-.297 0-.58.037-.851.11a4.442 4.442 0 0 0-.762.278l.146.384a3.83 3.83 0 0 1 .715-.28 2.71 2.71 0 0 1 .734-.1c.391 0 .686.109.886.326.2.216.3.577.3 1.086v.361l-.918.046c-.76.033-1.343.178-1.75.435-.405.258-.608.633-.608 1.126 0 .292.06.54.184.744.123.204.297.36.522.466.226.106.499.16.816.16.315 0 .583-.042.802-.124a1.62 1.62 0 0 0 .557-.34c.152-.144.28-.31.386-.496h.027l.082.868h.354v-3.329c0-.6-.135-1.035-.404-1.31-.27-.274-.675-.41-1.218-.41Zm1.164 3.014c-.004.535-.148.96-.434 1.27-.287.31-.701.465-1.244.465-.347 0-.62-.084-.815-.252-.196-.167-.293-.407-.293-.72 0-.39.164-.683.49-.877.328-.195.806-.308 1.432-.338l.864-.036v.488ZM47.405 44.587c-.297 0-.557.046-.782.135-.223.09-.412.21-.566.36a1.79 1.79 0 0 0-.36.505h-.027l-.069-.904h-.372v4.963h.459v-2.735c0-.642.143-1.122.43-1.44.285-.319.7-.478 1.242-.478.427 0 .753.116.977.347.224.232.336.595.336 1.087v3.22h.455V46.4c0-.623-.15-1.082-.446-1.374-.297-.293-.722-.439-1.277-.439ZM53.99 44.56a13.133 13.133 0 0 0 .037 1.033h-.037a1.574 1.574 0 0 0-.866-.872 1.92 1.92 0 0 0-.743-.134c-.667 0-1.186.226-1.558.677-.373.45-.559 1.104-.559 1.962 0 .82.176 1.442.53 1.87.352.428.866.641 1.542.641.303 0 .562-.044.777-.134.215-.09.394-.21.538-.363a1.79 1.79 0 0 0 .339-.503h.027l.06.91h.371v-7.105h-.458v2.017Zm.004 2.67c0 .677-.123 1.197-.367 1.56-.246.364-.66.546-1.242.546-.556 0-.97-.178-1.242-.534-.271-.356-.406-.878-.406-1.567 0-.73.144-1.287.434-1.67.289-.384.707-.576 1.255-.576.555 0 .955.187 1.2.56.245.372.368.909.368 1.61v.072Z"/>
</svg>