<svg xmlns="http://www.w3.org/2000/svg" width="175" height="175" fill="none">
    <path fill="#F6FEFF" d="M175 87.5c0 48.325-39.175 87.5-87.5 87.5S0 135.825 0 87.5 39.175 0 87.5 0 175 39.175 175 87.5Z"/>
    <path fill="#3FC9EB" d="M146.541 95.844h-35.804l34.845-1.475a1.614 1.614 0 0 0 1.542-1.683l-.038-.944a1.617 1.617 0 0 0-1.683-1.546l-27.92 1.182 26.145-3.08c.884-.105 1.513-.876 1.405-1.723l-.116-.893c-.107-.848-.914-1.448-1.799-1.343l-51.65 6.087 1.006-6.323a.688.688 0 0 0-.68-.797h-8.511a.688.688 0 0 0-.68.797l1.013 6.356-51.136-6.09c-.884-.105-1.691.495-1.802 1.34l-.116.895c-.11.845.518 1.615 1.403 1.72l25.629 3.051-27.607-1.296a1.616 1.616 0 0 0-1.688 1.54l-.045.944a1.617 1.617 0 0 0 1.537 1.693l33.84 1.588H28.486c-.777 0-1.409.633-1.409 1.412v1.356c0 .779.632 1.412 1.41 1.412h50.632c.878 3.931 4.384 6.866 8.569 6.866 4.184 0 7.69-2.935 8.569-6.866h50.284A1.46 1.46 0 0 0 148 98.561v-1.254a1.46 1.46 0 0 0-1.459-1.463ZM84.301 72.006a.657.657 0 0 0-.685.728l.873 7.792c.077.69.643 1.221 1.334 1.254l4.17.194a1.409 1.409 0 0 0 1.444-1.12l1.597-7.678a.66.66 0 0 0-.614-.79l-8.119-.38ZM93.927 61.414l-8.018-1a.653.653 0 0 0-.732.669l.27 7.788c.025.69.546 1.257 1.228 1.344l4.116.513a1.4 1.4 0 0 0 1.516-1l2.168-7.484a.654.654 0 0 0-.548-.83Z"/>
    <path fill="#3FC9EB" d="M58.6 52.282c3.646 1.913 14.625 6.445 29.263 1.206l-.458 3.287a1.38 1.38 0 0 0 .962 1.51l3.91 1.2c.647.2 1.344-.101 1.641-.71l2.064-4.215c3.575 5.51 11.485 14.079 27.089 16.774.759.132 1.319-.686.941-1.361-6.347-11.332-15.139-16.33-21.665-18.533 4.676-.125 10.77-1.546 17.218-6.427.444-.338.292-1.042-.253-1.177-11.33-2.8-19.383 1.233-23.264 3.974 2.052-2.529 4.476-7.043 3.934-13.915a.443.443 0 0 0-.747-.28c-4.763 4.546-5.93 9.529-6.088 12.86-9.462-15.36-23.476-18.013-28.053-18.47a.914.914 0 0 0-.915 1.299c1.513 3.22 6.201 11.305 16.992 16.473-11.324-1.147-19.6 3.063-22.624 4.914a.916.916 0 0 0 .054 1.59Zm57.963 13.09c.268.272.256.377-.062.29-2.562-.69-9.35-4.066-16.164-11.87-.277-.319-.271-.48.059-.307 8.525 4.484 14.401 10.093 16.167 11.888ZM100.14 48.605c6.383-2.24 12.078-3.018 13.844-3.221.268-.03.333.035.119.116-1.448.543-6.374 2.242-13.835 3.221-.297.04-.375-.03-.128-.116Zm-5.715-1.69c1.364-4.857 3.49-8.553 4.181-9.678.105-.17.185-.176.143-.01-.28 1.123-1.352 4.855-4.172 9.673-.114.191-.203.203-.152.015Zm-23.95-14.473c-.288-.284-.262-.445.048-.287 2.08 1.066 8.938 4.876 17.144 12.638.327.31.304.492-.042.304-8.941-4.896-15.246-10.78-17.15-12.655Zm-3.871 18.862c2.272-.362 9.965-1.433 21.22-1.4.45 0 .53.008.165.14-10.25 3.678-18.63 1.88-21.237 1.397-.396-.075-.485-.084-.148-.137ZM34.604 118.802c-.986 0-1.79.197-2.41.594-.62.397-1.108.874-1.465 1.439h-.146c.039-.278.075-.669.101-1.177.03-.504.045-1.015.045-1.531v-4.433H27v19.061h2.847l.626-1.507h.256c.357.45.828.853 1.406 1.215.578.358 1.367.537 2.37.537 1.043 0 1.96-.266 2.75-.803.792-.534 1.405-1.332 1.846-2.388.441-1.057.658-2.368.658-3.926 0-2.32-.476-4.081-1.43-5.281-.952-1.2-2.194-1.8-3.725-1.8Zm.676 10.105c-.45.711-1.06 1.069-1.826 1.069-1.033 0-1.748-.355-2.138-1.06-.39-.708-.587-1.726-.587-3.057v-.406c.015-.824.11-1.508.286-2.045.176-.54.456-.943.837-1.212.384-.272.902-.406 1.555-.406.789 0 1.411.34 1.867 1.018.459.678.685 1.687.685 3.024 0 1.341-.226 2.368-.68 3.075ZM51.173 119.623c-.99-.547-2.124-.821-3.402-.821-1.379 0-2.564.274-3.559.821-.992.546-1.76 1.346-2.296 2.4-.54 1.054-.807 2.34-.807 3.86 0 1.143.16 2.155.482 3.039.322.881.777 1.627 1.37 2.236a5.8 5.8 0 0 0 2.088 1.376c.804.311 1.686.466 2.648.466 1.027 0 1.948-.155 2.767-.466.819-.31 1.522-.77 2.102-1.376.584-.609 1.028-1.355 1.335-2.236.304-.884.455-1.896.455-3.039 0-1.52-.282-2.806-.848-3.86-.566-1.054-1.344-1.854-2.335-2.4Zm-.915 8.526c-.193.612-.494 1.075-.905 1.385-.411.31-.947.466-1.608.466-.668 0-1.21-.156-1.624-.466-.417-.31-.724-.773-.917-1.385-.197-.612-.295-1.368-.295-2.266 0-1.355.223-2.373.667-3.051.444-.678 1.159-1.018 2.145-1.018.667 0 1.209.152 1.626.454.414.304.718.755.911 1.355.19.6.286 1.352.286 2.26 0 .898-.095 1.654-.286 2.266ZM65.77 119.623c-.99-.547-2.124-.821-3.402-.821-1.379 0-2.564.274-3.559.821-.992.546-1.76 1.346-2.296 2.4-.54 1.054-.807 2.34-.807 3.86 0 1.143.16 2.155.482 3.039.322.881.778 1.627 1.37 2.236a5.8 5.8 0 0 0 2.088 1.376c.804.311 1.686.466 2.648.466 1.027 0 1.948-.155 2.767-.466a5.637 5.637 0 0 0 2.102-1.376c.584-.609 1.028-1.355 1.335-2.236.304-.884.456-1.896.456-3.039 0-1.52-.283-2.806-.85-3.86-.565-1.054-1.343-1.854-2.334-2.4Zm-.915 8.526c-.193.612-.494 1.075-.905 1.385-.411.31-.947.466-1.608.466-.668 0-1.21-.156-1.624-.466-.417-.31-.723-.773-.917-1.385-.197-.612-.295-1.368-.295-2.266 0-1.355.224-2.373.667-3.051.444-.678 1.159-1.018 2.145-1.018.667 0 1.209.152 1.626.454.414.304.718.755.911 1.355.19.6.286 1.352.286 2.26 0 .898-.095 1.654-.286 2.266ZM84.37 119.058h-4.203l-3.827 4.165c-.3.328-.584.666-.849 1.018a42.23 42.23 0 0 0-.777 1.066h-.048c.048-.514.093-1.03.134-1.544.042-.513.063-1.03.063-1.543v-8.526h-3.73v19.061h3.73v-4.263l1.6-1.287 3.937 5.55h4.3l-5.757-7.756 5.427-5.941ZM89.981 119.437h-1.233v13.318h1.233v-13.318ZM89.382 114.515c-.291 0-.512.089-.658.274-.149.185-.22.43-.22.741 0 .31.071.555.22.734.146.182.367.272.658.272.31 0 .54-.09.685-.272.146-.179.22-.424.22-.734 0-.311-.074-.556-.22-.741-.146-.185-.375-.274-.685-.274ZM100.084 126.226a26.136 26.136 0 0 0-2.145-.845 52.666 52.666 0 0 1-1.942-.716c-.548-.218-.968-.487-1.26-.809-.291-.323-.44-.77-.44-1.344 0-.743.306-1.304.917-1.689.61-.385 1.46-.576 2.544-.576.658 0 1.319.074 1.977.22.661.147 1.245.341 1.749.577l.44-1.054a10.975 10.975 0 0 0-1.876-.582 10.281 10.281 0 0 0-2.23-.227c-1.442 0-2.592.298-3.447.895-.855.594-1.283 1.43-1.283 2.499 0 .785.178 1.403.538 1.857.358.451.852.815 1.484 1.09a28.94 28.94 0 0 0 2.171.827c.78.259 1.447.519 2.004.77.555.254.98.555 1.275.901.298.347.447.786.447 1.317 0 .809-.301 1.445-.902 1.911-.605.465-1.59.698-2.961.698-.78 0-1.543-.092-2.284-.28a10.302 10.302 0 0 1-2.029-.735v1.224c.489.236 1.096.436 1.82.6.727.164 1.549.245 2.47.245 1.107 0 2.042-.143 2.799-.436.756-.289 1.334-.713 1.73-1.272.393-.561.593-1.236.593-2.027 0-.803-.197-1.436-.587-1.901-.393-.466-.914-.845-1.572-1.138ZM106.374 113.694h-1.248v19.061h1.248v-19.061ZM114.943 119.205c-.798 0-1.561.098-2.291.295-.729.194-1.411.445-2.049.747l.393 1.029c.65-.328 1.293-.579 1.925-.752a7.314 7.314 0 0 1 1.974-.266c1.052 0 1.844.29 2.383.872.539.579.807 1.55.807 2.914v.97l-2.469.123c-2.046.089-3.613.477-4.706 1.167-1.093.692-1.638 1.698-1.638 3.021 0 .785.164 1.451.494 1.997.331.546.799.964 1.406 1.251.608.284 1.341.427 2.195.427.846 0 1.567-.111 2.157-.331a4.369 4.369 0 0 0 1.498-.911 5.83 5.83 0 0 0 1.039-1.331h.072l.22 2.328h.953v-8.932c0-1.609-.363-2.779-1.087-3.514-.727-.737-1.817-1.104-3.276-1.104Zm3.13 8.087c-.009 1.436-.399 2.573-1.167 3.406-.772.833-1.886 1.248-3.345 1.248-.935 0-1.668-.224-2.192-.675-.527-.447-.789-1.092-.789-1.934 0-1.045.44-1.83 1.319-2.353.882-.522 2.165-.823 3.851-.904l2.323-.099v1.311ZM128.938 119.181c-.798 0-1.498.122-2.102.361a4.62 4.62 0 0 0-1.522.967 4.796 4.796 0 0 0-.971 1.356h-.072l-.184-2.428h-1.001v13.318h1.233v-7.338c0-1.722.384-3.012 1.155-3.866.769-.854 1.883-1.281 3.342-1.281 1.15 0 2.025.311 2.63.932.602.621.903 1.594.903 2.917v8.636h1.224v-8.711c0-1.672-.402-2.902-1.201-3.687-.798-.785-1.942-1.176-3.434-1.176ZM146.651 119.106c0 .418.009.875.024 1.373.017.499.041.965.074 1.398h-.098a4.422 4.422 0 0 0-.9-1.38 4.23 4.23 0 0 0-1.429-.961c-.566-.236-1.233-.355-1.999-.355-1.793 0-3.19.606-4.19 1.815-1.004 1.206-1.504 2.964-1.504 5.266 0 2.197.473 3.869 1.423 5.018.95 1.147 2.332 1.72 4.149 1.72.816 0 1.513-.119 2.091-.361a4.179 4.179 0 0 0 1.447-.974c.388-.408.691-.856.912-1.349h.074l.158 2.439h1.001v-19.061h-1.233v5.412Zm.012 7.168c0 1.815-.331 3.209-.989 4.185-.661.977-1.772 1.463-3.339 1.463-1.498 0-2.612-.477-3.342-1.433-.729-.955-1.093-2.355-1.093-4.203 0-1.958.387-3.454 1.168-4.484.777-1.027 1.903-1.544 3.377-1.544 1.492 0 2.568.502 3.229 1.502.658 1 .989 2.439.989 4.32v.194Z"/>
</svg>