<svg xmlns="http://www.w3.org/2000/svg" width="175" height="175" fill="none">
    <path fill="#3FC9EB" d="M175 87.5c0 48.325-39.175 87.5-87.5 87.5S0 135.825 0 87.5 39.175 0 87.5 0 175 39.175 175 87.5Z"/>
    <path fill="#F6FEFF" d="M147.516 98.136h-36.395l35.421-1.502a1.644 1.644 0 0 0 1.568-1.716l-.039-.962a1.645 1.645 0 0 0-1.711-1.575l-28.381 1.204 26.576-3.14c.9-.106 1.538-.89 1.429-1.755l-.118-.91c-.109-.863-.929-1.475-1.828-1.368l-52.505 6.203 1.023-6.444a.7.7 0 0 0-.69-.812h-8.653a.7.7 0 0 0-.69.812l1.029 6.477-51.981-6.206c-.9-.106-1.72.505-1.832 1.366l-.118.913c-.112.86.527 1.646 1.426 1.752l26.053 3.11-28.063-1.321a1.645 1.645 0 0 0-1.717 1.57l-.045.961a1.646 1.646 0 0 0 1.562 1.725l34.4 1.618H27.51c-.79 0-1.432.645-1.432 1.44v1.381c0 .794.642 1.439 1.432 1.439h51.47c.892 4.006 4.456 6.997 8.71 6.997 4.254 0 7.817-2.991 8.71-6.997h51.115c.821 0 1.484-.667 1.484-1.491v-1.278c0-.824-.663-1.49-1.484-1.49ZM84.248 73.844a.668.668 0 0 0-.696.743l.887 7.94a1.437 1.437 0 0 0 1.356 1.278l4.24.197a1.433 1.433 0 0 0 1.468-1.14l1.622-7.825a.673.673 0 0 0-.623-.806l-8.254-.387ZM94.034 63.05l-8.15-1.019a.665.665 0 0 0-.746.682l.276 7.937c.024.703.554 1.28 1.247 1.369l4.184.523a1.424 1.424 0 0 0 1.542-1.019l2.204-7.627a.667.667 0 0 0-.557-.846Z"/>
    <path fill="#F6FEFF" d="M58.123 53.744c3.706 1.95 14.866 6.569 29.746 1.23l-.466 3.349a1.406 1.406 0 0 0 .978 1.54l3.975 1.222a1.397 1.397 0 0 0 1.669-.724l2.098-4.295c3.633 5.615 11.674 14.347 27.536 17.094.772.134 1.341-.7.957-1.388-6.452-11.548-15.39-16.64-22.023-18.886 4.753-.127 10.947-1.576 17.502-6.55.451-.343.297-1.061-.257-1.198-11.517-2.854-19.704 1.256-23.649 4.05 2.086-2.578 4.551-7.178 4-14.18a.45.45 0 0 0-.76-.287c-4.841 4.634-6.028 9.711-6.189 13.106-9.618-15.652-23.863-18.356-28.517-18.822-.714-.073-1.235.67-.93 1.323 1.539 3.283 6.304 11.521 17.273 16.787-11.51-1.168-19.924 3.122-22.998 5.008a.935.935 0 0 0 .055 1.621Zm58.92 13.34c.273.277.261.384-.063.296-2.604-.703-9.504-4.144-16.431-12.096-.282-.326-.275-.49.061-.314 8.665 4.57 14.638 10.286 16.433 12.115Zm-16.694-17.088c6.488-2.281 12.277-3.075 14.073-3.282.272-.03.339.036.121.118-1.472.554-6.479 2.285-14.064 3.283-.302.04-.381-.03-.13-.119Zm-5.81-1.722c1.387-4.95 3.549-8.715 4.251-9.863.106-.173.188-.179.145-.009-.284 1.144-1.374 4.947-4.241 9.857-.115.195-.206.207-.155.015ZM70.194 33.526c-.294-.29-.266-.454.049-.292 2.113 1.086 9.086 4.968 17.427 12.877.333.317.308.502-.043.31-9.089-4.989-15.498-10.985-17.433-12.895Zm-3.936 19.22c2.31-.368 10.13-1.46 21.572-1.426.457 0 .539.009.166.143C77.58 55.21 69.06 53.379 66.41 52.886c-.403-.076-.494-.085-.152-.14ZM33.73 121.531c-1.003 0-1.82.201-2.45.606-.63.404-1.126.891-1.49 1.466h-.148c.04-.283.076-.682.103-1.199.03-.514.046-1.034.046-1.56v-4.518H26v19.425h2.894l.636-1.537h.26c.364.46.842.87 1.43 1.238.587.365 1.39.548 2.41.548 1.06 0 1.992-.271 2.794-.818.805-.545 1.43-1.357 1.877-2.434.448-1.077.67-2.413.67-4.001 0-2.363-.485-4.158-1.454-5.381-.969-1.223-2.231-1.835-3.788-1.835Zm.687 10.298c-.457.724-1.078 1.089-1.856 1.089-1.05 0-1.777-.362-2.174-1.08-.397-.721-.596-1.758-.596-3.115v-.414c.015-.839.112-1.536.29-2.084.179-.55.463-.961.851-1.235.39-.277.917-.414 1.58-.414.803 0 1.435.347 1.899 1.038.466.69.696 1.719.696 3.082 0 1.366-.23 2.412-.69 3.133ZM50.572 122.368c-1.005-.557-2.159-.837-3.457-.837-1.402 0-2.607.28-3.618.837-1.009.556-1.79 1.372-2.335 2.446-.548 1.074-.82 2.385-.82 3.933 0 1.165.163 2.197.49 3.097.327.898.79 1.658 1.393 2.279a5.904 5.904 0 0 0 2.122 1.402c.818.317 1.714.475 2.692.475 1.044 0 1.98-.158 2.813-.475a5.736 5.736 0 0 0 2.137-1.402c.594-.621 1.045-1.381 1.356-2.279.31-.9.464-1.932.464-3.097 0-1.548-.288-2.859-.863-3.933-.575-1.074-1.366-1.89-2.374-2.446Zm-.93 8.688c-.196.624-.502 1.096-.92 1.412-.418.316-.962.475-1.635.475-.678 0-1.229-.159-1.65-.475-.424-.316-.735-.788-.932-1.412-.2-.623-.3-1.393-.3-2.309 0-1.381.227-2.418.678-3.109.451-.69 1.178-1.037 2.18-1.037.678 0 1.23.155 1.653.462.421.31.73.77.927 1.381.193.612.29 1.378.29 2.303 0 .916-.097 1.686-.29 2.309ZM65.41 122.368c-1.005-.557-2.158-.837-3.457-.837-1.402 0-2.607.28-3.618.837-1.008.556-1.79 1.372-2.334 2.446-.548 1.074-.82 2.385-.82 3.933 0 1.165.163 2.197.49 3.097.327.898.79 1.658 1.392 2.279a5.903 5.903 0 0 0 2.123 1.402c.817.317 1.713.475 2.691.475 1.045 0 1.98-.158 2.813-.475a5.736 5.736 0 0 0 2.137-1.402c.594-.621 1.045-1.381 1.357-2.279.309-.9.463-1.932.463-3.097 0-1.548-.288-2.859-.863-3.933-.575-1.074-1.365-1.89-2.374-2.446Zm-.929 8.688c-.197.624-.503 1.096-.92 1.412-.418.316-.963.475-1.635.475-.678 0-1.23-.159-1.65-.475-.424-.316-.736-.788-.933-1.412-.2-.623-.3-1.393-.3-2.309 0-1.381.227-2.418.679-3.109.45-.69 1.177-1.037 2.18-1.037.678 0 1.229.155 1.653.462.42.31.73.77.926 1.381.194.612.29 1.378.29 2.303 0 .916-.096 1.686-.29 2.309ZM84.318 121.793h-4.272l-3.89 4.244a13.83 13.83 0 0 0-.863 1.037c-.27.359-.533.721-.79 1.086h-.049c.048-.523.094-1.049.136-1.573.043-.523.064-1.049.064-1.572v-8.689h-3.79v19.425h3.79v-4.345l1.626-1.311 4.002 5.656h4.372l-5.852-7.904 5.516-6.054ZM90.022 122.179h-1.253v13.572h1.253v-13.572ZM89.413 117.163c-.296 0-.52.091-.669.279-.151.189-.224.438-.224.755 0 .316.073.566.224.748.149.186.373.277.67.277.314 0 .547-.091.696-.277.148-.182.224-.432.224-.748 0-.317-.076-.566-.224-.755-.149-.188-.382-.279-.697-.279ZM100.292 129.097a26.344 26.344 0 0 0-2.18-.861 53.444 53.444 0 0 1-1.974-.73c-.557-.222-.984-.496-1.28-.824-.298-.329-.449-.785-.449-1.369 0-.758.312-1.33.932-1.722.621-.393 1.484-.587 2.586-.587.67 0 1.341.076 2.01.225a8.547 8.547 0 0 1 1.778.587l.448-1.074a11.175 11.175 0 0 0-1.908-.593 10.476 10.476 0 0 0-2.267-.231c-1.466 0-2.634.304-3.503.912-.87.606-1.305 1.457-1.305 2.547 0 .8.181 1.429.548 1.892.363.459.866.83 1.508 1.11a28.9 28.9 0 0 0 2.207.843c.793.265 1.471.529 2.037.785.563.258.996.566 1.296.919.303.352.454.8.454 1.341 0 .825-.306 1.473-.917 1.947-.615.475-1.617.712-3.01.712a9.377 9.377 0 0 1-2.322-.286 10.466 10.466 0 0 1-2.062-.748v1.247c.497.24 1.115.444 1.85.612.739.167 1.575.249 2.51.249 1.127 0 2.077-.146 2.846-.444.769-.295 1.357-.727 1.759-1.296.4-.572.603-1.26.603-2.066 0-.818-.2-1.463-.597-1.938-.399-.474-.929-.861-1.598-1.159ZM106.686 116.326h-1.269v19.425h1.269v-19.425ZM115.396 121.942c-.811 0-1.586.1-2.328.301-.742.198-1.435.453-2.083.761l.4 1.049c.66-.334 1.314-.59 1.956-.766a7.4 7.4 0 0 1 2.007-.271c1.069 0 1.874.295 2.422.888.548.59.821 1.579.821 2.969v.989l-2.51.125c-2.08.091-3.673.486-4.784 1.189-1.111.706-1.665 1.731-1.665 3.079 0 .8.166 1.478.502 2.035.337.557.812.983 1.429 1.275.618.289 1.363.435 2.232.435.86 0 1.592-.113 2.192-.338a4.427 4.427 0 0 0 1.523-.928 5.89 5.89 0 0 0 1.056-1.356h.073l.224 2.372h.969v-9.102c0-1.64-.369-2.832-1.105-3.581-.739-.751-1.847-1.125-3.331-1.125Zm3.182 8.241c-.009 1.464-.405 2.623-1.186 3.471-.784.849-1.917 1.272-3.4 1.272-.951 0-1.696-.228-2.229-.687-.536-.457-.802-1.114-.802-1.972 0-1.065.448-1.865 1.341-2.397.896-.533 2.201-.84 3.915-.922l2.361-.1v1.335ZM129.623 121.918c-.811 0-1.523.124-2.137.368a4.684 4.684 0 0 0-1.547.985 4.891 4.891 0 0 0-.987 1.381h-.073l-.188-2.473h-1.017v13.572h1.253v-7.478c0-1.756.391-3.07 1.175-3.94.781-.87 1.914-1.305 3.397-1.305 1.169 0 2.059.316 2.673.949.612.633.918 1.625.918 2.972v8.802h1.244v-8.878c0-1.703-.409-2.957-1.22-3.757-.811-.8-1.974-1.198-3.491-1.198ZM147.628 121.841c0 .426.01.892.025 1.4.018.508.042.983.075 1.424h-.1a4.485 4.485 0 0 0-.914-1.406 4.288 4.288 0 0 0-1.453-.979c-.575-.241-1.254-.362-2.032-.362-1.822 0-3.242.617-4.26 1.849-1.02 1.229-1.528 3.021-1.528 5.367 0 2.239.481 3.942 1.447 5.114.966 1.168 2.37 1.752 4.217 1.752.83 0 1.538-.122 2.126-.368a4.26 4.26 0 0 0 1.471-.992 4.92 4.92 0 0 0 .927-1.375h.075l.161 2.485h1.017v-19.424h-1.253l-.001 5.515Zm.013 7.305c0 1.85-.336 3.27-1.006 4.265-.672.995-1.801 1.491-3.394 1.491-1.522 0-2.655-.487-3.397-1.461-.741-.973-1.111-2.4-1.111-4.283 0-1.996.394-3.52 1.187-4.569.79-1.047 1.935-1.573 3.433-1.573 1.517 0 2.61.511 3.282 1.53.67 1.019 1.006 2.485 1.006 4.402v.198Z"/>
</svg>